<svg width="25" height="25" viewBox="0 0 25 25" fill="none" xmlns="http://www.w3.org/2000/svg">
<path d="M12.5 6.73101C13.641 6.73101 14.7565 7.06937 15.7052 7.7033C16.654 8.33724 17.3934 9.23827 17.8301 10.2925C18.2667 11.3466 18.381 12.5066 18.1584 13.6258C17.9358 14.7449 17.3863 15.7729 16.5795 16.5797C15.7726 17.3865 14.7446 17.936 13.6255 18.1586C12.5064 18.3812 11.3464 18.267 10.2922 17.8303C9.23802 17.3937 8.33699 16.6542 7.70306 15.7055C7.06913 14.7567 6.73077 13.6413 6.73077 12.5002C6.73236 10.9706 7.3407 9.50414 8.42229 8.42254C9.50389 7.34094 10.9704 6.7326 12.5 6.73101ZM12.5 16.3464C13.2607 16.3464 14.0043 16.1208 14.6368 15.6982C15.2693 15.2756 15.7623 14.6749 16.0534 13.9721C16.3445 13.2693 16.4207 12.496 16.2723 11.7499C16.1238 11.0038 15.7575 10.3185 15.2196 9.7806C14.6817 9.24271 13.9964 8.8764 13.2503 8.72799C12.5043 8.57959 11.7309 8.65575 11.0281 8.94686C10.3253 9.23797 9.72466 9.73094 9.30204 10.3634C8.87942 10.9959 8.65385 11.7395 8.65385 12.5002C8.65385 13.5203 9.05907 14.4986 9.78036 15.2199C10.5017 15.9412 11.4799 16.3464 12.5 16.3464ZM6.73077 0.000244141H18.2692C20.0538 0.00215307 21.7646 0.711899 23.0265 1.97375C24.2883 3.2356 24.9981 4.94649 25 6.73101V18.2695C24.9981 20.054 24.2883 21.7649 23.0265 23.0267C21.7646 24.2886 20.0538 24.9983 18.2692 25.0002H6.73077C4.94625 24.9983 3.23536 24.2886 1.97351 23.0267C0.711655 21.7649 0.00190926 20.054 0 18.2695V6.73101C0.00190926 4.94649 0.711655 3.2356 1.97351 1.97375C3.23536 0.711899 4.94625 0.00215307 6.73077 0.000244141ZM1.92308 18.2695C1.92308 19.5446 2.4296 20.7674 3.33122 21.669C4.23284 22.5706 5.45569 23.0772 6.73077 23.0772H18.2692C19.5443 23.0772 20.7672 22.5706 21.6688 21.669C22.5704 20.7674 23.0769 19.5446 23.0769 18.2695V6.73101C23.0769 5.45593 22.5704 4.23308 21.6688 3.33146C20.7672 2.42984 19.5443 1.92332 18.2692 1.92332H6.73077C5.45569 1.92332 4.23284 2.42984 3.33122 3.33146C2.4296 4.23308 1.92308 5.45593 1.92308 6.73101V18.2695ZM4.80769 6.25024C4.80769 6.53551 4.89228 6.81436 5.05077 7.05155C5.20925 7.28873 5.43451 7.4736 5.69805 7.58276C5.9616 7.69193 6.2516 7.72049 6.53138 7.66484C6.81116 7.60919 7.06816 7.47182 7.26987 7.27011C7.47157 7.0684 7.60894 6.8114 7.66459 6.53162C7.72025 6.25184 7.69168 5.96184 7.58252 5.6983C7.47335 5.43475 7.28849 5.20949 7.0513 5.05101C6.81412 4.89253 6.53526 4.80794 6.25 4.80794C5.86748 4.80794 5.50062 4.95989 5.23013 5.23038C4.95965 5.50086 4.80769 5.86772 4.80769 6.25024Z" fill="white"/>
</svg>
