<svg width="25" height="23" viewBox="0 0 25 23" fill="none" xmlns="http://www.w3.org/2000/svg">
<path d="M25 2.70613C24.0798 3.17966 23.088 3.49083 22.0602 3.63966C23.1119 2.9226 23.9245 1.78613 24.3069 0.419656C23.315 1.09613 22.2156 1.56966 21.0564 1.84024C20.1123 0.676715 18.7859 0.000244141 17.2801 0.000244141C14.4718 0.000244141 12.1773 2.59789 12.1773 5.80436C12.1773 6.26436 12.2251 6.71083 12.3088 7.13024C8.05449 6.88672 4.26625 4.57318 1.74474 1.06907C1.30258 1.92142 1.05163 2.9226 1.05163 3.97789C1.05163 5.99377 1.9479 7.77966 3.33413 8.79436C2.48566 8.79436 1.69694 8.52377 1.00382 8.11789V8.15848C1.00382 10.9726 2.77247 13.3267 5.11472 13.8544C4.36272 14.0873 3.57325 14.1198 2.80832 13.9491C3.1329 15.1024 3.76857 16.1116 4.62598 16.8348C5.48339 17.558 6.51942 17.9588 7.58843 17.9808C5.77633 19.605 3.53011 20.4828 1.21893 20.4702C0.81262 20.4702 0.40631 20.4432 0 20.3891C2.27055 22.0397 4.97132 23.0002 7.86329 23.0002C17.2801 23.0002 22.4546 14.152 22.4546 6.48083C22.4546 6.22377 22.4546 5.98024 22.4426 5.72318C23.4465 4.91142 24.3069 3.88319 25 2.70613Z" fill="white"/>
</svg>
