<svg width="20" height="20" viewBox="0 0 20 20" fill="none" xmlns="http://www.w3.org/2000/svg">
<path d="M11.5465 8.26242L13.1232 6.68687C12.475 6.10763 11.6712 5.73118 10.8113 5.60413C9.95132 5.47707 9.073 5.60499 8.28501 5.97204C7.49702 6.3391 6.83398 6.92917 6.37794 7.66922C5.9219 8.40927 5.6929 9.26681 5.71927 10.1357C5.74565 11.0046 6.02624 11.8466 6.52633 12.5577C7.02641 13.2687 7.72403 13.8175 8.53283 14.1361C9.34163 14.4546 10.2261 14.529 11.0768 14.3501C11.9274 14.1711 12.7069 13.7466 13.3188 13.1291L11.8599 11.6702H11.6265C11.3088 11.9491 10.9182 12.1316 10.5004 12.1963C10.0827 12.261 9.65514 12.2052 9.26798 12.0354C8.88083 11.8656 8.55013 11.589 8.3147 11.2378C8.07927 10.8867 7.94887 10.4757 7.93881 10.0531C7.92876 9.6305 8.03945 9.21378 8.25791 8.85186C8.47637 8.48994 8.79353 8.19785 9.17217 8.00985C9.55081 7.82186 9.97521 7.74576 10.3956 7.7905C10.8159 7.83524 11.2148 7.99895 11.5454 8.26242H11.5465Z" fill="white"/>
<path fill-rule="evenodd" clip-rule="evenodd" d="M10 0C11.3132 -1.95685e-08 12.6136 0.258658 13.8268 0.761205C15.0401 1.26375 16.1425 2.00035 17.0711 2.92893C17.9997 3.85752 18.7362 4.95991 19.2388 6.17317C19.7413 7.38642 20 8.68678 20 10C20 11.3132 19.7413 12.6136 19.2388 13.8268C18.7362 15.0401 17.9997 16.1425 17.0711 17.0711C16.1425 17.9997 15.0401 18.7362 13.8268 19.2388C12.6136 19.7413 11.3132 20 10 20C7.34784 20 4.8043 18.9464 2.92893 17.0711C1.05357 15.1957 0 12.6522 0 10C0 7.34784 1.05357 4.8043 2.92893 2.92893C4.8043 1.05357 7.34784 3.95203e-08 10 0ZM10 2.22222C11.0214 2.22222 12.0328 2.4234 12.9764 2.81427C13.9201 3.20514 14.7775 3.77805 15.4997 4.50028C16.222 5.22251 16.7949 6.07993 17.1857 7.02357C17.5766 7.96722 17.7778 8.97861 17.7778 10C17.7778 11.0214 17.5766 12.0328 17.1857 12.9764C16.7949 13.9201 16.222 14.7775 15.4997 15.4997C14.7775 16.222 13.9201 16.7949 12.9764 17.1857C12.0328 17.5766 11.0214 17.7778 10 17.7778C7.93721 17.7778 5.9589 16.9583 4.50028 15.4997C3.04166 14.0411 2.22222 12.0628 2.22222 10C2.22222 7.93721 3.04166 5.9589 4.50028 4.50028C5.9589 3.04166 7.93721 2.22222 10 2.22222Z" fill="white"/>
</svg>
