<?xml version="1.0" encoding="utf-8"?>
<!-- Generator: Adobe Illustrator 26.1.0, SVG Export Plug-In . SVG Version: 6.00 Build 0)  -->
<svg version="1.1" id="Calque_1" xmlns="http://www.w3.org/2000/svg" xmlns:xlink="http://www.w3.org/1999/xlink" x="0px" y="0px"
	 viewBox="0 0 170 170" style="enable-background:new 0 0 170 170;" xml:space="preserve">
<style type="text/css">
	.st0{fill:#F73746;stroke:#000000;stroke-miterlimit:4;}
	.st1{fill:#FFFFFF;stroke:#000000;stroke-miterlimit:4;}
	.st2{fill:#FFFFFF;stroke:#20201E;stroke-miterlimit:4;}
</style>
<g>
	<polygon class="st0" points="84.9,104 42.7,147.1 0.4,104 42.7,61 	"/>
	<polygon class="st1" points="127.2,61 84.9,104 42.7,61 84.9,17.9 	"/>
	<polygon class="st1" points="42.7,147.1 43.4,147.9 126.4,147.9 127.2,147.1 84.9,104 	"/>
	<polygon class="st0" points="169.4,104 127.2,147.1 84.9,104 127.2,61 	"/>
</g>
<path class="st2" d="M84.9,110.8"/>
<g>
	<path class="st2" d="M60.9,68.1c0,0,1.6-8.5,1.6-9.7c0-1.2,1.2-1.4,2.4,0.2c1.2,1.6,6.6,9.3,6.6,9.3L60.9,68.1L60.9,68.1z"/>
	<path class="st2" d="M132.2,133.2c-0.5-3.8-1.3-7.5-2.2-11l-2.9-1.1l1.9-2.3c-1.1-3.7-2.4-7.1-3.8-10.4l-2.7-0.8l1.4-2.3
		c-1.5-3.1-3-6-4.7-8.7l-2.5-0.5l0.9-2.1c-1.8-2.8-3.7-5.4-5.6-7.7l-2.7-0.3l0.7-2.1c-2.2-2.5-4.3-4.8-6.3-6.7l-2.7-0.2l0.5-1.9
		c-4.8-4.3-8.2-6.4-8.2-6.4l-6.1,1.8c0,0-2.9-1.6-5.3-3.2c0,0-1.6-5.3-2.1-8.2c-0.5-2.9-2.1-1.6-2.7-0.8c-0.5,0.8-6,6.8-6,6.8
		s-3.3-0.4-5.6,0c-3.4,0.7-5,3-9,6.7c-2.9,2.7-4.6,5.1-5.6,7.7c-1,2.6,0.2,2.6-0.2,4.9c-0.4,2.4-11.1,20.2-12.3,22.3
		c-1.2,2.2-4.1,8.8,1.6,13c1.6,1.2,2.8,1.8,3.8,2.2c0,0,1.6-0.4,2.2-1.2c0.1-0.1,0.2-0.2,0.2-0.3c0-0.1,0-0.1,0,0
		c-0.1,0.2-0.2,0.7,0.4,1.5c1,1.2,2.3,1.1,3,1.2c1.1,0.1,3-0.8,4.6-3.2c1.6-2.4,2.6-3.2,3.8-4.5c1.2-1.4,7.8-4.4,10.3-8.7
		c0.6-1,2-0.6,3,0.2c1,0.8,6.6,1,8.9-3c0,0,1.1,10.4-3.6,17.6c-7.8,11.9-20.9,14.8-24.8,25.9h81.5c0-3.8-0.2-7.5-0.6-11l-2.7-1.4
		L132.2,133.2L132.2,133.2z"/>
	<path class="st1" d="M90.2,73.4c0,0,34.7,25.8,34.7,72.4"/>
	<path class="st1" d="M83.1,91.3c0.7,7.4-2.8,12.6-2.9,13.1c0,0,8.3-4.3,9.1-9.9"/>
	<path class="st1" d="M80.1,104.4c0,0,5.6,2.7,9.7,1"/>
	<path class="st2" d="M46,120.9c0,0,3.7-4.7,4.8-6.9"/>
	<path class="st1" d="M68.8,77.2c0,0-6.1,0-8.2,3.4c-2.8,4.5,0.4,5.1,0.4,5.1s3.2,1,5.4-2c2.3-3.2,0.4-5.1,0.4-5.1L68.8,77.2
		L68.8,77.2z"/>
	<path class="st1" d="M39.2,110.7c2.2-0.6,3.6-0.4,4.6,0.2c0,0-1-3,0.8-5.5c1.8-2.6,4.8-2.8,7.4-7.7"/>
	<line class="st1" x1="97.2" y1="79.9" x2="101" y2="77.6"/>
	<line class="st1" x1="105" y1="88.4" x2="108.8" y2="86.7"/>
	<line class="st1" x1="111.9" y1="98.3" x2="116.3" y2="96.5"/>
	<line class="st1" x1="117.5" y1="109.6" x2="122.1" y2="108"/>
	<line class="st1" x1="121.9" y1="122.8" x2="126.7" y2="121.4"/>
	<line class="st1" x1="124.5" y1="136.2" x2="129.4" y2="135.7"/>
</g>
</svg>
