<?xml version="1.0" encoding="utf-8"?>
<!-- Generator: Adobe Illustrator 26.1.0, SVG Export Plug-In . SVG Version: 6.00 Build 0)  -->
<svg version="1.1" id="Calque_1" xmlns="http://www.w3.org/2000/svg" xmlns:xlink="http://www.w3.org/1999/xlink" x="0px" y="0px"
	 viewBox="0 0 1028.9 704.9" style="enable-background:new 0 0 1028.9 704.9;" xml:space="preserve">
<style type="text/css">
	.st0{fill:#FFFFFF;}
	.st1{fill:#3A3C40;}
	.st2{fill:#CCCCCC;}
	.st3{opacity:0.7945;fill:url(#SVGID_1_);enable-background:new    ;}
	.st4{fill:#B3B3B3;}
	.st5{fill:url(#SVGID_00000146475395502825887560000013800792220403307439_);}
	.st6{fill:#1F2A36;}
	.st7{opacity:0.7965;}
	.st8{opacity:0.5;fill:#FFFFFF;enable-background:new    ;}
	.st9{opacity:0.7;fill:#FFFFFF;enable-background:new    ;}
	.st10{opacity:0.3;fill:#FFFFFF;enable-background:new    ;}
	.st11{opacity:0.8165;fill:#4F5155;enable-background:new    ;}
	.st12{fill:#A05A2C;}
	.st13{fill:#C88746;}
	.st14{fill:#673600;}
	.st15{fill:#ECBA78;}
	.st16{fill:#809FED;}
	.st17{fill:#A0C0F8;}
	.st18{fill:#6B74C6;}
	.st19{fill:#F3BA8F;}
	.st20{opacity:0.5354;fill:#FFF3E0;enable-background:new    ;}
	.st21{fill:#C9844D;}
	.st22{fill:#D38D5F;}
	.st23{fill:#FFCC00;}
	.st24{fill:#FFEC00;}
	.st25{fill:#E4A200;}
	.st26{fill:#D8001A;}
	.st27{fill:#FF2020;}
	.st28{fill:#A50022;}
	.st29{fill:#4D4D4D;}
	.st30{fill:#808080;}
	.st31{fill:#353637;}
	.st32{fill:#2D2D2B;}
	.st33{fill:#AA0000;}
	.st34{fill:#D40000;}
	.st35{fill:#7D0000;}
	.st36{opacity:0.5354;fill:#FFF7E9;enable-background:new    ;}
	.st37{fill:#BE0000;}
	.st38{fill:#FF0000;}
	.st39{fill:#B26431;}
	.st40{fill:#784421;}
	.st41{fill:#874D26;}
	.st42{opacity:0.4513;fill:#C87137;enable-background:new    ;}
	.st43{fill:#666666;}
	.st44{fill:#F9F9F9;}
	.st45{fill:url(#SVGID_00000143597399985798111820000003114466045047193747_);}
	.st46{fill:#333333;}
	.st47{fill:url(#SVGID_00000114772369015795327620000012281397285967242670_);}
	.st48{fill:url(#SVGID_00000119804961336866664700000017481900973060677558_);}
	.st49{fill:url(#SVGID_00000142876196654147877150000011265527342648508327_);}
	.st50{fill:#828383;}
	.st51{fill:url(#SVGID_00000006671583343048671390000001082650916380584332_);}
	.st52{fill:url(#SVGID_00000170276551096425404870000001115524969231800476_);}
	.st53{fill:url(#SVGID_00000120522623503792744280000006649850304635296158_);}
	.st54{fill:url(#SVGID_00000070111660219703214620000014306323946623338625_);}
	.st55{fill:url(#SVGID_00000008835288037104249030000010907173604374972322_);}
	.st56{fill:#FFF7E9;}
	.st57{fill:url(#SVGID_00000056410181385401110980000013680238113559013262_);}
	.st58{fill:url(#SVGID_00000044158641323520175440000013537219284350319782_);}
	.st59{fill:url(#SVGID_00000161629739654693536740000004335075360898375349_);}
	.st60{fill-rule:evenodd;clip-rule:evenodd;fill:#FFFFFF;stroke:#000000;stroke-width:10;stroke-linejoin:round;}
	.st61{font-family:'Roboto-BlackItalic';}
	.st62{font-size:70px;}
</style>
<g transform="matrix(1.8302 0 0 1.8302 158 58.742)">
	<g transform="matrix(1.0615 0 0 1.0615 -6.0226 -8.0516)">
		<g transform="matrix(.97406 0 0 .94174 1.1483 -424.11)">
			<path class="st0" d="M-33.5,450.7L456,426.3l-45.2,360.1l-432.1-13.9L-33.5,450.7"/>
			<g>
				<path class="st1" d="M351.5,431.5l-154.6,7.7l7.9,75.6l123.4,14.9L351.5,431.5L351.5,431.5z"/>
				<path class="st1" d="M17.1,448.1l-50.6,2.5l1.3,35.6l72.4,8.7L17.1,448.1L17.1,448.1z"/>
				<path class="st1" d="M44.6,498l53.7,108.5l113.1-4.1l-8.9-85.3L44.6,498L44.6,498z"/>
				<path class="st1" d="M330.3,532.4l-15.7,66.2l120.2-4.4l6.1-48.5L330.3,532.4L330.3,532.4z"/>
				<path class="st1" d="M311.3,601.2l-97.1,3.5l8.8,84l69.8-9.5L311.3,601.2L311.3,601.2z"/>
				<path class="st1" d="M96.6,609.1l-124,4.5l4.1,108.7l164.8-22.3L96.6,609.1L96.6,609.1z"/>
				<path class="st1" d="M426.1,663.7L295,681.5l-23.8,100.4l139.5,4.5L426.1,663.7L426.1,663.7z"/>
				<path class="st1" d="M220.7,691.6l-75.3,10.2l38.2,77.3l46.5,1.5L220.7,691.6L220.7,691.6z"/>
			</g>
			<g>
				<path class="st2" d="M456,426.3l-101.8,5.1L330.8,530l110.4,13.3L456,426.3L456,426.3z"/>
				<path class="st2" d="M194.3,439.3L19.8,448l23.4,47.3l158.9,19.2L194.3,439.3L194.3,439.3z"/>
				<path class="st2" d="M-32.1,488.8l4.6,122.3l122.9-4.5l-53.9-109L-32.1,488.8L-32.1,488.8z"/>
				<path class="st2" d="M205.1,517.3l8.9,85l97.9-3.6l15.8-66.6L205.1,517.3L205.1,517.3z"/>
				<path class="st2" d="M434.5,596.8L314,601.2l-18.4,77.8l130.8-17.8L434.5,596.8L434.5,596.8z"/>
				<path class="st2" d="M211.6,604.8l-112.2,4.1l44.8,90.6l76.2-10.4L211.6,604.8L211.6,604.8z"/>
				<path class="st2" d="M292.3,681.9l-69,9.4l9.3,89.4l36,1.2L292.3,681.9L292.3,681.9z"/>
				<path class="st2" d="M142.6,702.2l-165.9,22.5l1.8,47.8l202,6.5L142.6,702.2L142.6,702.2z"/>
			</g>
			
				<linearGradient id="SVGID_1_" gradientUnits="userSpaceOnUse" x1="67.0977" y1="627.6467" x2="67.0977" y2="744.0467" gradientTransform="matrix(1.8302 0 0 -1.8301 80.0915 1891.9749)">
				<stop  offset="0" style="stop-color:#0B1728"/>
				<stop  offset="1" style="stop-color:#3076D8;stop-opacity:0"/>
			</linearGradient>
			<path class="st3" d="M-27.7,604.9l6.3,167.6l432.2,13.9l22.8-181.5L-27.7,604.9L-27.7,604.9z"/>
		</g>
		<path class="st4" d="M-29.9,272.4L-56,316l503.2,24.2l-31.4-63.6L-29.9,272.4z"/>
		
			<linearGradient id="SVGID_00000151537303452071297760000010114474225283169443_" gradientUnits="userSpaceOnUse" x1="73.4819" y1="172.6948" x2="73.4819" y2="126.1048" gradientTransform="matrix(1.9428 0 0 -1.9428 52.8355 605.644)">
			<stop  offset="0" style="stop-color:#223549"/>
			<stop  offset="1" style="stop-color:#B3B3B3;stop-opacity:0"/>
		</linearGradient>
		<path style="fill:url(#SVGID_00000151537303452071297760000010114474225283169443_);" d="M-29.9,272.4L-56,316l503.2,24.2
			l-31.4-63.6L-29.9,272.4z"/>
		<path class="st6" d="M454,277.5c0,1.1-118.6,0.9-264.8-0.4c-146.3-1.4-264.8-3.4-264.8-4.5c0-1.1,118.6-0.9,264.8,0.4
			C335.4,274.3,454,276.4,454,277.5z"/>
	</g>
	<g transform="matrix(.91604 0 0 .89078 -14.657 -254.3)" class="st7">
		<path class="st0" d="M229.6,284.6c-53.6,0-97.1,42-97.1,93.7c0,51.8,43.5,93.7,97.1,93.7s97.1-42,97.1-93.7
			C326.7,326.6,283.2,284.6,229.6,284.6L229.6,284.6z M229.6,286.6c52.5,0,95.1,41.1,95.1,91.8c0,50.7-42.6,91.8-95.1,91.8
			s-95.1-41.1-95.1-91.8S177.1,286.6,229.6,286.6L229.6,286.6z"/>
		<path class="st8" d="M310,378.4c0,42.9-36,77.6-80.4,77.6s-80.4-34.7-80.4-77.6s36-77.6,80.4-77.6S310,335.5,310,378.4L310,378.4z
			"/>
		<path class="st9" d="M293.8,378.4c0,34.2-28.7,61.9-64.2,61.9s-64.2-27.7-64.2-61.9s28.7-61.9,64.2-61.9S293.8,344.2,293.8,378.4
			L293.8,378.4z"/>
		<path class="st10" d="M325.7,378.4c0,51.2-43,92.8-96.1,92.8s-96.1-41.5-96.1-92.8s43-92.8,96.1-92.8S325.7,327.2,325.7,378.4
			L325.7,378.4z"/>
		<path class="st0" d="M229.6,299.8c-44.9,0-81.4,35.2-81.4,78.6s36.5,78.6,81.4,78.6s81.4-35.2,81.4-78.6S274.6,299.8,229.6,299.8
			L229.6,299.8z M229.6,301.8c43.8,0,79.4,34.3,79.4,76.6S273.5,455,229.6,455c-43.8,0-79.4-34.3-79.4-76.6S185.8,301.8,229.6,301.8
			L229.6,301.8z"/>
		<path class="st0" d="M229.6,315.5c-36,0-65.2,28.2-65.2,62.9s29.2,62.9,65.2,62.9s65.2-28.2,65.2-62.9S265.6,315.5,229.6,315.5
			L229.6,315.5z M229.6,317.4c34.9,0,63.2,27.3,63.2,60.9s-28.3,61-63.2,61s-63.1-27.3-63.1-61S194.7,317.4,229.6,317.4L229.6,317.4
			z"/>
	</g>
	<g transform="translate(-11.189 9.7902)">
		<path class="st11" d="M386.2,294.6c0,6.4-24.4,11.6-54.4,11.6c-30,0-54.4-5.2-54.4-11.6c0-6.4,24.4-11.6,54.4-11.6
			C361.8,283.1,386.2,288.2,386.2,294.6z"/>
		<g transform="translate(-12.587)">
			<path class="st12" d="M342.8,293.8l-37.7,3.3c0,0,1.6-3.7,2.8-5.3c4.7-6.4,11.2-9,18-10.9c4.9-1.3,15.2,0.1,15.2,0.1L342.8,293.8
				z"/>
			<path class="st13" d="M316.8,284.3c-3.3,1.7-6.4,4.1-8.9,7.5c-1.2,1.6-2.8,5.3-2.8,5.3l22.8-2C324.3,291.7,320.5,288,316.8,284.3
				L316.8,284.3z"/>
			<path class="st14" d="M339.2,280.8c1,0.1,1.6,0.2,1.7,0.2l1.9,12.8l-37.7,3.3c0,0,0.3-0.8,0.6-1.3l34.5-4.4l-1-10.7
				C339.2,280.8,339.2,280.8,339.2,280.8L339.2,280.8z"/>
			<path class="st15" d="M323.8,281.5c-0.8,0.3-1.7,0.5-2.5,0.8l3,3.3c0.7,0.8,1.6,1,2.1,0.6s0.3-1.4-0.4-2.2L323.8,281.5
				L323.8,281.5z M319.7,283c-0.8,0.3-1.5,0.6-2.2,1l3.2,3.6c0.7,0.8,1.7,1,2.2,0.6c0.5-0.4,0.3-1.4-0.4-2.2L319.7,283L319.7,283z
				 M316.1,284.7c-0.7,0.4-1.3,0.8-2,1.2l3.1,3.4c0.7,0.8,1.7,1,2.2,0.6c0.5-0.4,0.3-1.4-0.4-2.2L316.1,284.7
				C316.1,284.7,316.1,284.6,316.1,284.7L316.1,284.7z"/>
			<path class="st12" d="M383.5,295.5l-41.9,4.5c0,0,1.7-3.9,2.8-5.8c4.3-7.1,9.8-11.1,16.6-13c5.5-1.6,17.5-1.1,17.5-1.1
				L383.5,295.5z"/>
			<path class="st13" d="M352,285.6c-2.9,2.2-5.4,5-7.6,8.6c-1.1,1.8-2.8,5.8-2.8,5.8l22.9-2.5C360.7,294.1,356.4,289.9,352,285.6
				L352,285.6z"/>
			<path class="st14" d="M376.8,280c0.9,0.1,1.7,0.1,1.7,0.1l5.1,15.4l-41.9,4.5c0,0,0.3-0.8,0.7-1.7l38.2-5.1L376.8,280z"/>
			<path class="st15" d="M357.9,282.3c-0.8,0.3-1.6,0.7-2.4,1.1l5,3.8c0.8,0.6,1.8,0.7,2.2,0.2c0.4-0.5,0.1-1.5-0.8-2.1L357.9,282.3
				L357.9,282.3z M353.9,284.2c-0.7,0.4-1.4,0.9-2,1.4l5.3,4.2c0.8,0.6,1.8,0.7,2.2,0.2c0.4-0.5,0-1.5-0.8-2.1L353.9,284.2
				L353.9,284.2z M350.8,286.6c-0.6,0.5-1.2,1-1.8,1.6l5,4c0.8,0.6,1.8,0.7,2.2,0.2c0.4-0.5,0-1.5-0.8-2.1L350.8,286.6L350.8,286.6z
				"/>
			<path class="st16" d="M373.9,221.5c-1.3,20.5,2.9,40.2,5.9,60.1l-20.5-0.5c-14.1-19.6-23.3-39.8-32.3-60.1L373.9,221.5z"/>
			<path class="st17" d="M327.1,221.1l7.9,0.1c8.9,20.2,18.2,40.4,32.2,60l12.6,0.3c0,0.1,0,0.1,0,0.2l-20.5-0.5
				C345.2,261.5,336,241.3,327.1,221.1L327.1,221.1z"/>
			<path class="st18" d="M371.6,221.5l2.4,0c-1.3,20.5,3.4,41,6.4,60.9l-21.2-0.6c-0.4-0.6-0.6-1.8-1-2.4L377,279
				C374.1,259.7,370.5,241.4,371.6,221.5L371.6,221.5z"/>
			<path class="st16" d="M327.3,220.1c2.4,21.5,8.3,42.1,15.2,62.3l-18-1.5c-17.9-20.2-29.9-42.8-42.6-65.5L327.3,220.1z"/>
			<path class="st17" d="M281.9,215.4l7.3,0.8c12.6,22.5,25.5,44.7,43.2,64.7l10,0.8c0.1,0.2,0.1,0.5,0.2,0.7l-18.1-1.5
				C306.6,260.7,294.6,238.1,281.9,215.4L281.9,215.4z"/>
			<path class="st18" d="M325.2,219.8l2.1,0.2c2.4,21.5,8.2,42.3,15.1,62.5l-18-1.7c-0.5-0.6-1-1.1-1.4-1.7l16.3,0.7
				C332.6,260.1,327.7,240.8,325.2,219.8L325.2,219.8z"/>
			<path class="st19" d="M254.6,50.6c3.3,1.7,8.6,6.9,8.6,6.9s10.2,2.2,11.2,5.1c1,2.9-2.7,5.4-2.7,5.4s9.6,5.9,13.7,9.8
				c3.5,3.3,9.2,11.4,9.2,11.4l-6.8,73.2c0,0-10.4-1.7-13.3-4.8c-3.9-4.1-3.6-13.3-10.9-13.9c-1.9-0.2-3.2-5.2-2.3-6.9
				c0.8-1.4,2.2-5.3,7.8-6.1c19.1-2-6.3-5-9.7,1.6l-5-7.9c-4.6,3.6-10.7,8.6-17.1,10.9c-2.6,0.9-7.8,3.6-8.2,0.9
				c-2.6-22-1-37.5-2-54.4c-0.2-3.7,2.6-5.7,2.6-5.7s-6.2-15.3-3.6-22.5c1.4-3.8,5.3-7.1,9.3-8C242,43.9,248.8,47.6,254.6,50.6
				L254.6,50.6z"/>
			<path class="st20" d="M239.2,45.1c0.4,0,0.8,0,1.2,0.1c-0.4,0.1-0.8,0.1-1.2,0.2c-4,0.9-7.9,4.2-9.3,8
				c-2.6,7.1,3.6,22.5,3.6,22.5s-2.8,2-2.6,5.7c1,16.9,3.3,29.8,5.9,51.8c0,0.3,0.1,0.5,0.2,0.7c-2,0.6-7.7,3.5-7.9,1.9
				c-2.6-22-1-37.5-2-54.4c-0.2-3.7,2.6-5.7,2.6-5.7s-6.2-15.3-3.6-22.5c1.4-3.8,5.3-7.1,9.3-8C236.8,45.1,238,45,239.2,45.1z
				 M256.9,122.1l5,7.9c-1.1,0.5-2,1.2-2.4,2.1l-5.1-8.1C255.2,123.4,256.1,122.7,256.9,122.1L256.9,122.1z M274.7,127.6
				c5.7,0.1,11.3,1.8-1.8,3c-5.6,0.8-7,4.7-7.8,6.1c-0.9,1.7,0.4,6.8,2.3,6.9c7.2,0.6,7,9.8,10.9,13.9c1.8,1.9,6.4,3.3,9.7,4.1
				l-0.1,0.7c0,0-10.4-1.7-13.3-4.8c-3.9-4.1-3.7-13.3-10.9-13.9c-1.9-0.2-3.2-5.2-2.3-6.9c0.8-1.4,2.2-5.3,7.8-6.1
				c9.9-1,7.9-2.6,3.1-3C273,127.6,273.9,127.6,274.7,127.6L274.7,127.6z"/>
			<g transform="matrix(-.89861 0 0 .89861 395.94 12.822)">
				<path class="st21" d="M193,64.4c0,4.8-3.9,8.6-8.6,8.6s-8.6-3.9-8.6-8.6s3.9-8.6,8.6-8.6S193,59.6,193,64.4z"/>
				<path class="st0" d="M193,63.9c0,4.5-3.6,8.1-8.1,8.1s-8.1-3.6-8.1-8.1s3.6-8.1,8.1-8.1S193,59.4,193,63.9z"/>
				<path class="st21" d="M190.2,64.7c0,1.4-1.1,2.5-2.5,2.5c-1.4,0-2.5-1.1-2.5-2.5c0-1.4,1.1-2.5,2.5-2.5
					C189,62.2,190.2,63.4,190.2,64.7z"/>
			</g>
			<g transform="matrix(-1 0 0 1 426.34 0)">
				<path class="st21" d="M193,64.6c0,4.9-3.9,8.8-8.8,8.8s-8.8-3.9-8.8-8.8s3.9-8.8,8.8-8.8S193,59.7,193,64.6z"/>
				<path class="st0" d="M193,63.9c0,4.5-3.6,8.1-8.1,8.1s-8.1-3.6-8.1-8.1s3.6-8.1,8.1-8.1S193,59.4,193,63.9z"/>
				<path class="st21" d="M191.4,64.7c0,2.1-1.7,3.7-3.7,3.7s-3.7-1.7-3.7-3.7s1.7-3.7,3.7-3.7S191.4,62.7,191.4,64.7z"/>
			</g>
			<path class="st21" d="M240.3,53.4c1.3-1.6,4.7-4.2,4.7-4.2l-8-1.7l-4.5,16l-11.9-4.4l2,5.9c3.3-1.1,7.1-0.1,10.8-0.1
				C233.3,65,237.4,56.9,240.3,53.4L240.3,53.4z"/>
			<path class="st22" d="M268,61.2c0.5,0.1,1,0.2,1.4,0.5c1.2,0.8,1.2,2.4,0.1,3.4c-0.5,0.5-1.2,0.8-1.9,0.9c1,0.1,2.1-0.2,2.8-0.9
				c1.1-1,1.1-2.6-0.1-3.4C269.6,61.3,268.8,61.1,268,61.2L268,61.2z M273.8,61.5c-0.4,2.2-0.9,3.1-1.9,4.4c-1,1.2-4.1,2.6-3.7,2.8
				c0,0,1.4,2.1,5-1.9c1-1,2-2.6,1.4-4.2C274.4,62.2,274.1,61.9,273.8,61.5L273.8,61.5z M268.6,103.3c-1.9,4.2-3.5,7.6-6.2,10.8
				c-2.5,3-5.3,5.7-8.4,8.1c-5.4,4.1-11.2,8-17.5,10.5c-2.3,0.9-5.8,2.4-7.4,1.7c0.1,0.5,0.1,1.1,0.2,1.6c0.3,2.7,5.6,0.1,8.2-0.8
				c4.4-1.5,10.9-6.2,14.3-8.8l5.9-5c2.1-1.9,4.1-4,5.7-6.3C265.8,111.6,267.2,107.7,268.6,103.3L268.6,103.3z M271.6,126.1
				c-4.7,0.1-10,0.3-13.6,3.8l1.3,2.3c2.5-2,6.4-3.4,9.9-4c3.2-0.5,9.7-0.6,9.7-0.6S275.2,126,271.6,126.1L271.6,126.1z"/>
			<path class="st23" d="M240.1,45c0,0-1.8-5.6-7.5-5.4c-3.6,0.1-8,1.5-8.9,5.2c-1,3.8,2.4,9,2.4,9C230,50.2,234.3,47,240.1,45
				L240.1,45z"/>
			<path class="st24" d="M227.9,40.5c-0.9,0.8-0.9,1.2-1.2,2.5c-0.7,2.9,0.8,6.6,1.8,8.7c-0.6,0.5-1.8,1.6-2.3,2.1
				c0,0-3.4-5.2-2.4-9C224.2,42.7,225.9,41.3,227.9,40.5L227.9,40.5z"/>
			<path class="st25" d="M235.3,39.9c3.6,1.3,4.9,5.1,4.9,5.1c-5.8,2-10.2,5.2-14,8.8c0,0-0.3-0.4-0.6-1c3.6-3.5,7.7-6.6,13.1-8.7
				C238.7,44.1,237.7,41.5,235.3,39.9L235.3,39.9z"/>
			<path class="st24" d="M227,39.2c0.9,0,1.4,1,1.4,1.1c-0.8,0.3-1.6,0.7-2.3,1.2c-0.1-0.2-0.5-1-0.3-1.4
				C226,39.4,226.5,39.2,227,39.2L227,39.2z"/>
			<path class="st26" d="M301.2,91.7c0.9-1.3,31.9-0.1,48.1,19.4c11.5,13.9,20.2,30.4,24.7,48.7c5.2,20.9,7.8,65.9,7.8,65.9
				s-44.9,8-67.2,5.2c-4.4-0.6-9.1-1.6-12.7-4.3c-3.1-2.4-6.7-9.8-6.7-9.8s3.6,9,0.5,10.8c-5.2,2.9-8.5,1.8-12-0.1
				c-1.8-1-3.8-3.1-3.5-5.2c3.9-24.6,1.2-61.7-0.1-61.7l3.9,0.1L301.2,91.7z"/>
			<path class="st27" d="M282,160.6c1.4,3.1,6,38.1,2.2,61.6c-0.3,2.1,1.6,4.2,3.5,5.2c1.4,0.7,2.7,1.3,4.1,1.7
				c-3.1,0.7-5.6-0.3-8.1-1.7c-1.8-1-3.8-3.1-3.5-5.2c3.7-23.5,1.5-58.4,0.1-61.5L282,160.6z"/>
			<path class="st28" d="M342.1,104.3c2.6,2,5,4.3,7.2,6.9c11.5,13.9,20.2,30.4,24.8,48.7c5.2,20.9,7.8,65.9,7.8,65.9
				s-44.9,8-67.2,5.2c-4.4-0.6-9.1-1.6-12.7-4.3c-0.5-0.4-1-0.9-1.5-1.5c3.3,2,7.4,2.9,11.2,3.3c22.3,2.8,66.6-5.9,66.6-5.9
				s-2-44.3-7.2-65.2c-4.6-18.3-13.2-34.8-24.8-48.7C345,107.1,343.6,105.6,342.1,104.3L342.1,104.3z M288.2,172.1
				c1.6,3.9,13.3,52.4,8,55.5c-5.2,2.9-9,1.8-12.6-0.1c-0.9-0.5-1.7-1.2-2.3-2.1c3.3,1.7,6.5,2.5,11.4-0.2
				C295.9,223.4,288.2,172.1,288.2,172.1L288.2,172.1z"/>
			<path class="st0" d="M292.3,84.1l9.1,5.8l0.2,79.4l-21.6-8.7L292.3,84.1z"/>
			<path class="st28" d="M300.7,89.3l0.8,0.5l1.8,82l-23.2-11.3l19.2,5.2L300.7,89.3z"/>
		</g>
	</g>
	<g transform="translate(-11.189 9.7902)">
		<path class="st11" d="M134.5,294.6c0,6.4-24.4,11.6-54.4,11.6c-30,0-54.4-5.2-54.4-11.6c0-6.4,24.4-11.6,54.4-11.6
			C110.1,283.1,134.5,288.2,134.5,294.6z"/>
		<path class="st29" d="M43.6,293.4l39.5,3.6c0,0-1.6-4.2-2.8-5.8c-4-4.9-9.1-8.4-14.3-10.3c-5.8-2.1-18.1-0.9-18.1-0.9L43.6,293.4z
			"/>
		<path class="st30" d="M71.7,283.7l-10,11.3l21.5,2c0,0-1.6-4.2-2.8-5.8C77.8,288.2,74.8,285.6,71.7,283.7L71.7,283.7z"/>
		<path class="st31" d="M47.8,282.7c-0.3,0-0.5,0-0.8,0l-3.5,10.7l12,1.1c0.4-1,0.7-2.2,0.7-3.3C56.3,286.5,52.5,282.7,47.8,282.7
			L47.8,282.7z"/>
		<path class="st32" d="M49.6,280c-0.9,0.1-1.7,0.1-1.7,0.1l-4.7,14.2l39.9,2.7c0,0-0.3-0.8-0.7-1.7l-35.8-4.2L49.6,280z"/>
		<path class="st29" d="M83.5,293.8l34.1,1.6c0,0-1.6-3.9-2.8-5.3c-3.8-4.5-8.5-7.5-13.3-9.1c-5.3-1.7-16.2,0-16.2,0L83.5,293.8z"/>
		<path class="st30" d="M110.5,285.9l-7.8,8.8l14.9,0.7c0,0-1.6-3.9-2.8-5.3C113.4,288.5,112,287.1,110.5,285.9L110.5,285.9z"/>
		<path class="st31" d="M86.8,283.6c-0.2,0-0.4,0.1-0.7,0.1l-2,9.8l10.7-0.2c0.3-1,0.4-2,0.3-3C94.6,286.1,90.9,283.2,86.8,283.6
			L86.8,283.6z"/>
		<path class="st32" d="M87.1,280.8c-1,0.1-1.6,0.2-1.7,0.2l-2.1,13.4l34.2,1c0,0-0.3-0.8-0.6-1.3l-30.8-2.6l1-10.7
			C87.2,280.8,87.1,280.8,87.1,280.8L87.1,280.8z"/>
		<path class="st33" d="M52.4,221.5c1.3,20.5-2.9,40.2-5.9,60.1l20.5-0.5c14.1-19.6,23.3-39.8,32.3-60.1L52.4,221.5z"/>
		<path class="st33" d="M99,220.1c-2.4,21.5-8.3,42.1-15.2,62.3l18-1.5c17.9-20.2,29.9-42.8,42.6-65.5L99,220.1z"/>
		<path class="st34" d="M99.3,221.1l-7.9,0.1c-8.9,20.2-18.2,40.4-32.2,60l-12.6,0.3c0,0.1,0,0.1,0,0.2l20.5-0.5
			C81.1,261.5,90.4,241.3,99.3,221.1L99.3,221.1z"/>
		<path class="st34" d="M144.4,215.4l-7.3,0.8c-12.6,22.5-25.5,44.7-43.2,64.7l-10,0.8c-0.1,0.2-0.1,0.5-0.2,0.7l18.1-1.5
			C119.8,260.7,131.7,238.1,144.4,215.4L144.4,215.4z"/>
		<path class="st35" d="M54.8,221.5l-2.4,0c1.3,20.5-2.9,40.2-5.9,60.1l20.5-0.5c0.4-0.6,0.8-1.1,1.2-1.7L49.4,279
			C52.3,259.7,55.8,241.4,54.8,221.5L54.8,221.5z"/>
		<path class="st35" d="M101.1,219.8l-2.1,0.2c-2.4,21.5-8.3,42.1-15.2,62.3l18.1-1.5c0.5-0.6,1-1.1,1.4-1.7L87,279.8
			C93.7,260.1,98.6,240.8,101.1,219.8L101.1,219.8z"/>
		<path class="st23" d="M125.1,91.7c-0.9-1.3-31.9-0.1-48.1,19.4c-11.5,13.9-20.2,30.4-24.7,48.7c-5.2,20.9-7.8,65.9-7.8,65.9
			s44.9,8,67.2,5.2c4.4-0.6,9.1-1.6,12.7-4.3c3.1-2.4,6.7-9.8,6.7-9.8s-3.6,9-0.5,10.8c5.2,2.9,8.5,1.8,12-0.1
			c1.8-1,3.8-3.1,3.5-5.2c-3.9-24.6-1.2-61.7,0.1-61.7l-3.9,0.1L125.1,91.7z"/>
		<path class="st24" d="M144.3,160.6c-1.4,3.1-6,38.1-2.2,61.6c0.3,2.1-1.6,4.2-3.5,5.2c-1.4,0.7-2.7,1.3-4.1,1.7
			c3.1,0.7,5.6-0.3,8.1-1.7c1.8-1,3.8-3.1,3.5-5.2c-3.7-23.5-1.5-58.4-0.1-61.5L144.3,160.6z"/>
		<path class="st25" d="M84.2,104.3c-2.6,2-5,4.3-7.2,6.9c-11.5,13.9-20.2,30.4-24.8,48.7c-5.2,20.9-7.8,65.9-7.8,65.9
			s44.9,8,67.2,5.2c4.4-0.6,9.1-1.6,12.7-4.3c0.5-0.4,1-0.9,1.5-1.5c-3.3,2-7.4,2.9-11.2,3.3c-22.3,2.8-66.6-5.9-66.6-5.9
			s2-44.3,7.2-65.2c4.6-18.3,13.2-34.8,24.8-48.7C81.3,107.1,82.7,105.6,84.2,104.3L84.2,104.3z M138.1,172.1
			c-1.6,3.9-13.3,52.4-8,55.5c5.2,2.9,9,1.8,12.6-0.1c0.9-0.5,1.9-1.2,2.5-2.1c-3.3,1.7-6.6,2.5-11.6-0.2
			C130.4,223.4,138.1,172.1,138.1,172.1L138.1,172.1z"/>
		<path class="st19" d="M171.7,50.6c-3.3,1.7-8.6,6.9-8.6,6.9s-10.2,2.2-11.2,5.1c-1,2.9,2.7,5.4,2.7,5.4s-9.6,5.9-13.7,9.8
			c-3.5,3.3-9.2,11.4-9.2,11.4l6.8,73.2c0,0,10.4-1.7,13.3-4.8c3.9-4.1,3.6-13.3,10.9-13.9c1.9-0.2,3.2-5.2,2.3-6.9
			c-0.8-1.4-2.4-4.5-8-5.3c-19.1-2,6.6-5.9,9.9,0.7l5-7.9c4.6,3.6,10.7,8.6,17.1,10.9c2.6,0.9,7.8,3.6,8.2,0.9c2.6-22,1-37.5,2-54.4
			c0.2-3.7-2.6-5.7-2.6-5.7s6.2-15.3,3.6-22.5c-1.4-3.8-5.3-7.1-9.3-8C184.3,43.9,177.6,47.6,171.7,50.6L171.7,50.6z"/>
		<path class="st36" d="M187.1,45.1c-0.4,0-0.8,0-1.2,0.1c0.4,0.1,0.8,0.1,1.2,0.2c4,0.9,9.5,4.6,10.9,8.4
			c2.6,7.1-5.2,22.1-5.2,22.1s3.6,1.9,3.4,5.6c-1,16.9-2.5,31.7-5.1,53.7c0,0.3-1.3,0.1-0.2,0.7c2,0.6,6.1,1.7,6.3,0.1
			c2.6-22,1-37.5,2-54.4c0.2-3.7-2.6-5.7-2.6-5.7s6.2-15.3,3.6-22.5c-1.4-3.8-5.3-7.1-9.3-8C189.5,45.1,188.3,45,187.1,45.1
			L187.1,45.1z M169.5,122.1l-5,7.9c1.1,0.5,2,1.2,2.4,2.1l5.1-8.1C171.1,123.4,170.2,122.7,169.5,122.1L169.5,122.1z M151.6,128.5
			c-5.7,0.1-9.1,1.8,1.7,3c5.6,0.8,7.3,3.8,8,5.3c0.9,1.7-0.4,6.8-2.3,6.9c-7.2,0.6-7,9.8-10.9,13.9c-1.8,1.9-6.4,3.3-9.7,4.1
			l0.1,0.7c0,0,10.4-1.7,13.3-4.8c3.9-4.1,3.7-13.3,10.9-13.9c1.9-0.2,3.2-5.2,2.3-6.9c-0.8-1.4-2.4-4.5-8-5.3
			c-9.9-1-7.7-2.6-2.9-2.9C153.2,128.5,152.3,128.5,151.6,128.5L151.6,128.5z"/>
		<g transform="matrix(.89861 0 0 .89861 30.404 12.822)">
			<path class="st21" d="M193,64.4c0,4.8-3.9,8.6-8.6,8.6s-8.6-3.9-8.6-8.6s3.9-8.6,8.6-8.6S193,59.6,193,64.4z"/>
			<path class="st0" d="M193,63.9c0,4.5-3.6,8.1-8.1,8.1s-8.1-3.6-8.1-8.1s3.6-8.1,8.1-8.1S193,59.4,193,63.9z"/>
			<path class="st21" d="M190.2,64.7c0,1.4-1.1,2.5-2.5,2.5c-1.4,0-2.5-1.1-2.5-2.5c0-1.4,1.1-2.5,2.5-2.5
				C189,62.2,190.2,63.4,190.2,64.7z"/>
		</g>
		<path class="st21" d="M193,64.7c0,4.9-4,8.9-8.9,8.9s-8.9-4-8.9-8.9c0-4.9,4-8.9,8.9-8.9S193,59.8,193,64.7z"/>
		<path class="st0" d="M193,63.9c0,4.5-3.6,8.1-8.1,8.1s-8.1-3.6-8.1-8.1s3.6-8.1,8.1-8.1S193,59.4,193,63.9z"/>
		<path class="st21" d="M190.7,65.7c0,1.7-1.3,3-3,3s-3-1.3-3-3s1.3-3,3-3S190.7,64.1,190.7,65.7L190.7,65.7z"/>
		<path class="st21" d="M181.8,52.4l8.2-3c-0.2,4.3,2,9.2,4.4,13.4c3.4-0.6,6.5-1.7,9.9-3.9l-1.8,6.8l-9.5-0.2
			C189.6,61.1,185.7,56.4,181.8,52.4L181.8,52.4z"/>
		<path class="st22" d="M158.3,61.2c-0.4,0-0.8,0.1-1.2,0.2c-1.3,0.6-1.6,2.1-0.7,3.3c0.6,0.8,1.6,1.3,2.6,1.3
			c-0.7-0.2-1.3-0.6-1.8-1.2c-0.9-1.2-0.6-2.7,0.7-3.3c0.4-0.2,1-0.3,1.5-0.2C159.1,61.3,158.7,61.2,158.3,61.2L158.3,61.2z
			 M152.6,61.5c-0.4,0.3-0.6,0.7-0.8,1c-0.6,1.7,0.4,3.2,1.4,4.3c3.7,4,5,1.9,5,1.9c0.4-0.3-2.8-1.6-3.7-2.8
			C153.5,64.7,153,63.7,152.6,61.5L152.6,61.5z M157.7,103.3c1.4,4.3,1.7,7.1,5.2,11.8c3.3,4.4,6.5,7.1,10.4,10.3
			c4.4,3.5,9.8,7.8,15.5,9.8c2.6,0.9,7.9,3.5,8.2,0.8c0.1-0.5,0.1-1.1,0.2-1.6c-1.6,0.7-5.1-0.7-7.4-1.7
			c-6.3-2.5-12.1-6.5-17.5-10.5c-3.1-2.4-6-5.1-8.4-8.1C161.3,110.9,159.6,107.5,157.7,103.3L157.7,103.3z M158.5,127.2
			c-7.2-0.2-11.1,1.8-11.1,1.8s5.2-0.4,7.8-0.2c4.3,0.2,9.1,0.9,11.6,3.3l1.4-2.2C165.5,127.9,161.7,127.4,158.5,127.2L158.5,127.2z
			"/>
		<path class="st37" d="M186.2,45c0,0,1.8-5.6,7.5-5.4c3.6,0.1,8,1.5,8.9,5.2c1,3.8-2.4,9-2.4,9C196.4,50.2,192,47,186.2,45
			L186.2,45z"/>
		<path class="st38" d="M198.5,40.5c0.9,0.8,0.9,1.2,1.2,2.5c0.7,2.9-0.8,6.6-1.8,8.7c0.6,0.5,1.8,1.6,2.3,2.1c0,0,3.4-5.2,2.4-9
			C202.1,42.7,200.4,41.3,198.5,40.5L198.5,40.5z"/>
		<path class="st35" d="M191.1,39.9c-3.6,1.3-4.9,5.1-4.9,5.1c5.8,2,10.2,5.2,14,8.8c0,0,0.3-0.4,0.6-1c-3.6-3.5-7.7-6.6-13.1-8.7
			C187.7,44.1,188.6,41.5,191.1,39.9L191.1,39.9z"/>
		<path class="st38" d="M199.2,39.4c-0.9,0-1.3,0.8-1.4,0.9c0.8,0.3,1.6,0.7,2.3,1.2c0.1-0.2,0.4-0.7,0.3-1.2
			C200.3,39.6,199.8,39.4,199.2,39.4L199.2,39.4z"/>
		<path class="st0" d="M134,84.1l-9.1,5.8l-0.2,79.4l21.6-8.7L134,84.1z"/>
		<path class="st25" d="M125.6,89.3l-0.8,0.5l-1.8,82l23.2-11.3l-19.2,5.2L125.6,89.3z"/>
	</g>
	<g transform="translate(2.041e-6)">
		<g transform="translate(-10.833 9.7902)">
			<path class="st12" d="M150.1,203.7h11.4V297h-11.4V203.7z"/>
			<path class="st39" d="M158.9,203.7h2.6V297h-2.6V203.7z"/>
			<path class="st40" d="M150.1,288h11.4l2,9h-15.4L150.1,288z"/>
			<path class="st41" d="M158.9,288v9h4.6l-2-9H158.9z"/>
		</g>
		<path class="st12" d="M240.6,213.5h11.4v93.4h-11.4V213.5z"/>
		<path class="st39" d="M240.6,213.5h2.6v93.4h-2.6V213.5z"/>
		<path class="st40" d="M240.6,297.8h11.4l2,9h-15.4L240.6,297.8z"/>
		<path class="st41" d="M240.7,297.8l-2,9h4.6v-9H240.7z"/>
		<g transform="translate(-.0069698)">
			<g transform="matrix(.8372 0 0 .59853 25.174 288.94)">
				<path class="st12" d="M168.8-153.9l-66.6,13.7h-0.1v18.8h203.1v-18.8h-0.1l-66.7-13.7H168.8L168.8-153.9z"/>
				<path class="st42" d="M102.1-138.1v16.8h49.7v-16.8H102.1z M255.5-138.1v16.8h49.7v-16.8H255.5z"/>
				<path class="st13" d="M102.1-138.8v1h203.1v-1H203.7H102.1z"/>
				<path class="st40" d="M102.1-124.4v3.1h203.1v-3.1H203.7H102.1z"/>
				<path class="st0" d="M168.7-153.2l-52.9,11.8h175.8l-52.9-11.8H168.7L168.7-153.2z"/>
				<g transform="translate(0 -40.906)">
					<path class="st43" d="M169.1-112.3l-2.1,0.5h14.5l1.3-0.5L169.1-112.3L169.1-112.3z M192.3-112.3l-0.7,0.5h6l0.1-0.1l0.3-0.3
						H192.3z M203.9-112.3l0,0.5h5.2l0-0.1l-0.3-0.4H203.9L203.9-112.3z M215.8-112.3l0.8,0.5h8.3l-1.2-0.5H215.8z M182.1-111.7
						l-1.5,0.6h9.1l0.9-0.6H182.1z M198.1-111.7l-0.4,0.6h5.7v-0.6L198.1-111.7L198.1-111.7z M209.9-111.7l0.4,0.6h6.6l-0.9-0.6
						H209.9L209.9-111.7z M226.2-111.7l1.5,0.6h15.8l-2.5-0.6H226.2L226.2-111.7z M162.9-111l-3.8,0.8h17.5l2.3-0.8H162.9L162.9-111
						z M190.2-111l-1.3,0.8h7.4l0.6-0.8H190.2L190.2-111z M203.9-111l0,0.8h6.4l-0.6-0.8H203.9L203.9-111z M218-111l1.3,0.8h10.2
						l-2.3-0.8H218L218-111z M177.2-109.9l-2.8,1H186l1.6-1H177.2L177.2-109.9z M196.8-109.9l-0.8,1h7.3v-1H196.8z M211.2-109.9
						l0.8,1h8.4l-1.6-1H211.2L211.2-109.9z M231.2-109.9l2.8,1h19.7l-4.6-1H231.2L231.2-109.9z M152.3-108.6l-6,1.3h22.5l3.7-1.3
						H152.3L152.3-108.6z M186.5-108.6l-2.1,1.3h9.7l1-1.3H186.5z M204-108.6l0,1.3h8.4l-0.9-1.3H204L204-108.6z M221.7-108.6
						l2.1,1.3h13.4l-3.6-1.3H221.7z M169.1-106.9l-4.1,1.5h15.4l2.4-1.5H169.1L169.1-106.9z M194.7-106.9l-1.1,1.5h9.7l0-1.5H194.7z
						 M213.5-106.9l1.1,1.5h11.2l-2.4-1.5H213.5z M239.5-106.9l4.2,1.5h25.8l-6.8-1.5H239.5L239.5-106.9z M135.9-104.9l-8.1,1.8
						h29.6l5-1.8H135.9L135.9-104.9z M180.8-104.9l-2.8,1.8h13.1l1.3-1.8H180.8L180.8-104.9z M204-104.9l0,1.8h11.3l-1.3-1.8H204
						L204-104.9z M227.6-104.9l2.9,1.8h17.9l-4.9-1.8H227.6z M157.7-102.7l-5.7,2.1h20.8l3.4-2.1H157.7L157.7-102.7z M191.6-102.7
						l-1.5,2.1h13.1l0-2.1H191.6z M216.6-102.7l1.6,2.1h15.2l-3.3-2.1H216.6L216.6-102.7z M251.1-102.7l5.8,2.1h34.1l-9.5-2.1H251.1
						L251.1-102.7z"/>
					<path class="st44" d="M183.7-112.3l-1.2,0.5h8.3l0.8-0.5H183.7z M198.5-112.3l-0.3,0.4v0.1h5.2v-0.5H198.5L198.5-112.3z
						 M209.4-112.3l0.3,0.3l0.1,0.1h6l-0.7-0.5H209.4z M224.5-112.3l1.3,0.5h14.5l-2.1-0.5H224.5L224.5-112.3z M166.3-111.7
						l-2.5,0.6h15.7l1.5-0.6H166.3L166.3-111.7z M191.3-111.7l-0.9,0.6h6.6l0.4-0.6H191.3L191.3-111.7z M203.9-111.7v0.6h5.7
						l-0.4-0.6L203.9-111.7L203.9-111.7z M216.8-111.7l0.9,0.6h9.1l-1.5-0.6H216.8z M180.1-111l-2.3,0.8H188l1.3-0.8H180.1
						L180.1-111z M197.6-111l-0.6,0.8h6.4l0-0.8H197.6L197.6-111z M210.4-111l0.6,0.8h7.4l-1.3-0.8H210.4L210.4-111z M228.3-111
						l2.3,0.8h17.5l-3.8-0.8H228.3L228.3-111z M158.2-109.9l-4.6,1h19.7l2.8-1H158.2L158.2-109.9z M188.5-109.9l-1.6,1h8.4l0.8-1
						H188.5L188.5-109.9z M204-109.9v1h7.3l-0.8-1H204z M219.7-109.9l1.6,1h11.6l-2.8-1H219.7L219.7-109.9z M173.7-108.6l-3.6,1.3
						h13.4l2.1-1.3H173.7z M195.8-108.6l-0.9,1.3h8.4l0-1.3H195.8L195.8-108.6z M212.2-108.6l1,1.3h9.7l-2.1-1.3H212.2z
						 M234.8-108.6l3.7,1.3H261l-6-1.3H234.8L234.8-108.6z M144.8-106.9l-6.8,1.5h25.8l4.2-1.5H144.8L144.8-106.9z M183.8-106.9
						l-2.4,1.5h11.2l1.1-1.5H183.8z M204-106.9l0,1.5h9.7l-1.1-1.5H204z M224.4-106.9l2.4,1.5h15.4l-4.1-1.5H224.4L224.4-106.9z
						 M163.8-104.9l-4.9,1.8h17.9l2.9-1.8H163.8z M193.3-104.9l-1.3,1.8h11.3l0-1.8H193.3L193.3-104.9z M214.9-104.9l1.3,1.8h13.1
						l-2.8-1.8H214.9L214.9-104.9z M244.9-104.9l5,1.8h29.6l-8.1-1.8H244.9L244.9-104.9z M125.8-102.7l-9.5,2.1h34.1l5.8-2.1H125.8
						L125.8-102.7z M177.3-102.7l-3.3,2.1h15.2l1.6-2.1H177.3L177.3-102.7z M204.1-102.7l0,2.1h13.1l-1.5-2.1H204.1z M231.2-102.7
						l3.4,2.1h20.8l-5.7-2.1H231.2L231.2-102.7z"/>
				</g>
			</g>
			
				<linearGradient id="SVGID_00000058582663594470199670000011142569822802715791_" gradientUnits="userSpaceOnUse" x1="49.7481" y1="216.5684" x2="49.7481" y2="243.7384" gradientTransform="matrix(1.8302 0 0 -1.8302 69.9866 594.4535)">
				<stop  offset="0" style="stop-color:#1C201F"/>
				<stop  offset="1" style="stop-color:#B3B3B3"/>
			</linearGradient>
			<path style="fill:url(#SVGID_00000058582663594470199670000011142569822802715791_);" d="M160.6,172l-0.3,1h-0.9v0.9l1,0.7v0.6
				c-0.6,0.5-1,0.9-1.1,1.2c-0.1,0.3-0.2,0.8-0.2,1.6c-0.8-0.7-1.6-1-2.4-1c-0.6,0-1.2,0.2-1.7,0.5c-0.9,0.6-1.3,1.4-1.3,2.5
				c0,0.7,0.3,1.5,0.9,2.4c0.5,0.7,0.8,1.3,1,1.8c0.2,0.7,0.4,13.1,0.4,14.7h10c0.1-1.6,0.2-14,0.4-14.7c0.2-0.5,0.5-1.1,1-1.8
				c0.6-0.9,0.9-1.7,0.9-2.4c0-1.1-0.5-1.9-1.3-2.5c-0.5-0.3-1-0.5-1.7-0.5c-0.8,0-1.7,0.3-2.4,1c0-0.8-0.1-1.3-0.2-1.6
				c-0.1-0.3-0.5-0.7-1.1-1.2v-0.6l1-0.7V173h-0.9l-0.3-1H161H160.6z"/>
			<path class="st4" d="M160.6,172L160.6,172l0.2,1h0.9v0.9l-1,0.7v0.5c0.6,0.5,1,0.9,1.1,1.2c0.1,0.3,0.3,1.4,0.3,2.2
				c0.3-0.3,0.6-0.4,0.9-0.6c0-0.5,0-1.2-0.2-1.6c-0.1-0.3-0.5-0.8-1.1-1.2v-0.5l1-0.7V173h-0.9l-0.3-1H161L160.6,172z M156.1,177
				c0.7,0.1,2.4,0.9,2.9,1.5c0-0.2,0-0.4,0-0.6C158.3,177.1,157.2,176.9,156.1,177L156.1,177z M165.4,177c-0.2,0-0.3,0-0.5,0
				c0.4,0.1,0.8,0.2,1.2,0.5c0.9,0.6,1.4,1.4,1.4,2.5c0,0.7-0.3,1.5-1,2.4c-0.5,0.7-0.8,1.3-1,1.8c-0.2,0.7-0.4,13.1-0.4,14.7h1
				c0.1-1.6,0.2-14,0.4-14.7c0.2-0.5,0.5-1,1-1.8c0.6-0.9,1-1.7,1-2.4c0-1.1-0.5-1.9-1.4-2.5C166.6,177.2,166,177,165.4,177
				L165.4,177z"/>
			<path class="st46" d="M160.6,172l-0.3,1h0.2l0.3-1H160.6z M159.4,173v0.9l1,0.7v0.6c0.1-0.1,0.1-0.1,0.2-0.2v-0.6l-1-0.7V173
				L159.4,173z M160.2,175.3c-0.5,0.4-0.8,0.7-0.9,1c-0.1,0.3-0.2,0.7-0.2,2.2c0.1,0,0.1,0.1,0.2,0.2c0-0.8,0.1-2.3,0.2-2.6
				C159.6,175.9,159.8,175.6,160.2,175.3L160.2,175.3z M154.9,177.6c-0.8,0.6-1.2,1.4-1.2,2.5c0,0.7,0.3,1.5,0.9,2.4
				c0.5,0.7,0.8,1.3,1,1.8c0.2,0.7,0.4,13.1,0.4,14.7h10c0,0,0-0.1,0-0.2h-9.8c-0.1-1.6-0.2-14-0.4-14.7c-0.2-0.5-0.5-1.1-1-1.8
				c-0.6-0.9-0.9-1.7-0.9-2.4C153.9,179,154.2,178.2,154.9,177.6L154.9,177.6z"/>
			<g transform="translate(0 -.77757)">
				
					<linearGradient id="SVGID_00000129919450291362653550000015390062205759620794_" gradientUnits="userSpaceOnUse" x1="60.4407" y1="218.3568" x2="60.4407" y2="241.1368" gradientTransform="matrix(1.8302 0 0 -1.8302 69.9866 595.8766)">
					<stop  offset="0" style="stop-color:#1C201F"/>
					<stop  offset="1" style="stop-color:#B3B3B3"/>
				</linearGradient>
				<path style="fill:url(#SVGID_00000129919450291362653550000015390062205759620794_);" d="M177,177l-0.5,0.6v2l1.5,1.7v4.3
					l-0.3,12.7h5.9l-0.3-12.7v-4.3l1.5-1.7v-2l-0.5-0.6h-1.4l-0.3,0.4v0.5h-0.7v-0.5l-0.3-0.4h-1.6l-0.3,0.4v0.5h-0.7v-0.5l-0.3-0.4
					H177z"/>
				<path class="st4" d="M178,177l0.3,0.4v0.5h0.4v-0.5l-0.3-0.4H178z M181,177l0.3,0.4v0.5h0.4v-0.5l-0.3-0.4H181z M183.8,177
					l0.6,0.6v2l-1.5,1.7v4.2l0.3,12.7h0.4l-0.3-12.7v-4.2l1.5-1.7v-2l-0.5-0.6H183.8z"/>
				<path class="st46" d="M177,177l-0.5,0.6v2l1.5,1.7v4.3l-0.3,12.7h5.9v-0.2h-5.8l0.3-12.7v-4.3l-1.5-1.7v-2L177,177L177,177z
					 M179.8,177l-0.3,0.4v0.5h0.2v-0.7L179.8,177L179.8,177z M182.8,177l-0.3,0.4v0.5h0.2v-0.7L182.8,177L182.8,177z"/>
			</g>
			
				<linearGradient id="SVGID_00000042711015889167531570000016606505381794860987_" gradientUnits="userSpaceOnUse" x1="40.0576" y1="214.0004" x2="40.0576" y2="240.0104" gradientTransform="matrix(1.8302 0 0 -1.8302 69.9866 594.4535)">
				<stop  offset="0" style="stop-color:#1C201F"/>
				<stop  offset="1" style="stop-color:#B3B3B3"/>
			</linearGradient>
			<path style="fill:url(#SVGID_00000042711015889167531570000016606505381794860987_);" d="M137.8,178.7l-0.8,0.8v2.6l2.3,2.2v5.6
				l-0.5,13.8h9.2l-0.5-13.8v-5.6l2.3-2.2v-2.6l-0.8-0.8h-2.1l-0.5,0.5v0.7H145v-0.7l-0.5-0.5h-2.5l-0.5,0.5v0.7h-1.2v-0.7l-0.5-0.5
				H137.8z"/>
			<path class="st4" d="M138.8,178.7l0.5,0.5v0.7h1.1v-0.7l-0.5-0.5H138.8L138.8,178.7z M143.5,178.7l0.5,0.5v0.7h1.1v-0.7l-0.5-0.5
				H143.5z M147.8,178.7l0.8,0.8v2.6l-2.3,2.2v5.6l0.5,13.8h1.1l-0.5-13.8v-5.6l2.3-2.2v-2.6l-0.8-0.8H147.8L147.8,178.7z"/>
			<path class="st46" d="M137.8,178.7l-0.9,0.8v2.6l2.3,2.2v5.6l-0.5,13.7h9.2v-0.2h-9l0.5-13.7v-5.6l-2.3-2.2v-2.6L137.8,178.7
				L137.8,178.7z M142.1,178.7l-0.5,0.5v0.7h0.2v-0.9L142.1,178.7L142.1,178.7z M146.7,178.7l-0.5,0.5v0.7h0.2v-0.9L146.7,178.7
				L146.7,178.7z"/>
			
				<linearGradient id="SVGID_00000011002536920443359810000010683470452705626787_" gradientUnits="userSpaceOnUse" x1="50.1631" y1="213.7272" x2="50.1631" y2="224.9672" gradientTransform="matrix(1.8302 0 0 -1.8302 69.9866 594.4535)">
				<stop  offset="0" style="stop-color:#B3B3B3"/>
				<stop  offset="1" style="stop-color:#FFFFFF"/>
			</linearGradient>
			<path style="fill:url(#SVGID_00000011002536920443359810000010683470452705626787_);" d="M157.7,180.7c0,0,0.1,0,0.2,0
				c0.7,0,1.4,0.2,2.2,0.7c0.1,0.1,0.1,0.1,0.1,0.1c0.4-0.7,0.8-1,1-1c0.5,0.3,0.8,0.6,1,0.9c0.1,0.1,0.2,0.5,0.3,0.9
				c0.1,0,0.2,0,0.4,0c1.3,0,2.5,0.8,3.6,2.3c1.4,1.8,2.1,4.2,2.1,7.2c0,0.7,0,11.4-0.1,12h-9.6c0-1,0.4-12.1,1.1-12.9
				c0.1-0.1,0.2-0.3,0.3-0.4c0.6-0.7,0.9-1.2,1-1.6c0.1-0.2,0.1-0.4,0.1-0.6c-1,0.4-1.8,1-2.3,1.7c-0.2,0.4-0.5,0.8-0.8,1.2
				c-0.1,0.1-0.2,0.2-0.3,0.2c-0.4,0-0.6-0.2-0.6-0.7c-0.2,0.2-0.3,0.3-0.5,0.3c0,0-0.2,0-0.5-0.1c-0.7-0.2-1.1-0.4-1.4-0.8
				c-0.1-0.1-0.2-0.3-0.3-0.5c0.1-0.6,0.6-1.9,1.6-3.8c0.7-1.4,1.1-2.3,1.3-2.9c0-0.1,0-0.3,0-0.6
				C157.8,181.7,157.8,181.3,157.7,180.7"/>
			<path class="st0" d="M161.2,180.4c-0.2,0-0.4,0.2-0.7,0.6c0.1,0.1,0.2,0.2,0.2,0.3c0.1,0.1,0.2,0.5,0.3,0.9c0.1,0,0.2,0,0.3,0
				c1.3,0,2.5,0.8,3.7,2.3c1.4,1.8,2.1,4.1,2.1,7.2c0,0.7,0,11.4-0.1,12h1.4c0.1-0.5,0.1-11.3,0.1-12c0-3-0.7-5.4-2.1-7.2
				c-1.2-1.5-2.4-2.3-3.7-2.3c-0.1,0-0.2,0-0.3,0c-0.2-0.5-0.3-0.8-0.3-0.9C162.1,181,161.7,180.7,161.2,180.4L161.2,180.4z
				 M157.9,180.7c-0.1,0-0.2,0-0.2,0c0,0.1,0,0.1,0,0.2c0.3,0.1,1.7,0.7,2.1,0.9c0.1,0.1,0.2,0.1,0.2,0.1c0.1-0.2,0.3-0.3,0.4-0.5
				C159.6,181,158.4,180.7,157.9,180.7L157.9,180.7z"/>
			<path class="st50" d="M161.2,180.4c-0.2,0-0.6,0.4-0.9,1c0.1,0,0.1,0.1,0.1,0.1C160.7,181.1,161,180.6,161.2,180.4L161.2,180.4z
				 M157.9,180.7c-0.1,0-0.2,0-0.2,0c0.1,0.6,0.1,1,0.1,1.2c0,0.3,0,0.4,0,0.6c-0.2,0.6-0.6,1.6-1.3,2.9c-0.9,1.9-1.5,3.2-1.6,3.8
				c0.1,0.2,0.2,0.4,0.3,0.5c0.3,0.4,0.7,0.7,1.4,0.8c0.3,0.1,0.5,0.1,0.5,0.1c0.1,0,0.3-0.1,0.4-0.2c0,0-0.1,0-0.1,0
				c0,0-0.2,0-0.5-0.1c-0.7-0.2-1.1-0.4-1.4-0.8c-0.1-0.1-0.2-0.3-0.3-0.5c0.1-0.6,0.6-1.9,1.6-3.8c0.7-1.4,1.1-2.3,1.3-2.9
				c0-0.1,0-0.3,0-0.6C158.1,181.6,158.1,181.2,157.9,180.7C158,180.7,157.9,180.7,157.9,180.7L157.9,180.7z M161.8,187.9
				c-0.3,0.1-0.6,0.3-0.9,0.4c0.2-0.1,0.4-0.2,0.6-0.3c0,0.2-0.1,0.4-0.1,0.6c-0.1,0.4-0.5,0.9-1,1.6c-0.1,0.1-0.2,0.3-0.3,0.4
				c-0.7,0.9-1.1,11.9-1.1,12.9h9.6c0,0,0-0.1,0-0.2h-9.4c0-1,0.4-12.1,1.1-12.9c0.1-0.1,0.2-0.2,0.3-0.4c0.6-0.7,0.9-1.2,1-1.6
				C161.7,188.3,161.8,188.1,161.8,187.9z M157.9,190.3c-0.1,0.1-0.2,0.2-0.3,0.2c0,0.4,0.2,0.6,0.6,0.6c0.2,0,0.3-0.1,0.3-0.2
				c0,0,0,0-0.1,0C158.1,191,157.9,190.8,157.9,190.3L157.9,190.3z"/>
			
				<linearGradient id="SVGID_00000102521128810411858040000002548157788177356214_" gradientUnits="userSpaceOnUse" x1="56.8958" y1="216.3389" x2="56.8958" y2="227.1389" gradientTransform="matrix(1.8302 0 0 -1.8302 69.9866 594.4535)">
				<stop  offset="0" style="stop-color:#B3B3B3"/>
				<stop  offset="1" style="stop-color:#FFFFFF"/>
			</linearGradient>
			<path style="fill:url(#SVGID_00000102521128810411858040000002548157788177356214_);" d="M173.7,176.2v0.9H173v0.8h0.7v0.8
				c-0.5,0.1-1.1,0.2-1.1,0.5c0,0.2,0,0.3,0.4,0.3c-0.4,0-1,0.4-1.9,1.1c-1,0.8-1.5,1.7-1.5,2.6c0,0.8,0.5,1.8,1.4,2.9
				c0,0.1,0,0.2-0.1,0.5c-0.2,0.7-0.3,12.8-0.3,13h7c0-0.2-0.1-12.3-0.3-13c-0.1-0.2-0.1-0.4-0.1-0.5c0.9-1.1,1.4-2.1,1.4-2.9
				c0-1-0.5-1.8-1.5-2.6c-0.9-0.7-1.5-1.3-1.9-1.3c0.5,0,0.4-0.2,0.4-0.3c0-0.2-0.6-0.2-1.1-0.3v-1.1h0.7v-0.6h-0.7v-0.9
				L173.7,176.2z"/>
			<path class="st0" d="M174,176.2v0.9h0.5v-0.9H174z M174.8,177.2v0.6h0.5v-0.6H174.8z M174,177.8v1.1c0.5,0.1,1.1,0,1.1,0.3
				c0,0.2,0,0.3-0.4,0.3c0.4,0,1,0.6,1.9,1.3c1,0.8,1.5,1.6,1.5,2.6c0,0.8-0.5,1.8-1.4,2.9c0,0.1,0.1,0.2,0.1,0.5
				c0.2,0.7,0.3,12.8,0.3,13h0.5c0-0.2-0.1-12.3-0.3-13c-0.1-0.2-0.1-0.4-0.1-0.5c0.9-1.1,1.3-2.1,1.3-2.9c0-1-0.5-1.8-1.4-2.6
				c-0.9-0.7-1.5-1.3-1.9-1.3c0.5,0,0.4-0.2,0.4-0.3c0-0.2-0.6-0.2-1.1-0.3v-1.1H174z"/>
			<path class="st50" d="M173.7,176.2v0.9h0.2v-0.9H173.7z M173,177.1v0.9h0.8v0.8c0.1,0,0.2,0,0.2,0v-1h-0.8v-0.6L173,177.1z
				 M172.9,179.1c-0.1,0.1-0.2,0.1-0.2,0.2c0,0.1-0.1,0.4,0.5,0.4c0.2-0.1,0.5-0.2,0.6-0.2C173.3,179.5,172.9,179.5,172.9,179.1
				L172.9,179.1z M170.8,181.2c-0.7,0.7-1,1.4-1,2.2c0,0.8,0.5,1.8,1.4,2.9c0,0.1,0,0.2-0.1,0.5c-0.2,0.7-0.3,12.7-0.3,13h6.9
				c0,0,0-0.2,0-0.2h-6.7c0-0.2,0.1-12.3,0.4-13c0.1-0.2,0.1-0.4,0.1-0.5c-0.9-1.1-1.4-2.1-1.4-2.9
				C170,182.5,170.2,181.8,170.8,181.2L170.8,181.2z"/>
			
				<linearGradient id="SVGID_00000090267738238030500880000004249668867943358643_" gradientUnits="userSpaceOnUse" x1="66.1671" y1="214.5686" x2="66.1671" y2="239.3186" gradientTransform="matrix(1.8302 0 0 -1.8302 69.9866 594.4535)">
				<stop  offset="0" style="stop-color:#1C201F"/>
				<stop  offset="1" style="stop-color:#B3B3B3"/>
			</linearGradient>
			<path style="fill:url(#SVGID_00000090267738238030500880000004249668867943358643_);" d="M187.6,202.2c0-0.2,0-11.9,0-12.3
				c0-1.7,0.4-2.9,1.3-3.7c0.3-0.2,0.6-0.5,0.9-0.7c-0.4-0.2-0.7-0.5-0.9-1.2c0-0.2-0.1-0.4-0.1-0.6c0-0.9,0.4-1.5,1.1-1.9
				c-0.2-0.4-0.3-0.8-0.3-1.1c0-0.6,0.2-1,0.7-1.3c0.2-0.1,0.5-0.2,0.7-0.2c0.5,0,1,0.3,1.2,0.8c0.1,0.2,0.2,0.5,0.2,0.7
				c0,0.4-0.1,0.8-0.3,1.1c0.4,0.2,0.7,0.5,0.9,0.8c0.2,0.4,0.3,0.7,0.3,1.1c0,0.7-0.2,1.2-0.6,1.6c-0.1,0.1-0.2,0.2-0.3,0.2
				c1,0.6,1.7,1.4,2,2.4c0.2,0.6,0.2,1.2,0.2,2c0,0.5,0,12.2,0,12.3L187.6,202.2"/>
			<path class="st4" d="M191.1,179.2c-0.1,0-0.1,0-0.2,0c0.4,0.1,0.8,0.3,1,0.7c0.1,0.2,0.2,0.5,0.2,0.7c0,0.4-0.1,0.7-0.3,1.1
				c0.4,0.2,0.7,0.5,0.9,0.8c0.2,0.4,0.2,0.7,0.2,1.1c0,0.7-0.2,1.2-0.6,1.6c-0.1,0.1-0.2,0.2-0.3,0.2c1,0.6,1.7,1.4,2,2.4
				c0.2,0.6,0.2,1.2,0.2,1.9c0,0.5,0,12.2,0,12.3h0.4c0-0.2,0-11.9,0-12.3c0-0.7-0.1-1.4-0.2-1.9c-0.3-1-0.9-1.8-1.9-2.4
				c0.1,0,0.2-0.1,0.3-0.2c0.4-0.4,0.6-0.9,0.6-1.6c0-0.4-0.1-0.7-0.2-1.1c-0.2-0.3-0.5-0.6-0.9-0.8c0.2-0.4,0.3-0.7,0.3-1.1
				c0-0.3-0.1-0.5-0.2-0.7C192,179.5,191.6,179.2,191.1,179.2L191.1,179.2z"/>
			<path class="st46" d="M190.7,179.3c0,0-0.1,0-0.1,0.1C190.6,179.3,190.7,179.3,190.7,179.3C190.8,179.3,190.7,179.3,190.7,179.3
				L190.7,179.3z M190.6,179.3c-0.1,0-0.1,0-0.2,0.1c-0.5,0.3-0.7,0.7-0.7,1.3c0,0.4,0.1,0.7,0.3,1.1c-0.8,0.4-1.1,1-1.1,1.9
				c0,0.2,0,0.4,0.1,0.6c0.2,0.6,0.4,1,0.9,1.2c-0.4,0.2-0.7,0.5-0.9,0.7c-0.9,0.8-1.3,2-1.3,3.7c0,0.5,0,12.2,0,12.3h7
				c0,0,0-0.1,0-0.1h-6.8c0-0.2,0-11.9,0-12.4c0-1.7,0.4-2.9,1.3-3.7c0.3-0.2,0.6-0.5,0.9-0.7c-0.4-0.2-0.7-0.5-0.9-1.2
				c0-0.2-0.1-0.4-0.1-0.6c0-0.9,0.4-1.5,1.1-1.9c-0.2-0.4-0.3-0.8-0.3-1.1C189.9,180.1,190.1,179.6,190.6,179.3L190.6,179.3z"/>
			<g transform="matrix(1.0417 0 0 1.0417 -8.3697 -8.2486)">
				
					<linearGradient id="SVGID_00000078759161309951503900000018346680120303950473_" gradientUnits="userSpaceOnUse" x1="80.2694" y1="216.9453" x2="80.2694" y2="238.3053" gradientTransform="matrix(1.9065 0 0 -1.9065 50.4251 607.1004)">
					<stop  offset="0" style="stop-color:#1C201F"/>
					<stop  offset="1" style="stop-color:#B3B3B3"/>
				</linearGradient>
				<path style="fill:url(#SVGID_00000078759161309951503900000018346680120303950473_);" d="M203.2,173.8v0.6h-0.5v0.6h0.5v0.6
					c-0.4,0-0.8,0.2-0.8,0.3c0,0.1,0,0.2,0.3,0.2c-0.3,0-0.7,0.3-1.4,0.8c-0.7,0.5-1.1,1.1-1.1,1.8c0,0.6,0.3,1.2,1,1.9
					c0,0.1,0,0.2-0.1,0.3c-0.2,0.5-0.2,16.7-0.3,16.9h5.1c0-0.1-0.1-16.4-0.3-16.9c-0.1-0.2-0.1-0.3-0.1-0.3c0.7-0.7,1-1.4,1-1.9
					c0-0.6-0.4-1.2-1.1-1.8c-0.6-0.5-1.1-0.7-1.4-0.8c0.4,0,0.3-0.1,0.3-0.2c0-0.2-0.4-0.3-0.8-0.3V175h0.5v-0.6h-0.5v-0.6H203.2z"
					/>
				<path class="st4" d="M203.1,173.8v0.7h0.4v-0.7H203.1z M202.6,174.4v0.6h0.3v-0.6H202.6z M203.1,175v0.6c-0.4,0-0.8,0.1-0.8,0.3
					c0,0.1,0,0.2,0.3,0.2c-0.3,0-0.7,0.3-1.4,0.8c-0.7,0.5-1.1,1.1-1.1,1.7c0,0.6,0.3,1.2,1,2c0,0.1,0,0.1-0.1,0.3
					c-0.2,0.5-0.2,16.7-0.3,16.9h0.3c0-0.1,0.1-16.4,0.3-16.9c0.1-0.2,0.1-0.2,0.1-0.3c-0.7-0.7-1-1.4-1-2c0-0.6,0.4-1.2,1.1-1.7
					c0.6-0.5,1.1-0.8,1.4-0.8c-0.4,0-0.3-0.1-0.3-0.2c0-0.2,0.5-0.2,0.8-0.3V175H203.1L203.1,175z"/>
				<path class="st46" d="M203.6,173.8v0.6h0.1v-0.6H203.6z M204.2,174.4v0.5h-0.5v0.6c0,0,0.1,0,0.1,0V175h0.6v-0.6H204.2
					L204.2,174.4z M202.6,175L202.6,175l0.4,0v0H202.6z M204.3,175.7c0,0,0.1,0.1,0.1,0.1c0,0.1,0,0.2-0.3,0.2c0,0,0.1,0,0.2,0
					c0.3,0,0.3-0.1,0.3-0.2C204.5,175.8,204.5,175.8,204.3,175.7L204.3,175.7z M202.4,176.1C202.4,176.1,202.4,176.1,202.4,176.1
					c0.1,0,0.1,0,0.2,0C202.5,176.1,202.4,176.1,202.4,176.1L202.4,176.1z M204.4,176.2c0.3,0.1,0.6,0.3,1,0.7
					c0.7,0.5,1.1,1.1,1.1,1.8c0,0.6-0.3,1.2-1,2c0,0.1,0,0.2,0.1,0.3c0.2,0.5,0.3,16.7,0.3,16.8h-5c0,0,0,0,0,0h5.1
					c0-0.1-0.1-16.4-0.3-16.8c-0.1-0.2-0.1-0.3-0.1-0.3c0.7-0.7,1-1.4,1-2c0-0.6-0.4-1.2-1.1-1.8
					C205.1,176.5,204.7,176.3,204.4,176.2L204.4,176.2z"/>
			</g>
			<g transform="translate(-.049984)">
				
					<linearGradient id="SVGID_00000170244505338978902630000009083476307622848643_" gradientUnits="userSpaceOnUse" x1="84.3322" y1="219.2894" x2="84.3322" y2="239.0094" gradientTransform="matrix(1.8302 0 0 -1.8302 69.8951 594.4535)">
					<stop  offset="0" style="stop-color:#1C201F"/>
					<stop  offset="1" style="stop-color:#B3B3B3"/>
				</linearGradient>
				<path style="fill:url(#SVGID_00000170244505338978902630000009083476307622848643_);" d="M224.2,176.5c-0.1,0-0.2,0-0.4,0.1
					c-0.4,0.2-0.6,0.5-0.6,1c0,0.1,0,0.2,0.1,0.4c0.2,0.5,0.3,0.9,0.3,1.5c0,0.7-0.1,1.6-0.4,2.8c-0.6-1.5-0.9-2.6-0.9-3.3l0.1-0.8
					c0-0.2,0-0.3-0.1-0.5c-0.2-0.4-0.5-0.6-0.9-0.6c-0.1,0-0.3,0-0.4,0.1c-0.4,0.2-0.6,0.5-0.6,1c0,0.4,0.1,0.6,0.3,0.8
					c0,0,0,0,0.1,0.1c0.3,0.2,0.4,0.8,0.4,1.7c0,0.6,0,1.2-0.1,1.7c-0.7-0.8-1.1-1.6-1.1-2.2l0.1-0.7c0-0.2,0-0.3-0.1-0.5
					c-0.2-0.4-0.5-0.6-0.8-0.6c-0.1,0-0.3,0-0.4,0.1c-0.4,0.2-0.6,0.5-0.6,1c0,0.5,0.3,0.9,0.8,1.2c0,0.7,0.1,1.4,0.3,2l0.2,1
					c0.2,0.6,0.4,1,0.6,1.3c0.5,0.7,0.8,1.2,0.8,1.4c0,0.1-0.1,12.1-0.2,12.6h6.8c-0.1-0.5-0.2-12.5-0.2-12.6c0-0.2,0.3-0.7,0.8-1.4
					c0.2-0.3,0.4-0.8,0.6-1.3l0.2-1c0.1-0.6,0.2-1.3,0.3-2c0.5-0.2,0.8-0.6,0.8-1.2c0-0.5-0.2-0.8-0.6-1c-0.1-0.1-0.3-0.1-0.4-0.1
					c-0.4,0-0.6,0.2-0.8,0.6c-0.1,0.2-0.1,0.3-0.1,0.5l0.1,0.7c0,0.6-0.4,1.3-1.1,2.2c-0.1-0.5-0.1-1.1-0.1-1.7
					c0-0.9,0.1-1.4,0.4-1.7c0,0,0-0.1,0.1-0.1c0.2-0.1,0.3-0.4,0.3-0.8c0-0.5-0.2-0.8-0.6-1c-0.1-0.1-0.3-0.1-0.4-0.1
					c-0.4,0-0.7,0.2-0.9,0.6c-0.1,0.1-0.1,0.3-0.1,0.5l0.1,0.8c0,0.7-0.3,1.8-0.9,3.3c-0.2-1.2-0.4-2.2-0.4-2.8c0-0.5,0.1-1,0.3-1.5
					c0.1-0.2,0.1-0.3,0.1-0.4c0-0.5-0.2-0.8-0.6-1C224.5,176.6,224.4,176.5,224.2,176.5L224.2,176.5z"/>
				<path class="st4" d="M224.2,176.5c-0.1,0-0.3,0-0.4,0.1c-0.4,0.2-0.6,0.5-0.6,1c0,0.1,0,0.2,0.1,0.4c0.2,0.5,0.3,0.9,0.3,1.5
					c0,0.5-0.2,2-0.4,2.8c0.1,0.2,0.2,0.5,0.3,0.7c0.2-1.2,0.5-2.9,0.5-3.5c0-0.5-0.1-1-0.2-1.5c-0.1-0.2-0.1-0.3-0.1-0.4
					C223.7,177.2,223.9,176.8,224.2,176.5c0.1,0.1,0.1,0.1,0.2,0.1C224.4,176.6,224.3,176.5,224.2,176.5L224.2,176.5z M221.3,177.1
					c-0.1,0-0.1,0-0.2,0.1c-0.4,0.2-0.6,0.5-0.6,1c0,0.4,0.1,0.6,0.3,0.7c0,0,0,0,0.1,0.1c0.3,0.2,0.4,0.8,0.4,1.7
					c0,0.4,0,1.3-0.1,1.7c0.1,0.2,0.2,0.3,0.4,0.5c0.1-0.5,0.1-1.6,0.1-2.2c0-0.9-0.1-1.4-0.4-1.7c0,0,0-0.1-0.1-0.1
					c-0.2-0.1-0.3-0.4-0.3-0.7c0-0.5,0.2-0.8,0.6-1c0,0,0.1,0,0.2,0c-0.1,0-0.1,0-0.2,0C221.5,177.1,221.4,177.1,221.3,177.1
					L221.3,177.1z M226.9,177.1c-0.4,0-0.7,0.2-0.8,0.6c-0.1,0.1-0.1,0.3-0.1,0.5l0.1,0.8c0,0.6-0.5,2.2-1,3.3c0,0.2,0,0.4,0.1,0.7
					c0.6-1.5,1.3-3.3,1.3-4l-0.2-0.8c0-0.2,0.1-0.3,0.1-0.5c0.1-0.4,0.4-0.5,0.7-0.6C227.1,177.1,227,177.1,226.9,177.1L226.9,177.1
					z M219.3,178.3c-0.1,0-0.3,0-0.4,0.1c-0.4,0.2-0.6,0.5-0.6,1c0,0.5,0.3,1,0.8,1.2c0,0.7,0.1,1.4,0.3,2l0.2,1
					c0.2,0.6,0.4,1,0.6,1.3c0.5,0.7,0.8,1.2,0.8,1.4c0,0.1,0,12.1-0.2,12.6h0.4c0.1-0.5,0.2-12.5,0.2-12.6c0-0.2-0.3-0.7-0.8-1.4
					c-0.2-0.3-0.4-0.8-0.6-1.3l-0.2-1c-0.1-0.6-0.2-1.3-0.3-2c-0.5-0.2-0.8-0.7-0.8-1.2C218.7,179,218.9,178.6,219.3,178.3
					c0,0.1,0.1,0.1,0.2,0C219.4,178.3,219.4,178.3,219.3,178.3L219.3,178.3z M229.2,178.3c-0.4,0-0.7,0.2-0.8,0.6
					c-0.1,0.2-0.1,0.4-0.1,0.5l0.1,0.7c0,0.5-0.6,1.5-1.1,2.1c0,0.2,0,0.3,0,0.5c0.7-0.8,1.5-2,1.5-2.6l-0.1-0.7
					c0-0.2,0-0.4,0.1-0.5c0.1-0.3,0.3-0.5,0.6-0.6C229.3,178.3,229.2,178.3,229.2,178.3L229.2,178.3z"/>
				<path class="st46" d="M224.3,176.5c0.1,0,0.1,0,0.2,0.1c0.4,0.2,0.6,0.5,0.6,1c0,0.1,0,0.2-0.1,0.4c-0.2,0.5-0.3,0.9-0.3,1.5
					c0,0.7,0.3,2.6,0.5,3.8c0-0.1,0.1-0.2,0.1-0.3c-0.2-1.1-0.5-2.9-0.5-3.5c0-0.5,0.1-1,0.3-1.5c0.1-0.2,0.1-0.3,0.1-0.4
					c0-0.5-0.2-0.8-0.6-1C224.5,176.6,224.4,176.6,224.3,176.5z M221.7,177.1c0.2,0.1,0.4,0.3,0.5,0.6c0.1,0.1,0.1,0.3,0.1,0.4
					l-0.1,0.9c0,0.7,0.7,2.8,1.3,4.3c0-0.1,0-0.2,0-0.3c-0.5-1.3-1.2-3.4-1.2-4l0.1-0.9c0-0.2,0-0.3-0.1-0.4
					C222.3,177.3,222,177.1,221.7,177.1L221.7,177.1z M227.1,177.1c0,0,0.1,0,0.1,0c0.4,0.2,0.6,0.5,0.6,1c0,0.4-0.1,0.6-0.3,0.8
					c0,0,0,0-0.1,0.1c-0.3,0.2-0.4,0.8-0.4,1.7c0,0.6,0.1,1.9,0.1,2.4c0.1-0.1,0.1-0.1,0.1-0.2c0-0.5-0.1-1.7-0.1-2.2
					c0-0.9,0.1-1.4,0.4-1.7c0,0,0-0.1,0.1-0.1c0.2-0.1,0.3-0.4,0.3-0.8c0-0.5-0.2-0.8-0.6-1C227.3,177.1,227.2,177.1,227.1,177.1
					L227.1,177.1z M219.5,178.3c0.2,0.1,0.4,0.3,0.5,0.5c0.1,0.2,0.1,0.3,0.1,0.5l-0.1,0.7c0,0.6,0.9,1.9,1.6,2.8c0-0.1,0-0.1,0-0.2
					c-0.6-0.8-1.5-2.1-1.5-2.6l0.1-0.7c0-0.2,0-0.3-0.1-0.5C220,178.6,219.8,178.4,219.5,178.3L219.5,178.3z M229.3,178.3
					c0,0,0.1,0,0.1,0.1c0.4,0.2,0.6,0.5,0.6,1c0,0.5-0.3,0.9-0.8,1.2c0,0.7-0.1,1.4-0.3,2l-0.2,1c-0.2,0.6-0.4,1-0.6,1.3
					c-0.5,0.7-0.8,1.2-0.8,1.4c0,0.1,0.1,12.1,0.2,12.6h-6.7c0,0,0,0,0,0h6.8c-0.1-0.5-0.2-12.5-0.2-12.6c0-0.2,0.2-0.7,0.8-1.4
					c0.2-0.3,0.5-0.7,0.6-1.3l0.2-1c0.1-0.6,0.2-1.3,0.3-2c0.5-0.2,0.8-0.6,0.8-1.2c0-0.5-0.2-0.8-0.6-1
					C229.5,178.4,229.4,178.4,229.3,178.3L229.3,178.3z"/>
			</g>
			
				<linearGradient id="SVGID_00000063631959712898617330000009320090026655048607_" gradientUnits="userSpaceOnUse" x1="80.2692" y1="216.0166" x2="80.2692" y2="225.8366" gradientTransform="matrix(1.8302 0 0 -1.8302 69.9866 594.4535)">
				<stop  offset="0" style="stop-color:#B3B3B3"/>
				<stop  offset="1" style="stop-color:#FFFFFF"/>
			</linearGradient>
			<path style="fill:url(#SVGID_00000063631959712898617330000009320090026655048607_);" d="M213.3,180.6l-0.5,0.6v1.8l1.5,1.6v4
				l-0.3,11.1h5.9l-0.3-11.1v-4l1.5-1.6v-1.8l-0.5-0.6h-1.4l-0.3,0.4v0.5H218V181l-0.3-0.4h-1.6l-0.3,0.4v0.5H215V181l-0.3-0.4
				L213.3,180.6z"/>
			<path class="st0" d="M213.3,180.6l-0.6,0.6v1.8l1.5,1.6v3.9l-0.3,11.1h0.5l0.3-11.1v-3.9l-1.5-1.6v-1.8l0.5-0.6H213.3z
				 M216.1,180.6l-0.3,0.3v0.5h0.5V181l0.3-0.3H216.1z M219.1,180.6l-0.3,0.3v0.5h0.5V181l0.3-0.3H219.1z"/>
			<path class="st50" d="M214.7,180.6l0.2,0.2v0.5h0.2V181L214.7,180.6L214.7,180.6z M217.7,180.6l0.2,0.2v0.5h0.2V181L217.7,180.6
				L217.7,180.6L217.7,180.6z M220.4,180.6l0.4,0.4v1.8l-1.5,1.6v4l0.3,11.1H214v0.1h5.9l-0.3-11.1v-3.9l1.5-1.6v-1.8L220.4,180.6
				L220.4,180.6L220.4,180.6z"/>
		</g>
	</g>
	<g transform="translate(-11.189 9.7902)">
		<path class="st19" d="M120.6,190.7c0,0,12.3-2.8,13.6,1.6c1,3.1-7.3,6.5-7.3,6.5s11.7,0.2,11,5.2c-1,6.8-12.7,1.9-12.7,1.9
			s4.8,4.7,0.7,7.3c-5.7,3.7-13.6-10.3-13.6-10.3L120.6,190.7z"/>
		<path class="st56" d="M128.2,189.8c-0.5,0-0.9,0-1.4,0c-0.6,0-1.3,0.1-1.9,0.2c-0.3,0-0.6,0.1-1,0.1c-0.5,0.1-1,0.2-1.4,0.2
			c-0.5,0.1-1,0.2-1.3,0.2c-0.2,0-0.7,0.1-0.7,0.1l-0.2,0.3c3-0.6,11.1-1.7,12.2,1.9c1,3.1-7.3,6.5-7.3,6.5s11.7,0.2,11,5.2
			c-0.2,1.4-0.9,2.3-1.8,2.9c0.7-0.1,1.3-0.3,1.8-0.7c0.2-0.1,0.3-0.2,0.5-0.4c0.1-0.1,0.3-0.2,0.4-0.3c0,0,0.1-0.1,0.1-0.2
			c0.1-0.1,0.1-0.2,0.2-0.3c0-0.1,0.1-0.1,0.1-0.2c0-0.1,0.1-0.2,0.1-0.2c0.1-0.2,0.1-0.3,0.2-0.5c0.1-0.2,0.1-0.4,0.1-0.6
			c0.1-0.9-0.2-1.7-0.8-2.4c-0.4-0.4-0.9-0.8-1.5-1.1c-0.3-0.1-0.6-0.3-0.9-0.4c0,0,0,0,0,0c-0.6-0.2-1.2-0.4-1.8-0.6
			c-0.1,0-0.1,0-0.2-0.1c0,0,0,0,0,0c-0.3-0.1-0.7-0.2-1-0.2c0,0,0,0,0,0c0,0-0.1,0-0.1,0c-2.4-0.4-4.6-0.5-4.6-0.5s2.1-0.8,4-2.1
			c0.5-0.3,1-0.7,1.4-1c0.4-0.3,0.8-0.7,1.2-1.1c0.6-0.7,0.9-1.3,0.8-2c0-0.1,0-0.2-0.1-0.3c0-0.1-0.1-0.3-0.2-0.4
			c-0.1-0.1-0.1-0.2-0.2-0.3c0,0,0,0,0,0c-0.1-0.1-0.2-0.3-0.4-0.4c-0.2-0.1-0.4-0.3-0.6-0.4c0,0-0.1,0-0.1-0.1c0,0-0.1,0-0.1,0
			c-0.2-0.1-0.3-0.1-0.5-0.2c-0.1,0-0.2-0.1-0.3-0.1c-0.1,0-0.2-0.1-0.3-0.1c-0.1,0-0.3-0.1-0.4-0.1c-0.1,0-0.3,0-0.4-0.1
			c-0.2,0-0.4-0.1-0.6-0.1c-0.3,0-0.6-0.1-0.9-0.1c0,0-0.1,0-0.1,0C128.9,189.8,128.5,189.8,128.2,189.8L128.2,189.8z M121.1,203.1
			c0,0,7.3,8.1,3.2,10.8c0,0,0,0-0.1,0c0.1,0,0.3,0,0.4-0.1c0,0,0.1,0,0.2,0c0.1,0,0.2-0.1,0.3-0.1c0.1,0,0.2-0.1,0.3-0.1
			c0.2-0.1,0.4-0.2,0.5-0.3c1.8-1.2,1.9-2.7,1.4-4.1c0,0,0,0,0,0c0-0.1-0.1-0.2-0.1-0.2c0-0.1-0.1-0.2-0.1-0.3
			c0-0.1-0.1-0.2-0.2-0.3c-0.1-0.2-0.3-0.5-0.4-0.8c-0.6-1-1.3-1.6-1.3-1.6s0.2,0.1,0.2,0.1c-0.5-0.7-1.1-1.4-1.6-2
			C122.3,203.6,121.1,203.1,121.1,203.1L121.1,203.1z"/>
		<path class="st22" d="M132.8,195.3c-2.3,1.3-8.1,3.9-8.1,3.9s0.7,0.1,1.1,0.2C125.9,199.3,130.6,197.2,132.8,195.3L132.8,195.3z
			 M113.4,202l-0.9,1.3c0.7,1.2,3.9,6.4,7.6,9.1c0,0,0.1,0.1,0.1,0.1c0.1,0.1,0.3,0.2,0.4,0.2c0.2,0.2,0.5,0.3,0.7,0.4
			c0.3,0.1,0.5,0.3,0.8,0.4c0.1,0,0.2,0.1,0.3,0.1c0.2,0.1,0.5,0.1,0.7,0.2c1,0.2,1.9,0,2.8-0.6c0.3-0.2,0.5-0.4,0.7-0.6
			C121.7,214.2,115,204.5,113.4,202L113.4,202z M123.8,204c0,0,0.7,0.7,1.4,1.9c0,0,0.2,0.1,0.5,0.2c0.5,0.2,1.1,0.4,1.8,0.6
			c2.5,0.8,6.6,1.5,8.8,0c0,0,0,0,0.1,0c0.1,0,0.1-0.1,0.2-0.2c0.2-0.2,0.4-0.4,0.5-0.6C133.4,207.5,123.8,204,123.8,204L123.8,204z
			"/>
		<path class="st24" d="M73,144.2c0,0-2.7,22,6.9,35.8c7.6,10.9,31.7,25.3,31.7,25.3l9.6-15.6c0,0-8.6-9.3-10.3-15.1
			c-1.8-6.4-1-14.6,0.7-20c1.3-4,3.4-10.5,4.4-14.6C126.3,102.1,78.2,90.3,73,144.2L73,144.2z"/>
		<path class="st25" d="M75.3,131.2c-1.1,3.8-1.9,8.1-2.4,13c0,0-2.8,22.7,6.9,36.5c7.6,10.9,31.7,25.3,31.7,25.3l9.7-16.3
			L111,202.2c0,0-2-1.2-4.9-3l11.4-12.2l-13.7,10.7c-6.8-4.5-16.6-11.7-21.9-19.2c-9.7-13.8-7.9-38.2-7.9-38.2
			C74.3,137,74.7,134,75.3,131.2L75.3,131.2z"/>
	</g>
	<g transform="translate(-23.776 9.7902)">
		<path class="st27" d="M353.4,144.2c0,0,2.7,22-6.9,35.8c-7.6,10.9-31.7,25.3-31.7,25.3l-9.6-15.6c0,0,8.6-9.3,10.3-15.1
			c1.8-6.4,1-14.6-0.7-20c-1.3-4-3.4-10.5-4.4-14.6C300.1,102.1,348.2,90.3,353.4,144.2L353.4,144.2z"/>
		<g transform="translate(175.35)">
			<path class="st19" d="M129.6,190.7c0,0-12.3-2.8-13.6,1.6c-1,3.1,7.3,6.5,7.3,6.5s-11.7,0.2-11,5.2c1,6.8,12.7,1.9,12.7,1.9
				s-4.8,4.7-0.7,7.3c5.7,3.7,13.6-10.3,13.6-10.3L129.6,190.7z"/>
			<path class="st56" d="M122,189.8c2.5,0,5,0.4,7.5,0.9c0.5,0.6-1-0.1-1.4,0c-2.8-0.4-5.8-0.7-8.5,0.2c-1.2,0.4-2.5,1.6-2.1,3
				c0.6,1.7,2.3,2.7,3.7,3.6c1.2,0.7,2.4,1.3,3.7,1.8c-3,0.1-6.1,0.4-8.8,1.8c-1.3,0.6-2.6,2-2.2,3.6c0.2,1.1,0.8,2.2,1.8,2.7
				c-1.5-0.2-2.9-1.2-3.3-2.7c-0.5-1.3-0.1-2.8,1.1-3.6c2.2-1.6,4.9-2,7.5-2.3c0.6-0.1,1.9-0.1,2.2-0.2c-2.4-1.1-5-2.3-6.7-4.4
				c-0.7-0.8-0.9-2-0.1-2.8c1-1.2,2.6-1.4,4.1-1.6C121,189.8,121.5,189.8,122,189.8L122,189.8z M129.1,203.1
				c-1.8,2.1-3.5,4.4-4.3,7.1c-0.4,1.3-0.2,3,1.1,3.7c-1.8-0.2-3.6-1.8-3.3-3.7c0.2-1.6,1.2-3,2.3-4.2c-0.5,0.1,0.7-1,1-1.4
				c0.5-0.9,1.3-0.8,2.4-1.2C128.5,203.2,128.9,203.1,129.1,203.1L129.1,203.1z"/>
			<path class="st22" d="M117.4,195.3c2.2,1.2,5.3,3,7.7,4c-1.2,0.4-3.3-1.1-4.3-1.6C119.5,197.1,118.5,196.3,117.4,195.3
				L117.4,195.3z M136.8,202c0.3,0.4,0.6,0.9,0.9,1.3c-2.1,3.4-4.5,6.7-7.7,9.2c-1.5,1-3.5,1.9-5.2,1.1c-0.6-0.3-2.1-1.2-0.5-0.7
				c2.3,0.1,4.3-1.4,5.9-2.8C132.8,207.7,134.9,204.9,136.8,202L136.8,202z M126.4,204c-0.8,0.7-1.1,2.1-2.3,2.3
				c-2.7,0.9-5.6,1.7-8.5,1.2c-1-0.2-2-0.7-2.6-1.5c2.2,0.8,4.6,0.3,6.8-0.1C122,205.4,124.2,204.8,126.4,204L126.4,204z"/>
		</g>
		<path class="st28" d="M351,131.2c1.1,3.8,1.9,8.1,2.4,13c0,0,2.8,22.7-6.9,36.5c-7.6,10.9-31.7,25.3-31.7,25.3l-9.7-16.3
			l10.2,12.4c0,0,2-1.2,4.9-3L308.9,187l13.7,10.7c6.8-4.5,16.6-11.7,21.9-19.2c9.7-13.8,7.9-38.2,7.9-38.2
			C352.1,137,351.6,134,351,131.2L351,131.2z"/>
	</g>
</g>
<g transform="translate(-35.547 -32.539)">
	
		<linearGradient id="SVGID_00000106108826647081759290000012704631898291704202_" gradientUnits="userSpaceOnUse" x1="526.6307" y1="484.1745" x2="526.6307" y2="495.0745" gradientTransform="matrix(-1.8302 0 0 -1.8302 1524.4969 1346.3132)">
		<stop  offset="0" style="stop-color:#B3B3B3"/>
		<stop  offset="1" style="stop-color:#FFFFFF"/>
	</linearGradient>
	<path style="fill:url(#SVGID_00000106108826647081759290000012704631898291704202_);" d="M554.2,461.4c0-0.3,0-21.8,0-22.6
		c0-3,0.8-5.3,2.4-6.7c0.5-0.5,1-0.9,1.7-1.3c-0.8-0.3-1.3-1-1.6-2.1c-0.1-0.4-0.1-0.7-0.1-1.1c0-1.6,0.7-2.8,2.1-3.4
		c-0.4-0.7-0.5-1.4-0.5-2.1c0-1.1,0.4-1.9,1.3-2.4c0.4-0.2,0.8-0.4,1.3-0.4c1,0,1.7,0.5,2.2,1.4c0.2,0.4,0.3,0.9,0.3,1.4
		c0,0.7-0.2,1.4-0.5,2.1c0.7,0.4,1.3,0.8,1.6,1.4c0.3,0.7,0.5,1.3,0.5,2c0,1.3-0.4,2.2-1.1,2.9c-0.2,0.2-0.4,0.3-0.6,0.4
		c1.8,1.1,3,2.6,3.6,4.4c0.3,1,0.4,2.2,0.4,3.6c0,0.8,0,22.3,0,22.6L554.2,461.4"/>
	<path class="st0" d="M560.6,419.3c0.1,0,0.2,0,0.3,0.1c-0.8,0.1-1.4,0.6-1.8,1.4c-0.2,0.4-0.3,0.9-0.3,1.4c0,0.7,0.2,1.4,0.5,2
		c-0.7,0.4-1.3,0.9-1.6,1.5c-0.3,0.7-0.5,1.3-0.5,2c0,1.3,0.4,2.2,1.1,2.9c0.2,0.2,0.4,0.3,0.6,0.4c-1.8,1.1-3.1,2.6-3.6,4.4
		c-0.3,1-0.4,2.2-0.4,3.6c0,0.8,0,22.3,0.1,22.6h-0.7c0-0.3-0.1-21.7-0.1-22.6c0-1.4,0.2-2.6,0.5-3.6c0.5-1.8,1.7-3.3,3.5-4.4
		c-0.2-0.1-0.4-0.2-0.6-0.4c-0.7-0.6-1.1-1.6-1.1-2.9c0-0.7,0.1-1.3,0.5-2c0.3-0.6,0.9-1.1,1.6-1.5c-0.3-0.7-0.5-1.3-0.5-2
		c0-0.5,0.1-1,0.3-1.4C558.9,419.8,559.6,419.3,560.6,419.3L560.6,419.3z"/>
	<path class="st50" d="M561.4,419.4c0.1,0,0.2,0.1,0.2,0.1C561.5,419.4,561.4,419.4,561.4,419.4
		C561.3,419.4,561.4,419.4,561.4,419.4L561.4,419.4z M561.6,419.5c0.1,0.1,0.3,0.1,0.4,0.2c0.9,0.5,1.3,1.3,1.3,2.4
		c0,0.6-0.2,1.3-0.5,2.1c1.4,0.7,2.1,1.8,2.1,3.4c0,0.4,0,0.7-0.1,1.1c-0.3,1.1-0.8,1.8-1.6,2.1c0.7,0.4,1.2,0.8,1.7,1.3
		c1.6,1.5,2.4,3.7,2.4,6.8c0,0.8,0,22.3,0,22.6h-12.9c0,0,0-0.1,0-0.1h12.5c0-0.3,0-21.8,0-22.6c0-3-0.8-5.3-2.3-6.7
		c-0.5-0.5-1-0.9-1.7-1.3c0.8-0.3,1.3-1,1.6-2.1c0.1-0.4,0.1-0.7,0.1-1.1c0-1.6-0.7-2.7-2.1-3.4c0.4-0.7,0.6-1.4,0.6-2.1
		C563,420.9,562.5,420,561.6,419.5L561.6,419.5z"/>
</g>
<g transform="translate(-35.547 -32.539)">
	
		<linearGradient id="SVGID_00000092447958680465356690000014813599868448127616_" gradientUnits="userSpaceOnUse" x1="497.3414" y1="482.6945" x2="497.3414" y2="509.0245" gradientTransform="matrix(-1.8302 0 0 -1.8302 1525.647 1346.3132)">
		<stop  offset="0" style="stop-color:#1C201F"/>
		<stop  offset="1" style="stop-color:#B3B3B3"/>
	</linearGradient>
	<path style="fill:url(#SVGID_00000092447958680465356690000014813599868448127616_);" d="M622.9,422.1c-0.1,0-0.2,0-0.4,0
		c-1.3,0-2.6,0.4-4,1.2c-0.2,0.1-0.2,0.2-0.2,0.2c-0.8-1.3-1.4-1.9-1.8-1.9c-0.9,0.5-1.5,1-1.8,1.6c-0.1,0.3-0.3,0.8-0.6,1.7
		c-0.2-0.1-0.4-0.1-0.7-0.1c-2.3,0-4.6,1.4-6.7,4.2c-2.5,3.2-3.8,7.6-3.8,13.2c0,1.2,0.1,20.9,0.2,21.9h17.6
		c-0.1-1.8-0.7-22.1-2-23.7c-0.1-0.2-0.3-0.5-0.6-0.7c-1-1.3-1.7-2.2-1.9-2.9c-0.1-0.4-0.2-0.7-0.2-1.1c1.8,0.7,3.2,1.7,4.1,3.1
		c0.4,0.7,0.9,1.4,1.4,2.1c0.1,0.2,0.3,0.3,0.6,0.3c0.7,0,1-0.4,1-1.3c0.3,0.4,0.6,0.5,1,0.5c0,0,0.3-0.1,0.8-0.2
		c1.2-0.3,2-0.8,2.5-1.5c0.2-0.2,0.3-0.6,0.5-1c-0.2-1.2-1.2-3.5-2.9-7c-1.3-2.5-2-4.3-2.3-5.4c0-0.2,0-0.6,0-1.1
		C622.7,423.9,622.8,423.2,622.9,422.1"/>
	<path class="st4" d="M616.4,421.5c0.3,0,0.7,0.4,1.2,1c-0.2,0.2-0.3,0.3-0.4,0.5c-0.1,0.3-0.4,0.8-0.6,1.7
		c-0.2-0.1-0.4-0.1-0.6-0.1c-2.3,0-4.6,1.4-6.7,4.2c-2.5,3.2-3.8,7.6-3.8,13.2c0,1.2,0,20.9,0.1,21.9H603c-0.1-1-0.2-20.7-0.2-21.9
		c0-5.6,1.3-9.9,3.8-13.2c2.1-2.8,4.4-4.2,6.7-4.2c0.2,0,0.4,0,0.6,0.1c0.3-0.9,0.5-1.4,0.6-1.7C614.9,422.5,615.5,422,616.4,421.5
		L616.4,421.5z M622.5,422c0.2,0,0.4,0.1,0.5,0.1c0,0.2,0,0.2-0.1,0.3c-0.6,0.2-3.2,1.4-3.8,1.7c-0.2,0.1-0.3,0.2-0.3,0.2
		c-0.3-0.4-0.5-0.6-0.7-0.9C619.5,422.5,621.6,421.9,622.5,422L622.5,422z"/>
	<path class="st46" d="M616.5,421.5c0.6,0.1,1.8,1.8,2.4,2.9c-0.1,0.1-0.2,0.1-0.2,0.1C618.2,423.7,616.8,421.8,616.5,421.5
		L616.5,421.5z M622.9,422.1c-0.1,1.1-0.2,1.8-0.2,2.2c0,0.5,0,0.8,0,1.1c0.3,1.1,1.1,2.9,2.3,5.4c1.7,3.5,2.7,5.8,2.9,7
		c-0.2,0.4-0.4,0.7-0.6,1c-0.5,0.7-1.3,1.2-2.5,1.5c-0.6,0.1-0.8,0.2-0.8,0.2c-0.3,0-0.5-0.1-0.8-0.3c0.1,0,0.2,0,0.2,0
		c0,0,0.3-0.1,0.8-0.2c1.2-0.3,2.1-0.8,2.6-1.5c0.2-0.2,0.3-0.6,0.5-1c-0.2-1.2-1.1-3.5-2.9-7c-1.3-2.5-2-4.3-2.3-5.4
		c0-0.2,0-0.6,0-1.1c0-0.3,0-1,0.2-2C622.7,422,622.7,422.1,622.9,422.1L622.9,422.1z M615.4,435.3c0.6,0.2,1.1,0.5,1.6,0.8
		c-0.3-0.2-0.7-0.4-1.1-0.5c0.1,0.4,0.1,0.7,0.2,1.1c0.2,0.7,0.8,1.7,1.9,2.9c0.3,0.3,0.5,0.5,0.6,0.7c1.3,1.6,2,21.9,2,23.7H603
		c0,0,0-0.2,0-0.3h17.1c-0.1-1.8-0.7-22.1-2-23.7c-0.1-0.2-0.3-0.4-0.6-0.7c-1-1.3-1.7-2.3-1.9-2.9
		C615.5,436,615.5,435.6,615.4,435.3z M622.6,439.6c0.2,0.2,0.3,0.3,0.5,0.4c0,0.7-0.4,1.1-1,1.1c-0.3,0-0.5-0.1-0.6-0.3
		c0,0,0.1,0,0.1,0C622.2,440.8,622.6,440.4,622.6,439.6L622.6,439.6z"/>
</g>
<g transform="translate(-35.547 -32.539)">
	
		<linearGradient id="SVGID_00000000196461973849227100000003202392900318624149_" gradientUnits="userSpaceOnUse" x1="369.3675" y1="483.9645" x2="369.3675" y2="493.7045" gradientTransform="matrix(1.8302 0 0 -1.8302 -32.5869 1346.3132)">
		<stop  offset="0" style="stop-color:#B3B3B3"/>
		<stop  offset="1" style="stop-color:#FFFFFF"/>
	</linearGradient>
	<path style="fill:url(#SVGID_00000000196461973849227100000003202392900318624149_);" d="M643.4,417.9c-0.3,0-0.5,0.1-0.7,0.2
		c-0.8,0.4-1.2,1-1.2,2c0,0.2,0.1,0.4,0.2,0.8c0.4,0.9,0.5,1.9,0.5,3c0,1.3-0.2,3.1-0.7,5.6c-1.3-3-1.9-5.1-1.9-6.6l0.3-1.7
		c0-0.3-0.1-0.6-0.2-0.9c-0.4-0.8-0.9-1.2-1.8-1.2c-0.3,0-0.6,0-0.8,0.2c-0.8,0.4-1.2,1-1.2,2c0,0.7,0.2,1.2,0.6,1.5
		c0,0,0.1,0.1,0.1,0.1c0.6,0.5,0.9,1.6,0.9,3.3c0,1.2,0,2.3-0.2,3.3c-1.5-1.7-2.3-3.1-2.3-4.3l0.2-1.5c0-0.3-0.1-0.7-0.2-1
		c-0.4-0.8-0.9-1.2-1.7-1.2c-0.3,0-0.6,0.1-0.9,0.2c-0.8,0.4-1.2,1-1.2,2c0,1.1,0.6,1.9,1.6,2.4c0.1,1.4,0.3,2.8,0.6,4l0.5,1.9
		c0.3,1.1,0.8,1.9,1.2,2.6c1.1,1.4,1.6,2.3,1.6,2.8c0,0.2-0.1,22.9-0.4,24h14c-0.2-1.1-0.4-23.8-0.4-24c0-0.5,0.5-1.4,1.6-2.8
		c0.5-0.7,0.9-1.5,1.2-2.6l0.5-1.9c0.3-1.3,0.5-2.6,0.6-4c1.1-0.5,1.6-1.3,1.6-2.4c0-0.9-0.4-1.6-1.2-2c-0.3-0.1-0.6-0.2-0.9-0.2
		c-0.8,0-1.3,0.4-1.7,1.2c-0.2,0.3-0.2,0.7-0.2,1l0.2,1.5c0,1.2-0.8,2.6-2.3,4.3c-0.1-1.1-0.2-2.2-0.2-3.3c0-1.7,0.3-2.8,0.9-3.3
		c0-0.1,0.1-0.1,0.1-0.1c0.4-0.3,0.6-0.8,0.6-1.5c0-1-0.4-1.6-1.2-2c-0.3-0.1-0.5-0.2-0.8-0.2c-0.8,0-1.4,0.4-1.8,1.2
		c-0.1,0.3-0.2,0.6-0.2,0.9l0.3,1.7c0,1.4-0.7,3.6-1.9,6.6c-0.5-2.4-0.7-4.3-0.7-5.6c0-1.1,0.2-2.1,0.5-3c0.1-0.3,0.2-0.6,0.2-0.8
		c0-1-0.4-1.6-1.2-2C643.9,418,643.7,417.9,643.4,417.9L643.4,417.9z"/>
	<path class="st0" d="M643.4,417.9c-0.3,0-0.5,0.1-0.7,0.2c-0.8,0.4-1.1,1-1.1,2c0,0.2,0,0.4,0.2,0.7c0.4,0.9,0.6,1.9,0.6,3
		c0,0.7-0.1,1.6-0.2,2.7c0.3,0.9,0.7,1.8,1.1,2.9c0.5-2.4,0.7-4.3,0.7-5.5c0-1.1-0.2-2.1-0.6-3c-0.1-0.3-0.2-0.6-0.2-0.7
		c0-0.9,0.3-1.6,1-1.9c0,0,0,0-0.1-0.1C643.9,418,643.7,417.9,643.4,417.9L643.4,417.9z M637.9,419c-0.3,0-0.5,0-0.8,0.2
		c-0.8,0.4-1.2,1-1.2,2c0,0.3,0.1,0.5,0.1,0.7c0.3,0.2,0.5,0.4,0.6,0.8c0,0.1,0.1,0.2,0.1,0.2c0.5,0.5,0.7,1.6,0.7,3.2
		c0,0.4,0,0.8,0,1.3c0.4,0.6,0.8,1.3,1.5,2.1c0.1-1.1,0.2-2.2,0.2-3.3c0-1.7-0.3-2.9-0.9-3.3c0-0.1-0.1-0.1-0.1-0.1
		c-0.4-0.3-0.6-0.8-0.6-1.5c0-0.9,0.3-1.6,1.1-1.9C638.4,419.1,638.2,419,637.9,419L637.9,419z M649,419c-0.8,0-1.4,0.4-1.8,1.3
		c-0.1,0.3-0.2,0.6-0.2,0.9l0.3,1.7c0,0.9-0.3,2.1-0.8,3.6c0.1,0.9,0.2,1.9,0.5,3c1.3-3,1.9-5.1,1.9-6.6l-0.2-1.7
		c0-0.3,0.1-0.6,0.2-0.9c0.2-0.5,0.5-0.8,1-1c0,0,0,0-0.1-0.1C649.6,419,649.3,419,649,419L649,419z M633.3,421.5
		c-0.3,0-0.6,0-0.9,0.2c-0.8,0.4-1.2,1.1-1.2,2c0,1.1,0.6,1.9,1.7,2.3c0.1,1.4,0.3,2.7,0.6,4l0.5,1.9c0.3,1.1,0.8,2,1.3,2.6
		c1.1,1.4,1.6,2.3,1.6,2.8c0,0.2-0.1,22.9-0.3,24h1.7c0.2-1.1,0.3-23.8,0.3-24c0-0.5-0.5-1.4-1.6-2.8c-0.5-0.7-0.9-1.5-1.3-2.6
		l-0.5-1.9c-0.3-1.3-0.5-2.6-0.6-4c-1.1-0.5-1.7-1.3-1.7-2.3c0-0.9,0.4-1.6,1.1-2C633.8,421.6,633.6,421.5,633.3,421.5z
		 M653.6,421.5c-0.4,0-0.8,0.1-1.1,0.3c-0.1,0.3-0.3,0.6-0.5,0.8c0,0-0.1,0.1-0.1,0.1c0,0,0,0.1-0.1,0.1c-0.1,0.3-0.2,0.5-0.2,0.8
		l0.2,1.4c0,0.7-0.3,1.4-0.7,2.2c0,0.7,0,1.4,0.1,2.1c1.5-1.7,2.2-3.1,2.2-4.3l-0.1-1.4c0-0.3,0.1-0.7,0.2-1c0.2-0.5,0.5-0.8,0.9-1
		C654.2,421.6,653.9,421.5,653.6,421.5L653.6,421.5z"/>
	<path class="st50" d="M643.8,418.1c0.1,0,0.2,0.1,0.3,0.1c0.8,0.4,1.2,1,1.2,1.9c0,0.2-0.1,0.5-0.2,0.8c-0.3,0.9-0.5,1.8-0.5,2.8
		c0,1.3,0.6,5,1.1,7.3c0.1-0.2,0.1-0.4,0.2-0.5c-0.4-2-0.9-5.6-0.9-6.8c0-1.1,0.2-2,0.5-2.8c0.1-0.3,0.2-0.6,0.2-0.8
		c0-0.9-0.4-1.6-1.2-1.9C644.3,418.1,644.1,418.1,643.8,418.1L643.8,418.1z M638.6,419.1c0.5,0.2,0.8,0.6,1.1,1.1
		c0.1,0.3,0.2,0.5,0.2,0.8l-0.4,1.7c0,1.4,1.4,5.4,2.7,8.2c0-0.2,0.1-0.3,0.1-0.5c-1.1-2.6-2.5-6.4-2.5-7.7l0.4-1.7
		c0-0.3-0.1-0.6-0.2-0.8C639.7,419.6,639.2,419.2,638.6,419.1L638.6,419.1z M649.5,419.1c0.1,0,0.2,0,0.2,0.1c0.8,0.4,1.2,1,1.2,1.9
		c0,0.7-0.2,1.2-0.6,1.5c0,0-0.1,0.1-0.2,0.2c-0.6,0.5-0.8,1.5-0.8,3.2c0,1.1,0.2,3.6,0.3,4.6c0.1-0.1,0.2-0.3,0.3-0.4
		c-0.1-0.9-0.3-3.2-0.3-4.2c0-1.7,0.3-2.7,0.8-3.2c0,0,0.1-0.1,0.2-0.1c0.4-0.3,0.6-0.8,0.6-1.5c0-0.9-0.4-1.6-1.2-1.9
		C649.9,419.2,649.7,419.1,649.5,419.1L649.5,419.1z M634,421.6c0.4,0.2,0.8,0.5,1.1,1c0.2,0.3,0.2,0.7,0.2,1L635,425
		c0,1.1,1.6,3.7,3.1,5.3c0-0.1,0-0.2,0-0.3c-1.3-1.5-2.8-3.9-2.8-5l0.3-1.5c0-0.3-0.1-0.6-0.2-1C635.1,422,634.6,421.7,634,421.6
		L634,421.6z M654.1,421.6c0.1,0,0.2,0.1,0.3,0.1c0.8,0.4,1.1,1,1.1,1.9c0,1.1-0.5,1.8-1.6,2.3c-0.1,1.4-0.3,2.7-0.6,3.9l-0.4,1.9
		c-0.3,1.1-0.6,2-1.1,2.6c-1.1,1.4-1.7,2.2-1.7,2.7c0,0.2,0.1,23.2,0.3,24.2h-13.9v0.2h14.2c-0.2-1-0.3-24.2-0.3-24.4
		c0-0.5,0.7-1.3,1.7-2.7c0.5-0.7,0.8-1.5,1.1-2.6l0.4-1.9c0.3-1.2,0.5-2.5,0.6-3.9c1.1-0.5,1.6-1.3,1.6-2.3c0-0.9-0.4-1.5-1.1-1.9
		C654.5,421.6,654.3,421.6,654.1,421.6L654.1,421.6z"/>
</g>
<path class="st60" d="M227.4,81c2,0,19.7-13.1,48.5-14.4c39.4-4.6,55.8,21,55.8,21c-1.3,3.3,26.9-20.3,43.3-18.4
	c17.7,2.6,24.9,10.5,23,26.9c-1.3,10.5-12.5,15.1-15.1,20.3c1.3,2.6,15.7,11.2,15.7,34.1S384.2,186,384.8,186s14.4,23,3.9,36.7
	s-40,0.7-44.6-2c-4.6,1.3-4.6,10.5-17.7,12.5c-13.1,2-29.5-3.9-29.5-3.9l-6.6-5.2l70.9,74.1L257.6,228c-8.5,2.6-6.6,4.6-30.8,7.2
	c-20.3,0-15.7-3.9-22.3-6.6c-7.9,5.2-40,12.5-50.5-7.2c-8.5-24.9,4.6-30.8,7.2-35.4c-2.6-5.9-11.2-15.7-9.8-34.1
	c0-23.6,5.9-35.4,11.2-39.4c-2.6-5.2-13.1-26.2,9.8-39.4C210.3,63.3,226.7,81.7,227.4,81L227.4,81z"/>
<text transform="matrix(1 0 0 1 195 147.5637)" class="st61 st62">Error</text>
<text transform="matrix(1 0 0 1 207.0957 210.216)" class="st61 st62">404</text>
</svg>
