<?xml version="1.0" encoding="UTF-8"?>
<svg version="1.1" viewBox="0 0 1028.9 704.92" xmlns="http://www.w3.org/2000/svg" xmlns:xlink="http://www.w3.org/1999/xlink">
 <defs>
  <linearGradient id="a">
   <stop stop-color="#1c201f" offset="0"/>
   <stop stop-color="#b3b3b3" offset="1"/>
  </linearGradient>
  <linearGradient id="p" x1=".5655" x2=".5655" y1="284.81" y2="168.41" gradientUnits="userSpaceOnUse">
   <stop stop-color="#0b1728" offset="0"/>
   <stop stop-color="#3076d8" stop-opacity="0" offset="1"/>
  </linearGradient>
  <linearGradient id="q" x1="16.173" x2="16.173" y1="270.14" y2="316.73" gradientUnits="userSpaceOnUse">
   <stop stop-color="#223549" offset="0"/>
   <stop stop-color="#b3b3b3" stop-opacity="0" offset="1"/>
  </linearGradient>
  <linearGradient id="r" x1="160.96" x2="160.96" y1="198.09" y2="170.92" gradientUnits="userSpaceOnUse" xlink:href="#a"/>
  <linearGradient id="s" x1="181.1" x2="181.1" y1="196.24" y2="173.46" gradientUnits="userSpaceOnUse" xlink:href="#a"/>
  <linearGradient id="t" x1="142.44" x2="142.44" y1="202.79" y2="176.78" gradientUnits="userSpaceOnUse" xlink:href="#a"/>
  <linearGradient id="u" x1="164" x2="164" y1="203.29" y2="192.05" gradientUnits="userSpaceOnUse">
   <stop stop-color="#b3b3b3" offset="0"/>
   <stop stop-color="#fff" offset="1"/>
  </linearGradient>
  <linearGradient id="v" x1="174.59" x2="174.59" y1="198.51" y2="187.71" gradientUnits="userSpaceOnUse">
   <stop stop-color="#b3b3b3" offset="0"/>
   <stop stop-color="#fff" offset="1"/>
  </linearGradient>
  <linearGradient id="w" x1="191.28" x2="191.28" y1="201.75" y2="177" gradientUnits="userSpaceOnUse" xlink:href="#a"/>
  <linearGradient id="x" x1="203.8" x2="203.8" y1="193.49" y2="172.13" gradientUnits="userSpaceOnUse" xlink:href="#a"/>
  <linearGradient id="y" x1="190.99" x2="190.99" y1="201.56" y2="190.66" gradientUnits="userSpaceOnUse">
   <stop stop-color="#b3b3b3" offset="0"/>
   <stop stop-color="#fff" offset="1"/>
  </linearGradient>
  <linearGradient id="z" x1="224.06" x2="224.06" y1="193.11" y2="173.39" gradientUnits="userSpaceOnUse" xlink:href="#a"/>
  <linearGradient id="aa" x1="217.3" x2="217.3" y1="199.1" y2="189.28" gradientUnits="userSpaceOnUse">
   <stop stop-color="#b3b3b3" offset="0"/>
   <stop stop-color="#fff" offset="1"/>
  </linearGradient>
  <linearGradient id="ab" x1="162.49" x2="162.49" y1="203.04" y2="176.71" gradientUnits="userSpaceOnUse" xlink:href="#a"/>
  <linearGradient id="ac" x1="245.92" x2="245.92" y1="201.77" y2="192.03" gradientUnits="userSpaceOnUse">
   <stop stop-color="#b3b3b3" offset="0"/>
   <stop stop-color="#fff" offset="1"/>
  </linearGradient>
 </defs>
 <g transform="matrix(1.8302 0 0 1.8302 158 58.742)">
  <g transform="matrix(1.0615 0 0 1.0615 -6.0226 -8.0516)">
   <g transform="matrix(.97406 0 0 .94174 1.1483 -424.11)">
    <path d="m-33.533 450.67 489.5-24.37-45.24 360.08-432.14-13.87-12.123-321.84" fill="#fff"/>
    <g fill="#3a3c40">
     <path d="m351.46 431.5-154.56 7.7188 7.9375 75.625 123.41 14.906 23.219-98.25z"/>
     <path d="m17.082 448.15-50.625 2.5312 1.3438 35.562 72.406 8.7188-23.125-46.812z"/>
     <path d="m44.551 498 53.656 108.5 113.13-4.125-8.9062-85.344l-157.88-19.04z"/>
     <path d="m330.27 532.44-15.656 66.219 120.25-4.375 6.0938-48.5-110.69-13.344z"/>
     <path d="m311.33 601.25-97.125 3.5312 8.8125 84 69.844-9.5 18.469-78.031z"/>
     <path d="m96.614 609.06-124.03 4.5 4.0938 108.66l164.81-22.35-44.876-90.81z"/>
     <path d="m426.14 663.69-131.12 17.812-23.75 100.41 139.47 4.4688 15.406-122.69z"/>
     <path d="m220.68 691.56-75.344 10.25 38.188 77.281 46.469 1.5-9.3125-89.031z"/>
    </g>
    <g fill="#ccc">
     <path d="m455.96 426.31-101.81 5.0625-23.312 98.656 110.44 13.281 14.688-117z"/>
     <path d="m194.3 439.34-174.47 8.6875 23.406 47.312 158.91 19.156-7.8438-75.156z"/>
     <path d="m-32.105 488.78 4.5938 122.31 122.91-4.4688-53.875-109-73.625-8.8438z"/>
     <path d="m205.11 517.34 8.875 84.969 97.938-3.5938 15.75-66.594-122.56-14.781z"/>
     <path d="m434.55 596.78-120.53 4.375-18.375 77.781 130.81-17.75 8.0938-64.406z"/>
     <path d="m211.62 604.84-112.22 4.0938 44.781 90.562 76.219-10.375-8.7812-84.281z"/>
     <path d="m292.27 681.87-69 9.375 9.3438 89.406 36 1.1562 23.656-99.938z"/>
     <path d="m142.64 702.19-165.88 22.5 1.8125 47.844 202.03 6.4688-37.969-76.812z"/>
    </g>
    <path transform="matrix(.96714 0 0 1.0003 20.894 458.41)" d="m-50.281 146.47 6.531 167.53l446.84 13.875 23.562-181.41h-476.94z" fill="url(#p)" opacity=".79451"/>
   </g>
   <path d="m-29.891 272.36-26.116 43.653 503.2 24.18-31.426-63.637z" fill="#b3b3b3"/>
   <path d="m-29.891 272.36-26.116 43.653 503.2 24.18-31.426-63.637z" fill="url(#q)"/>
   <path transform="matrix(1.1121 .010356 -.018573 1.9427 -9.532 -257.32)" d="m421.33 273.04c0 0.57932-106.61 1.049-238.11 1.049-131.51 0-238.11-0.46963-238.11-1.049 0-0.57932 106.61-1.049 238.11-1.049 131.51 0 238.11 0.46963 238.11 1.049z" color="#000000" fill="#1f2a36"/>
  </g>
  <g transform="matrix(.91604 0 0 .89078 -14.657 -254.3)" fill="#fff" opacity=".79646">
   <path d="m229.61 284.63c-53.621 0-97.076 41.983-97.076 93.743 0 51.759 43.455 93.743 97.076 93.743s97.115-41.983 97.115-93.743c0-51.759-43.494-93.743-97.115-93.743zm0 1.9881c52.521 0 95.094 41.057 95.094 91.755 0 50.697-42.573 91.792-95.094 91.792s-95.056-41.095-95.056-91.792 42.534-91.755 95.056-91.755z" color="#000000" style="block-progression:tb;text-indent:0;text-transform:none"/>
   <path transform="matrix(1.0404 0 0 1.0042 11.003 249.2)" d="m287.41 128.64c0 42.677-34.596 77.273-77.273 77.273s-77.273-34.596-77.273-77.273 34.596-77.273 77.273-77.273 77.273 34.596 77.273 77.273z" color="#000000" opacity=".5"/>
   <path transform="matrix(.83037 0 0 .80154 55.13 275.28)" d="m287.41 128.64c0 42.677-34.596 77.273-77.273 77.273s-77.273-34.596-77.273-77.273 34.596-77.273 77.273-77.273 77.273 34.596 77.273 77.273z" color="#000000" opacity=".7"/>
   <path transform="matrix(1.2436 0 0 1.2004 -31.7 223.97)" d="m287.41 128.64c0 42.677-34.596 77.273-77.273 77.273s-77.273-34.596-77.273-77.273 34.596-77.273 77.273-77.273 77.273 34.596 77.273 77.273z" color="#000000" opacity=".3"/>
   <path d="m229.61 299.79c-44.949 0-81.408 35.193-81.408 78.581s36.459 78.581 81.408 78.581 81.441-35.193 81.441-78.581-36.492-78.581-81.441-78.581zm0 1.9771c43.849 0 79.392 34.278 79.392 76.604s-35.544 76.635-79.392 76.635c-43.849 0-79.36-34.309-79.36-76.635s35.511-76.604 79.36-76.604z" color="#000000" style="block-progression:tb;text-indent:0;text-transform:none"/>
   <path d="m229.61 315.45c-35.987 0-65.158 28.183-65.158 62.921s29.171 62.921 65.158 62.921 65.184-28.183 65.184-62.921-29.197-62.921-65.184-62.921zm0 1.9788c34.887 0 63.16 27.266 63.16 60.942s-28.273 60.967-63.16 60.967-63.134-27.291-63.134-60.967 28.247-60.942 63.134-60.942z" color="#000000" style="block-progression:tb;text-indent:0;text-transform:none"/>
  </g>
  <g transform="translate(-11.189 9.7902)">
   <path d="m386.19 294.62c0 6.3792-24.352 11.551-54.393 11.551-30.04 0-54.393-5.1714-54.393-11.551 0-6.3792 24.352-11.551 54.393-11.551 30.04 0 54.393 5.1714 54.393 11.551z" color="#000000" fill="#4f5155" opacity=".81646"/>
   <g transform="translate(-12.587)">
    <path d="m342.84 293.83-37.744 3.3106s1.5953-3.6948 2.7738-5.3052c4.7022-6.4252 11.227-9.0436 17.986-10.913 4.8781-1.349 15.183 0.0874 15.183 0.0874z" fill="#a05a2c"/>
    <path d="m316.78 284.31c-3.3299 1.7282-6.3814 4.0812-8.9062 7.5312-1.1785 1.6104-2.7812 5.2812-2.7812 5.2812l22.781-2c-3.5774-3.4304-7.3381-7.0957-11.094-10.812z" fill="#c88746"/>
    <path d="m339.25 280.78c1.0324 0.12538 1.5693 0.20524 1.6562 0.21875l1.9375 12.812-37.746 3.3244s0.31985-0.76019 0.5625-1.3125l34.459-4.3548-0.9941-10.688c0.0356 4e-3 0.0902-4e-3 0.125 0z" fill="#673600"/>
    <path d="m323.81 281.53c-0.8262 0.2534-1.6576 0.52105-2.4688 0.8125l3.0312 3.3125c0.70029 0.77329 1.6404 1.0326 2.125 0.59375 0.48458-0.43884 0.32529-1.4142-0.375-2.1875l-2.3125-2.5312zm-4.125 1.4375c-0.76037 0.30915-1.5123 0.63887-2.25 1l3.25 3.625c0.70029 0.77329 1.6717 1.0326 2.1562 0.59375 0.48458-0.43884 0.29404-1.4142-0.40625-2.1875l-2.75-3.0312zm-3.5938 1.6875c-0.6797 0.37523-1.3478 0.81453-2 1.25l3.0938 3.4375c0.70029 0.77329 1.6717 1.0326 2.1562 0.59375 0.48458-0.43884 0.29404-1.4142-0.40625-2.1875l-2.8125-3.0938c-8e-3 5e-3 -0.0231-5e-3 -0.0312 0z" color="#000000" fill="#ecba78"/>
    <path d="m383.45 295.5-41.921 4.518s1.7194-3.9227 2.8221-5.7515c4.2842-7.105 9.825-11.12 16.594-13.023 5.5365-1.5564 17.463-1.1218 17.463-1.1218z" fill="#a05a2c"/>
    <path d="m351.97 285.62c-2.8678 2.1534-5.4195 4.9673-7.625 8.625-1.1027 1.8288-2.8125 5.75-2.8125 5.75l22.85-2.47c-3.68-3.47-7.97-7.59-12.41-11.91z" fill="#c88746"/>
    <path d="m376.75 280c0.88575 0.0657 1.6562 0.125 1.6562 0.125l5.0542 15.383-41.924 4.4991s0.28684-0.77211 0.6875-1.7188l38.237-5.0671z" fill="#673600"/>
    <path d="m357.94 282.28c-0.82131 0.33055-1.6257 0.71768-2.4062 1.125l5 3.8438c0.82322 0.64086 1.7859 0.73462 2.1875 0.21875 0.40159-0.51587 0.0732-1.4529-0.75-2.0938l-4.0312-3.0938zm-4 1.9688c-0.6965 0.42779-1.3698 0.90687-2.0312 1.4062l5.3125 4.1562c0.82322 0.64086 1.8172 0.73463 2.2188 0.21875 0.40159-0.51587 0.0419-1.4529-0.78125-2.0938l-4.72-3.69zm-3.1562 2.3125c-0.59233 0.50098-1.1877 1.0273-1.75 1.5938l5.0312 3.9688c0.82322 0.64086 1.8484 0.73462 2.25 0.21875 0.40159-0.51587 0.0419-1.4529-0.78125-2.0938l-4.75-3.6875z" color="#000000" fill="#ecba78"/>
    <path d="m373.93 221.54c-1.3476 20.502 2.9356 40.199 5.9338 60.079l-20.52-0.49c-14.102-19.608-23.34-39.824-32.265-60.079z" fill="#809fed"/>
    <path d="m327.06 221.06 7.9062 0.0937c8.9129 20.225 18.169 40.39 32.25 59.969l12.625 0.3125c9e-3 0.0627 0.0218 0.12478 0.0312 0.1875l-20.531-0.5c-14.102-19.608-23.356-39.807-32.281-60.062z" fill="#a0c0f8"/>
    <path d="m371.56 221.5 2.375 0.0312c-1.3476 20.502 3.3764 41 6.3746 60.88l-21.231-0.58736c-0.41191-0.57274-0.55279-1.8443-0.95651-2.418l18.857-0.40538c-2.91-19.31-6.43-37.6-5.42-57.49z" fill="#6b74c6"/>
    <path d="m327.32 220.06c2.3548 21.543 8.2689 42.07 15.205 62.305l-18.049-1.4834c-17.889-20.168-29.878-42.761-42.589-65.519z" fill="#809fed"/>
    <path d="m281.89 215.38 7.2948 0.84375c12.562 22.471 25.489 44.738 43.156 64.656l9.9688 0.8125c0.0775 0.2269 0.141 0.46068 0.21875 0.6875l-18.062-1.5c-17.889-20.168-29.866-42.743-42.576-65.5z" fill="#a0c0f8"/>
    <path d="m325.25 219.84 2.0625 0.21875c2.3548 21.543 8.1949 42.253 15.131 62.487l-17.97-1.67c-0.49272-0.5555-0.95205-1.1284-1.4375-1.6875l16.345 0.65079c-6.7716-19.754-11.663-39.01-14.126-59.995z" fill="#6b74c6"/>
    <path d="m254.65 50.589c3.2857 1.6713 8.6333 6.9113 8.6333 6.9113s10.22 2.1711 11.25 5.0625c1.0298 2.8914-2.7188 5.4375-2.7188 5.4375s9.6333 5.9275 13.719 9.7812c3.5408 3.3399 9.1562 11.375 9.1562 11.375l-6.8125 73.188s-10.413-1.6743-13.348-4.7889c-3.9091-4.1479-3.6495-13.303-10.868-13.89-1.9118-0.15563-3.1754-5.2183-2.2736-6.9113 0.76596-1.438 2.18-5.3211 7.7701-6.1497 19.11-2.0018-6.3448-4.9879-9.6904 1.55l-4.9679-7.9007c-4.5854 3.5803-10.698 8.6334-17.06 10.865-2.5804 0.90527-7.8329 3.6273-8.1562 0.8819-2.592-22.008-1.0077-37.511-1.9688-54.406-0.20992-3.6904 2.5938-5.6875 2.5938-5.6875s-6.1815-15.348-3.5822-22.476c1.4018-3.8436 5.2919-7.1239 9.2812-8.0312 6.4152-1.4591 13.179 2.2065 19.043 5.1893z" fill="#f3ba8f"/>
    <path d="m239.25 45.094c0.40637 0.01615 0.81179 0.04748 1.2188 0.09375-0.38323 0.05172-0.77522 0.13209-1.1562 0.21875-3.9893 0.90734-7.8795 4.1877-9.2812 8.0312-2.5993 7.1272 3.5938 22.469 3.5938 22.469s-2.8037 1.9971-2.5938 5.6875c0.96106 16.895 3.3326 29.802 5.9246 51.81 0.0348 0.29573 0.11028 0.50955 0.25 0.6875-1.9875 0.64387-7.7397 3.4786-7.9246 1.9085-2.592-22.008-1.0077-37.511-1.9688-54.406-0.20992-3.6904 2.5938-5.6875 2.5938-5.6875s-6.1931-15.342-3.5938-22.469c1.4018-3.8436 5.2919-7.1239 9.2812-8.0312 1.2028-0.27358 2.4371-0.36097 3.6562-0.3125zm17.609 77.055 5.0161 7.914c-1.0985 0.53365-1.9554 1.2127-2.4062 2.0938l-5.1098-8.0703c0.84794-0.66232 1.7318-1.3377 2.5-1.9375zm17.799 5.4244c5.6537 0.11822 11.318 1.8428-1.7799 3.0306-5.59 0.82863-7.018 4.7086-7.784 6.1466-0.90178 1.6929 0.36944 6.7506 2.2812 6.9062 7.2186 0.58762 6.9659 9.7583 10.875 13.906 1.8028 1.913 6.3883 3.2904 9.6875 4.0625l-0.0625 0.71875s-10.409-1.6666-13.344-4.7812c-3.9091-4.1479-3.6564-13.319-10.875-13.906-1.9118-0.15563-3.183-5.2133-2.2812-6.9062 0.76596-1.438 2.194-5.318 7.784-6.1466 9.8905-1.036 7.8658-2.6378 3.0611-2.9681 0.82812-0.0493 1.6622-0.0787 2.4375-0.0625z" fill="#fff3e0" opacity=".5354"/>
    <g transform="matrix(-.89861 0 0 .89861 395.94 12.822)">
     <path transform="matrix(1.0648 0 0 1.0648 12.115 22.055)" d="m169.85 39.76c0 4.4719-3.6252 8.0971-8.0971 8.0971s-8.0971-3.6252-8.0971-8.0971 3.6252-8.0971 8.0971-8.0971 8.0971 3.6252 8.0971 8.0971z" color="#000000" fill="#c9844d"/>
     <path transform="translate(23.117 24.106)" d="m169.85 39.76c0 4.4719-3.6252 8.0971-8.0971 8.0971s-8.0971-3.6252-8.0971-8.0971 3.6252-8.0971 8.0971-8.0971 8.0971 3.6252 8.0971 8.0971z" color="#000000" fill="#fff"/>
     <path transform="matrix(.30909 0 0 .30909 137.67 52.451)" d="m169.85 39.76c0 4.4719-3.6252 8.0971-8.0971 8.0971s-8.0971-3.6252-8.0971-8.0971 3.6252-8.0971 8.0971-8.0971 8.0971 3.6252 8.0971 8.0971z" color="#000000" fill="#c9844d"/>
    </g>
    <g transform="matrix(-1 0 0 1 426.34 0)">
     <path d="m192.97 64.576c0 4.864-3.943 8.807-8.807 8.807s-8.807-3.943-8.807-8.807 3.943-8.807 8.807-8.807 8.807 3.943 8.807 8.807z" color="#000000" fill="#c9844d"/>
     <path transform="translate(23.117 24.106)" d="m169.85 39.76c0 4.4719-3.6252 8.0971-8.0971 8.0971s-8.0971-3.6252-8.0971-8.0971 3.6252-8.0971 8.0971-8.0971 8.0971 3.6252 8.0971 8.0971z" color="#000000" fill="#fff"/>
     <path d="m191.41 64.74c0 2.0649-1.674 3.7389-3.7389 3.7389s-3.7389-1.674-3.7389-3.7389 1.674-3.7389 3.7389-3.7389 3.7389 1.674 3.7389 3.7389z" color="#000000" fill="#c9844d"/>
    </g>
    <path d="m240.3 53.432c1.3322-1.6155 4.6665-4.2057 4.6665-4.2057l-8.042-1.6608-4.488 16.031-11.867-4.3805 1.9981 5.8991c3.3138-1.1098 7.1456-0.14725 10.752-0.08741 0 0 4.1102-8.1151 6.9806-11.596z" fill="#c9844d"/>
    <path d="m267.97 61.219c0.49538 0.06125 0.97914 0.22214 1.375 0.5 1.1937 0.83793 1.2265 2.3606 0.0937 3.4062-0.53999 0.49849-1.2117 0.82046-1.9375 0.90625 0.99292 0.11672 2.0918-0.21213 2.8438-0.90625 1.1328-1.0457 1.1-2.5683-0.0937-3.4062-0.62885-0.44142-1.4795-0.59825-2.2812-0.5zm5.8125 0.3125c-0.39274 2.1668-0.94275 3.1471-1.9375 4.4062-0.96736 1.2245-4.1137 2.5557-3.7188 2.8125 0 0 1.3764 2.1103 5.0312-1.9375 0.95726-1.015 1.9747-2.5662 1.375-4.25-0.12483-0.35048-0.38967-0.70452-0.75-1.0312zm-5.1562 41.812c-1.9312 4.1515-3.5449 7.5935-6.1875 10.781-2.4742 2.9846-5.3299 5.7392-8.4375 8.0938-5.3762 4.0734-11.154 8.0014-17.469 10.531-2.3437 0.93898-5.8265 2.3633-7.4062 1.6562 0.0585 0.53138 0.0927 1.0547 0.15625 1.5938 0.32333 2.7454 5.5922 0.14262 8.1875-0.75 4.4134-1.5179 10.864-6.1539 14.312-8.8125l5.875-5c2.1252-1.9212 4.1236-3.9587 5.7188-6.3125 2.4116-3.5586 3.8147-7.4333 5.25-11.781zm2.9688 22.75c-4.7021 0.0984-9.9744 0.28668-13.594 3.7812l1.3438 2.3125c2.465-2.0012 6.4081-3.4336 9.9375-3.9688 3.172-0.48093 9.6562-0.5625 9.6562-0.5625s-3.6992-1.6388-7.3438-1.5625z" fill="#d38d5f"/>
    <path d="m240.15 44.99s-1.8014-5.5577-7.5314-5.4457c-3.5626 0.06963-7.9534 1.502-8.8872 5.1961-0.95118 3.7629 2.3837 9.0141 2.3837 9.0141 3.8756-3.5844 8.211-6.7892 14.035-8.7645z" fill="#fc0"/>
    <path d="m227.87 40.5c-0.88172 0.82627-0.88555 1.2262-1.1951 2.5069-0.70866 2.9321 0.79211 6.6431 1.7812 8.6562-0.56461 0.48554-1.7925 1.584-2.3362 2.0868 0 0-3.3574-5.2371-2.4062-9 0.5294-2.0943 2.1854-3.4458 4.1562-4.25z" fill="#ffec00"/>
    <path d="m235.28 39.938c3.6405 1.2638 4.875 5.0625 4.875 5.0625-5.824 1.9753-10.156 5.1656-14.031 8.75 0 0-0.27136-0.36558-0.59375-0.96875 3.5955-3.5042 7.6708-6.6342 13.125-8.7188 0 0-0.9381-2.61-3.375-4.125z" fill="#e4a200"/>
    <path d="m227.02 39.15c0.86606-0.02722 1.3944 1.0434 1.429 1.109-0.83458 0.30285-1.6122 0.71255-2.2988 1.2139-0.13543-0.24198-0.45101-0.95726-0.33889-1.434 0.13978-0.59429 0.64965-0.8713 1.2086-0.88889z" fill="#ffec00"/>
    <path d="m301.24 91.742c0.85536-1.283 31.91-0.0555 48.085 19.412 11.532 13.88 20.157 30.359 24.724 48.706 5.1974 20.88 7.7917 65.886 7.7917 65.886s-44.946 8.0298-67.249 5.192c-4.4346-0.56425-9.1333-1.6355-12.687-4.3479-3.1345-2.3926-6.6506-9.7836-6.6506-9.7836s3.6171 9.0369 0.46963 10.773c-5.2347 2.8866-8.5075 1.806-12.037-0.10241-1.8297-0.98927-3.7866-3.1376-3.4614-5.192 3.898-24.625 1.2341-61.708-0.14519-61.708l3.8538 0.14522z" fill="#d8001a"/>
    <path d="m282.01 160.64c1.4134 3.1027 5.9635 38.131 2.2415 61.644-0.32521 2.0544 1.639 4.1982 3.4688 5.1875 1.3639 0.73744 2.6785 1.3472 4.0938 1.6562-3.1403 0.68804-5.5627-0.2709-8.125-1.6562-1.8297-0.98927-3.794-3.1331-3.4688-5.1875 3.722-23.513 1.4733-58.366 0.0625-61.469z" fill="#ff2020"/>
    <path d="m342.09 104.28c2.6025 1.9959 5.0445 4.2581 7.2188 6.875 11.532 13.88 20.183 30.371 24.75 48.719 5.1974 20.88 7.7812 65.875 7.7812 65.875s-44.947 8.0253-67.25 5.1875c-4.4346-0.56425-9.134-1.6313-12.688-4.3438-0.48635-0.37124-0.97858-0.90312-1.4688-1.4688 3.3181 1.9789 7.3533 2.8559 11.188 3.3438 22.303 2.8378 66.632-5.9292 66.632-5.9292s-1.9657-44.285-7.1632-65.165c-4.5672-18.347-13.218-34.807-24.75-48.688-1.3269-1.5971-2.7477-3.046-4.25-4.4062zm-53.841 67.792c1.6005 3.8565 13.328 52.389 7.9907 55.521-5.2347 2.8866-9.026 1.7834-12.556-0.125-0.89582-0.48434-1.7287-1.2347-2.3438-2.125 3.2958 1.6893 6.4865 2.4629 11.406-0.25 3.1474-1.7356-4.4974-53.021-4.4974-53.021z" fill="#a50022"/>
    <path d="m292.34 84.078 9.1479 5.7848 0.21875 79.393-21.627-8.6786z" fill="#fff"/>
    <path d="m300.7 89.35 0.79988 0.52469 1.8258 81.971-23.246-11.269 19.17 5.1731z" fill="#a50022"/>
   </g>
  </g>
  <g transform="translate(-11.189 9.7902)">
   <path d="m134.5 294.62c0 6.3792-24.352 11.551-54.393 11.551-30.04 0-54.393-5.1714-54.393-11.551 0-6.3792 24.352-11.551 54.393-11.551 30.04 0 54.393 5.1714 54.393 11.551z" color="#000000" fill="#4f5155" opacity=".81646"/>
   <path d="m43.637 293.4 39.497 3.6438s-1.5758-4.2153-2.8221-5.7515c-4.0114-4.9442-9.0811-8.4178-14.3-10.31-5.7961-2.1011-18.075-0.85959-18.075-0.85959z" fill="#4d4d4d"/>
   <path d="m71.688 283.72-10.032 11.34 21.469 1.97s-1.5661-4.2138-2.8125-5.75c-2.5328-3.1218-5.4772-5.6413-8.625-7.5625z" color="#000000" fill="#808080"/>
   <path d="m47.844 282.69c-0.25059 0-0.50494 0.01-0.75 0.0312l-3.4688 10.688 12 1.0938c0.44556-1.0299 0.6875-2.1502 0.6875-3.3438 0-4.6767-3.792-8.4688-8.4688-8.4688z" color="#000000" fill="#353637"/>
   <path d="m49.594 280c-0.88575 0.0657-1.6562 0.125-1.6562 0.125l-4.7496 14.243 39.937 2.6635s-0.28684-0.77211-0.6875-1.7188l-35.813-4.193z" fill="#2d2d2b"/>
   <path d="m83.507 293.83 34.06 1.5799s-1.5916-3.9103-2.7738-5.3052c-3.8051-4.4894-8.4958-7.5422-13.253-9.0946-5.2831-1.724-16.232 0-16.232 0z" fill="#4d4d4d"/>
   <path d="m110.47 285.91-7.7812 8.8125 14.875 0.6875s-1.599-3.9176-2.7812-5.3125c-1.3411-1.5822-2.7873-2.9649-4.3125-4.1875z" color="#000000" fill="#808080"/>
   <path d="m86.766 283.61c-0.22165 0.0242-0.44564 0.0578-0.66035 0.10019l-2.0342 9.7886 10.72-0.19345c0.29446-0.95404 0.40008-1.9683 0.28462-3.024-0.45242-4.1365-4.1733-7.1237-8.3098-6.6713z" color="#000000" fill="#353637"/>
   <path d="m87.094 280.78c-1.033 0.13-1.57 0.21-1.656 0.22l-2.1123 13.424 34.237 0.98186s-0.31985-0.76019-0.5625-1.3125l-30.775-2.6241 0.9941-10.688c-0.03561 4e-3 -0.09022-4e-3 -0.125 0z" fill="#2d2d2b"/>
   <path d="m52.415 221.54c1.3476 20.502-2.9356 40.199-5.9338 60.079l20.521-0.49c14.102-19.61 23.34-39.83 32.265-60.08z" fill="#a00"/>
   <path d="m99.02 220.06c-2.3548 21.543-8.2689 42.07-15.205 62.305l18.049-1.4834c17.889-20.168 29.878-42.761 42.589-65.519z" fill="#a00"/>
   <path d="m99.281 221.06-7.9062 0.0937c-8.9129 20.225-18.169 40.39-32.25 59.969l-12.625 0.32c-0.0095 0.0627-0.02179 0.12478-0.03125 0.1875l20.531-0.51c14.102-19.608 23.356-39.807 32.281-60.062z" fill="#d40000"/>
   <path d="m144.45 215.38-7.2948 0.84375c-12.57 22.47-25.49 44.74-43.16 64.66l-9.9688 0.8125c-0.07749 0.2269-0.141 0.46068-0.21875 0.6875l18.062-1.5c17.889-20.168 29.866-42.743 42.576-65.5z" fill="#d40000"/>
   <path d="m54.781 221.5-2.375 0.0312c1.3476 20.502-2.9393 40.213-5.9375 60.094l20.532-0.5c0.41191-0.57274 0.81503-1.145 1.2188-1.7188l-18.857-0.4c2.914-19.32 6.428-37.61 5.419-57.5z" fill="#7d0000"/>
   <path d="m101.09 219.84-2.0625 0.21875c-2.3548 21.543-8.2823 42.078-15.219 62.312l18.062-1.5c0.49272-0.5555 0.95205-1.1284 1.4375-1.6875l-16.345 0.65079c6.7716-19.754 11.663-39.01 14.126-59.995z" fill="#7d0000"/>
   <path d="m125.1 91.742c-0.85536-1.283-31.91-0.0555-48.085 19.412-11.532 13.88-20.157 30.359-24.724 48.706-5.1974 20.88-7.7917 65.886-7.7917 65.886s44.946 8.0298 67.249 5.192c4.4346-0.56425 9.1333-1.6355 12.687-4.3479 3.1345-2.3926 6.6506-9.7836 6.6506-9.7836s-3.6171 9.0369-0.46963 10.773c5.2347 2.8866 8.5075 1.806 12.037-0.10241 1.8297-0.98927 3.7866-3.1376 3.4614-5.192-3.898-24.625-1.2341-61.708 0.14519-61.708l-3.8538 0.14522z" fill="#fc0"/>
   <path d="m144.34 160.64c-1.4134 3.1027-5.9635 38.131-2.2415 61.644 0.32521 2.0544-1.639 4.1982-3.4688 5.1875-1.3639 0.73744-2.6785 1.3472-4.0938 1.6562 3.1403 0.68804 5.5627-0.2709 8.125-1.6562 1.8297-0.98927 3.794-3.1331 3.4688-5.1875-3.722-23.513-1.4733-58.366-0.0625-61.469z" fill="#ffec00"/>
   <path d="m84.25 104.28c-2.6025 1.9959-5.0445 4.2581-7.2188 6.875-11.532 13.88-20.183 30.371-24.75 48.719-5.197 20.88-7.781 65.88-7.781 65.88s44.947 8.0253 67.25 5.1875c4.4346-0.56425 9.134-1.6313 12.688-4.3438 0.48635-0.37124 0.97858-0.90312 1.4688-1.4688-3.3181 1.9789-7.3533 2.8559-11.188 3.3438-22.303 2.8378-66.632-5.9292-66.632-5.9292s1.9657-44.285 7.1632-65.165c4.5672-18.347 13.218-34.807 24.75-48.688 1.3269-1.5971 2.7477-3.046 4.25-4.4062zm53.841 67.792c-1.6005 3.8565-13.328 52.389-7.9907 55.521 5.2347 2.8866 9.026 1.7834 12.556-0.125 0.89582-0.48434 1.8833-1.2347 2.4983-2.125-3.2958 1.6893-6.641 2.4629-11.561-0.25-3.1474-1.7356 4.4974-53.021 4.4974-53.021z" fill="#e4a200"/>
   <path d="m171.7 50.589c-3.29 1.671-8.64 6.911-8.64 6.911s-10.22 2.1711-11.25 5.0625c-1.0298 2.8914 2.7188 5.4375 2.7188 5.4375s-9.6333 5.9275-13.719 9.7812c-3.5408 3.3399-9.1562 11.375-9.1562 11.375l6.8125 73.188s10.413-1.6743 13.348-4.7889c3.9091-4.1479 3.6495-13.303 10.868-13.89 1.9118-0.15563 3.1754-5.2183 2.2736-6.9113-0.76596-1.438-2.4273-4.4558-8.0173-5.2844-19.11-2.0018 6.592-5.8533 9.9376 0.68463l4.9679-7.9007c4.5854 3.5803 10.698 8.6334 17.06 10.865 2.5804 0.90527 7.8329 3.6273 8.1562 0.8819 2.592-22.008 1.0077-37.511 1.9688-54.406 0.20992-3.6904-2.5938-5.6875-2.5938-5.6875s6.1815-15.348 3.5822-22.476c-1.4018-3.8436-5.2919-7.1239-9.2812-8.0312-6.4152-1.4591-13.179 2.2065-19.043 5.1893z" fill="#f3ba8f"/>
   <path d="m187.09 45.094c-0.40637 0.01615-0.81179 0.04748-1.2188 0.09375 0.38323 0.05172 0.77522 0.13209 1.1562 0.21875 3.9893 0.90734 9.4866 4.5585 10.888 8.4021 2.5993 7.1272-5.2008 22.098-5.2008 22.098s3.6072 1.9353 3.3973 5.6257c-0.96106 16.895-2.5291 31.656-5.1211 53.665-0.0348 0.29573-1.3465 0.13869-0.25 0.6875 1.9875 0.64387 6.1326 1.6861 6.3175 0.11603 2.592-22.008 1.0077-37.511 1.9688-54.406 0.20992-3.6904-2.5938-5.6875-2.5938-5.6875s6.1931-15.342 3.5938-22.469c-1.4018-3.8436-5.2919-7.1239-9.2812-8.0312-1.2028-0.27358-2.4371-0.36097-3.6562-0.3125zm-17.609 77.055-5.0161 7.914c1.0985 0.53365 1.9554 1.2127 2.4062 2.0938l5.1098-8.0703c-0.84794-0.66232-1.7318-1.3377-2.5-1.9375zm-17.92 6.35c-5.6537 0.11822-9.0932 1.8428 1.6562 2.9688 5.59 0.82863 7.2653 3.8433 8.0312 5.2812 0.90178 1.6929-0.36944 6.7506-2.2812 6.9062-7.2186 0.58762-6.9659 9.7583-10.875 13.906-1.8028 1.913-6.3883 3.2904-9.6875 4.0625l0.0625 0.71875s10.409-1.6666 13.344-4.7812c3.9091-4.1479 3.6564-13.319 10.875-13.906 1.9118-0.15563 3.183-5.2133 2.2812-6.9062-0.76596-1.438-2.4412-4.4526-8.0312-5.2812-9.8905-1.036-7.7422-2.576-2.9375-2.9062-0.82812-0.0493-1.6622-0.0787-2.4375-0.0625z" fill="#fff7e9" opacity=".5354"/>
   <g transform="matrix(.89861 0 0 .89861 30.404 12.822)">
    <path transform="matrix(1.0648 0 0 1.0648 12.115 22.055)" d="m169.85 39.76c0 4.4719-3.6252 8.0971-8.0971 8.0971s-8.0971-3.6252-8.0971-8.0971 3.6252-8.0971 8.0971-8.0971 8.0971 3.6252 8.0971 8.0971z" color="#000000" fill="#c9844d"/>
    <path transform="translate(23.117 24.106)" d="m169.85 39.76c0 4.4719-3.6252 8.0971-8.0971 8.0971s-8.0971-3.6252-8.0971-8.0971 3.6252-8.0971 8.0971-8.0971 8.0971 3.6252 8.0971 8.0971z" color="#000000" fill="#fff"/>
    <path transform="matrix(.30909 0 0 .30909 137.67 52.451)" d="m169.85 39.76c0 4.4719-3.6252 8.0971-8.0971 8.0971s-8.0971-3.6252-8.0971-8.0971 3.6252-8.0971 8.0971-8.0971 8.0971 3.6252 8.0971 8.0971z" color="#000000" fill="#c9844d"/>
   </g>
   <path d="m192.97 64.699c0 4.9323-3.9984 8.9306-8.9306 8.9306s-8.9306-3.9984-8.9306-8.9306c0-4.9323 3.9984-8.9306 8.9306-8.9306s8.9306 3.9984 8.9306 8.9306z" color="#000000" fill="#c9844d"/>
   <path transform="translate(23.117 24.106)" d="m169.85 39.76c0 4.4719-3.6252 8.0971-8.0971 8.0971s-8.0971-3.6252-8.0971-8.0971 3.6252-8.0971 8.0971-8.0971 8.0971 3.6252 8.0971 8.0971z" color="#000000" fill="#fff"/>
   <path d="m190.67 65.729c0 1.6553-1.3419 2.9972-2.9972 2.9972s-2.9972-1.3419-2.9972-2.9972 1.3419-2.9972 2.9972-2.9972 2.9972 1.3419 2.9972 2.9972z" color="#000000" fill="#c9844d"/>
   <path d="m181.75 52.44 8.1656-3.0207c-0.23902 4.2724 1.998 9.1628 4.3644 13.435 3.4353-0.57374 6.4997-1.6806 9.935-3.886l-1.8357 6.8456-9.4768-0.16861c-3.3492-4.5852-7.1542-9.2071-11.153-13.206z" fill="#c9844d"/>
   <path d="m158.34 61.25c-0.39544 0.01308-0.80829 0.08721-1.1562 0.25-1.3211 0.61803-1.5903 2.1174-0.65625 3.3438 0.62003 0.81408 1.6269 1.2864 2.625 1.3438-0.69986-0.21044-1.336-0.60286-1.7812-1.1875-0.93406-1.2264-0.63356-2.7257 0.6875-3.3438 0.43807-0.20494 0.97026-0.27565 1.4688-0.25-0.38626-0.11795-0.79206-0.16933-1.1875-0.15625zm-5.7812 0.28125c-0.36033 0.32673-0.62517 0.68077-0.75 1.0312-0.59969 1.6838 0.41774 3.235 1.375 4.25 3.6548 4.0478 5.0312 1.9375 5.0312 1.9375 0.39491-0.25681-2.7514-1.588-3.7188-2.8125-0.99475-1.2591-1.5448-2.2395-1.9375-4.4062zm5.1562 41.812c1.4353 4.3479 1.7458 7.0863 5.25 11.781 3.2591 4.3583 6.528 7.086 10.375 10.312 4.3753 3.4726 9.7955 7.8333 15.531 9.8125 2.5944 0.89522 7.8642 3.4954 8.1875 0.75 0.0635-0.53907 0.0977-1.0624 0.15625-1.5938-1.5797 0.70702-5.0626-0.71727-7.4062-1.6562-6.3144-2.5298-12.093-6.4579-17.469-10.531-3.1076-2.3545-5.9633-5.1091-8.4375-8.0938-2.6426-3.1878-4.2562-6.6298-6.1875-10.781zm0.8125 23.906c-7.1727-0.17983-11.062 1.8125-11.062 1.8125s5.226-0.36523 7.8438-0.21875c4.3236 0.24193 9.0994 0.9211 11.562 3.3125l1.375-2.1875c-2.7051-2.0518-6.5124-2.6115-9.7188-2.7188z" fill="#d38d5f"/>
   <path d="m186.2 44.99s1.8014-5.5577 7.5314-5.4457c3.5626 0.06963 7.9534 1.502 8.8872 5.1961 0.95118 3.7629-2.3837 9.0141-2.3837 9.0141-3.8756-3.5844-8.211-6.7892-14.035-8.7645z" fill="#be0000"/>
   <path d="m198.47 40.5c0.88172 0.82627 0.88555 1.2262 1.1951 2.5069 0.70866 2.9321-0.79211 6.6431-1.7812 8.6562 0.56461 0.48554 1.7925 1.584 2.3362 2.0868 0 0 3.3574-5.2371 2.4062-9-0.5294-2.0943-2.1854-3.4458-4.1562-4.25z" fill="#f00"/>
   <path d="m191.06 39.938c-3.6405 1.2638-4.875 5.0625-4.875 5.0625 5.824 1.9753 10.156 5.1656 14.031 8.75 0 0 0.27136-0.36558 0.59375-0.96875-3.5955-3.5042-7.6708-6.6342-13.125-8.7188 0 0 0.9381-2.61 3.375-4.125z" fill="#7d0000"/>
   <path d="m199.25 39.352c-0.86631-0.01731-1.3411 0.84023-1.375 0.90625 0.83799 0.29328 1.6202 0.69405 2.3125 1.1875 0.13265-0.24351 0.39882-0.74334 0.28125-1.2188-0.14657-0.59265-0.65958-0.86381-1.2188-0.875z" fill="#f00"/>
   <path d="m134 84.078-9.1479 5.7848-0.21875 79.393 21.627-8.6786z" fill="#fff"/>
   <path d="m125.64 89.35-0.79988 0.52469-1.8258 81.971 23.246-11.269-19.17 5.1731z" fill="#e4a200"/>
  </g>
  <g transform="translate(2.041e-6)">
   <g transform="translate(-10.833 9.7902)">
    <path d="m150.13 203.67h11.428v93.357h-11.428z" color="#000000" fill="#a05a2c"/>
    <path d="m158.93 203.67h2.631v93.357h-2.631z" color="#000000" fill="#b26431"/>
    <path d="m150.13 287.98h11.428l2 9.0478h-15.428z" color="#000000" fill="#784421"/>
    <path transform="translate(10.833 -9.7902)" d="m148.09 297.78v9.0312h4.625l-2-9.0312h-2.625z" color="#000000" fill="#874d26"/>
   </g>
   <path d="m240.65 213.46h11.428v93.357h-11.428z" color="#000000" fill="#a05a2c"/>
   <path d="m240.65 213.46h2.631v93.357h-2.631z" color="#000000" fill="#b26431"/>
   <path d="m240.65 297.77h11.428l2 9.0478h-15.428z" color="#000000" fill="#784421"/>
   <path transform="translate(-2.041e-6)" d="m240.66 297.78-2 9.0312h4.625v-9.0312h-2.625z" color="#000000" fill="#874d26"/>
   <g transform="translate(-.0069698)">
    <g transform="matrix(.8372 0 0 .59853 25.174 288.94)">
     <path transform="matrix(1.1945 0 0 1.6708 -30.061 -482.76)" d="m166.5 196.81-55.781 8.2188h-0.0625v11.25h170.06v-11.25h-0.0625l-55.812-8.2188h-58.344z" color="#000000" fill="#a05a2c"/>
     <path d="m102.13-138.15v16.774h49.67v-16.774zm153.42 0v16.774h49.707v-16.774z" color="#000000" fill="#c87137" opacity=".45133"/>
     <path d="m102.11-138.82v0.96151h203.12v-0.96151h-101.56z" color="#000000" fill="#c88746"/>
     <path d="m102.11-124.43v3.0518h203.12v-3.0518h-101.56z" color="#000000" fill="#784421"/>
     <path d="m168.67-153.25-52.875 11.812h175.75l-52.875-11.812h-70z" color="#000000" fill="#fff"/>
     <g transform="translate(0 -40.906)">
      <path d="m169.09-112.34-2.09 0.46h14.5l1.2812-0.46875h-13.688zm23.188 0-0.71875 0.46875h5.9688l0.0937-0.125 0.28125-0.34375h-5.625zm11.625 0 0.0312 0.46875h5.1562l-0.0312-0.0625-0.28125-0.40625h-4.875zm11.875 0 0.75 0.46875h8.2812l-1.25-0.46875h-7.7812zm-33.719 0.625-1.5 0.5625h9.0938l0.875-0.5625h-8.4688zm16.031 0-0.40625 0.5625h5.6875v-0.56245h-5.2812zm11.812 0 0.40625 0.5625h6.5625l-0.875-0.5625h-6.0938zm16.344 0 1.5312 0.5625h15.75l-2.5-0.5625h-14.781zm-63.312 0.75-3.7812 0.84375h17.531l2.3125-0.84375h-16.062zm27.219 0-1.3125 0.84375h7.4062l0.625-0.84375h-6.7188zm13.781 0 0.0312 0.84375h6.375l-0.59375-0.84375h-5.8125zm14.031 0 1.3438 0.84375h10.219l-2.2812-0.84375h-9.2812zm-40.781 1.0625-2.7812 1.0312h11.625l1.625-1.0312h-10.469zm19.625 0-0.75 1.0312h7.2812v-1.0312h-6.5312zm14.438 0 0.75 1.0312h8.4062l-1.5938-1.0312h-7.5625zm19.969 0 2.8438 1.0312h19.688l-4.625-1.0312h-17.906zm-78.906 1.3125-6.0312 1.3438h22.5l3.6875-1.3438h-20.156zm34.156 0-2.0938 1.3438h9.7188l1-1.3438h-8.625zm17.5 0 0.0312 1.3438h8.4062l-0.9375-1.3438h-7.5zm17.781 0 2.125 1.3438h13.406l-3.625-1.3438h-11.906zm-52.625 1.6875-4.125 1.5312h15.438l2.4375-1.5312h-13.75zm25.531 0-1.0938 1.5312h9.7188l0.0312-1.5312h-8.6562zm18.812 0 1.125 1.5312h11.25l-2.375-1.5312h-10zm26 0 4.1875 1.5312h25.75l-6.8438-1.5312h-23.094zm-103.53 1.9688-8.0625 1.8125h29.594l4.9688-1.8125h-26.5zm44.875 0-2.8125 1.8125h13.062l1.3438-1.8125h-11.594zm23.219 0 0.0312 1.8125h11.312l-1.3125-1.8125h-10.031zm23.531 0 2.875 1.8125h17.938l-4.875-1.8125h-15.938zm-69.875 2.2812-5.7188 2.125h20.781l3.375-2.125h-18.438zm33.938 0-1.5312 2.125h13.125l0.0312-2.125h-11.625zm25 0 1.5625 2.125h15.156l-3.2812-2.125h-13.438zm34.5 0 5.8438 2.125h34.125l-9.5-2.125h-30.469z" color="#000000" fill="#666"/>
      <path d="m183.75-112.34-1.25 0.46875h8.2812l0.75-0.46875h-7.7812zm14.781 0-0.28125 0.40625v0.0625h5.1562v-0.46875h-4.875zm10.875 0 0.28125 0.34375 0.0937 0.125h5.9688l-0.71875-0.46875h-5.625zm15.125 0 1.2812 0.46875h14.5l-2.0938-0.46875h-13.688zm-58.25 0.625-2.5 0.5625h15.75l1.5312-0.5625h-14.781zm25.031 0-0.875 0.5625h6.5625l0.40625-0.5625h-6.0938zm12.625 0v0.56245h5.6875l-0.40625-0.5625h-5.2812zm12.844 0 0.875 0.5625h9.0938l-1.5-0.5625h-8.4688zm-36.719 0.75-2.2812 0.84375h10.219l1.3438-0.84375h-9.2812zm17.5 0-0.59375 0.84375h6.375l0.0312-0.84375h-5.8125zm12.875 0 0.625 0.84375h7.4062l-1.3125-0.84375h-6.7188zm17.875 0 2.3125 0.84375h17.531l-3.7812-0.84375h-16.062zm-70.125 1.0625-4.625 1.0312h19.688l2.8438-1.0312h-17.906zm30.312 0-1.5938 1.0312h8.4062l0.75-1.0312h-7.5625zm15.469 0v1.0312h7.2812l-0.75-1.0312h-6.5312zm15.688 0 1.625 1.0312h11.625l-2.7812-1.0312h-10.469zm-46 1.3125-3.625 1.3438h13.406l2.125-1.3438h-11.906zm22.188 0-0.9375 1.3438h8.4062l0.0312-1.3438h-7.5zm16.375 0 1 1.3438h9.7188l-2.0938-1.3438h-8.625zm22.625 0 3.6875 1.3438h22.5l-6.0312-1.3438h-20.156zm-90.094 1.6875-6.8438 1.5312h25.75l4.1875-1.5312h-23.094zm39.094 0-2.375 1.5312h11.25l1.125-1.5312h-10zm20.156 0 0.0312 1.5312h9.7188l-1.0938-1.5312h-8.6562zm20.438 0 2.4375 1.5312h15.438l-4.125-1.5312h-13.75zm-60.625 1.9688-4.875 1.8125h17.938l2.875-1.8125h-15.938zm29.438 0-1.3125 1.8125h11.312l0.0312-1.8125h-10.031zm21.656 0 1.3438 1.8125h13.062l-2.8125-1.8125h-11.594zm29.969 0 4.9688 1.8125h29.625l-8.0938-1.8125h-26.5zm-119.12 2.2812-9.5 2.125h34.094l5.8438-2.125h-30.438zm51.5 0-3.2812 2.125h15.156l1.5625-2.125h-13.438zm26.812 0 0.0312 2.125h13.125l-1.5312-2.125h-11.625zm27.125 0 3.375 2.125h20.781l-5.7188-2.125h-18.438z" color="#000000" fill="#f9f9f9"/>
     </g>
    </g>
    <path d="m160.58 172.02-0.26793 0.97283h-0.91099v0.91558l0.99136 0.65809v0.57224c-0.62967 0.46508-0.98571 0.87432-1.0985 1.2017-0.14523 0.29277-0.21436 0.8394-0.21436 1.6309-0.75806-0.6536-1.5728-0.97283-2.4114-0.97283-0.61299 0-1.1612 0.17063-1.6612 0.51503-0.88718 0.60237-1.3397 1.4438-1.3397 2.5465 0 0.70644 0.30864 1.5195 0.93778 2.432 0.5 0.72247 0.8407 1.3097 1.0182 1.774 0.23638 0.70234 0.37409 13.123 0.42871 14.694h9.9673c0.0546-1.5707 0.19232-13.991 0.42868-14.694 0.17748-0.46429 0.51818-1.0515 1.0182-1.774 0.62915-0.91256 0.93778-1.7256 0.93778-2.432 0-1.1027-0.45251-1.9441-1.3397-2.5465-0.5-0.3444-1.0482-0.51503-1.6612-0.51503-0.83864 0-1.6534 0.31923-2.4114 0.97283 0-0.79149-0.0691-1.3381-0.21435-1.6309-0.11278-0.3274-0.46887-0.73664-1.0986-1.2017v-0.57224l0.99138-0.65809v-0.91558h-0.91101l-0.26792-0.97283h-0.45549z" fill="url(#r)"/>
    <path d="m160.57 172.04v0.0644l0.23092 0.901h0.92369v0.90099l-0.98966 0.67575v0.54704c0.62969 0.46508 0.97586 0.89537 1.0886 1.2228 0.14532 0.29277 0.28369 1.4286 0.28369 2.2201 0.29481-0.25417 0.58067-0.42528 0.8907-0.57921-0.0289-0.46005 0.0239-1.2145-0.21771-1.6409-0.11276-0.32741-0.45894-0.7577-1.0886-1.2228v-0.54704l0.98966-0.67575v-0.90099h-0.92368l-0.26391-0.96536h-0.46185zm-4.4205 4.9876c0.73483 0.0527 2.4004 0.92065 2.9307 1.5428 0-0.22966 0.0212-0.391 0.033-0.57921-0.78517-0.89867-1.9613-1.0647-2.9637-0.96356zm9.2698-0.0321c-0.15394 0-0.30971 0.0106-0.46185 0.0321 0.41185 0.0699 0.79787 0.23694 1.1546 0.48267 0.88716 0.60237 1.3525 1.4394 1.3525 2.5421 0 0.70645-0.32753 1.533-0.95667 2.4456-0.49999 0.72246-0.84517 1.3055-1.0226 1.7698-0.23636 0.70234-0.37428 13.135-0.42886 14.706h0.95667c0.0546-1.5707 0.19251-14.003 0.42886-14.706 0.17749-0.46428 0.52266-1.0474 1.0226-1.7698 0.62914-0.91256 0.95668-1.7391 0.95668-2.4456 0-1.1027-0.46537-1.9397-1.3525-2.5421-0.5-0.3444-1.0364-0.51485-1.6494-0.51485z" fill="#b3b3b3"/>
    <path transform="matrix(.54639 0 0 .54639 -105.74 -49.875)" d="m487.44 406.12-0.48359 1.7817h0.28125l0.48359-1.7817zm-2.1562 1.7812v1.6562l1.8125 1.2188v1.0312c0.11819-0.0941 0.21268-0.18444 0.34375-0.28125v-1.0312l-1.8125-1.2188v-1.375zm1.4062 4.25c-0.88465 0.71376-1.4699 1.3223-1.649 1.8418-0.23047 0.4646-0.375 1.1962-0.375 4.1169 0.10895 0.0855 0.26001 0.22341 0.36774 0.31629 0-1.4486 0.14045-4.1454 0.40625-4.6813 0.15488-0.44941 0.57087-0.99591 1.25-1.5938zm-9.69 4.19c-1.4578 1.0881-2.2188 2.5887-2.2188 4.5 0 1.2929 0.56729 2.7673 1.7188 4.4375 0.91511 1.3223 1.5502 2.4002 1.875 3.25 0.43263 1.2854 0.68128 24 0.78125 26.875h18.219c1e-3 -0.0288-1e-3 -0.24851 0-0.28125h-17.875c-0.1-2.8747-0.34862-25.59-0.78125-26.875-0.32479-0.84975-0.95989-1.9277-1.875-3.25-1.1515-1.6702-1.7188-3.1446-1.7188-4.4375 0-1.7496 0.65136-3.1614 1.875-4.2188z" fill="#333"/>
    <g transform="translate(0 -.77757)">
     <path d="m177.04 177.02-0.5446 0.61044v1.9778l1.4977 1.6848v4.253l-0.34037 12.679h5.905l-0.34037-12.679v-4.253l1.4977-1.6848v-1.9778l-0.54461-0.61044h-1.3842l-0.31768 0.39068v0.53721h-0.74884v-0.53721l-0.31769-0.39068h-1.5935l-0.31769 0.39068v0.53721h-0.74884v-0.53721l-0.34037-0.39068z" fill="url(#s)"/>
     <path d="m178.03 177.03 0.3125 0.3699v0.53803h0.40625v-0.53803l-0.34375-0.3699zm3 0 0.3125 0.3699v0.53803h0.375v-0.53803l-0.3125-0.3699zm2.75 0 0.5625 0.60529v1.984l-1.5 1.6813v4.237l0.34375 12.694h0.375l-0.34375-12.694v-4.237l1.5-1.6813v-1.984l-0.53125-0.60529z" fill="#b3b3b3"/>
     <path transform="matrix(.54639 0 0 .54639 -105.74 -49.097)" d="m517.56 413.84-1 1.125v3.5938l2.75 3.0938v7.7812l-0.625 23.219h10.812v-0.28125h-10.531l0.625-23.219v-7.7812l-2.75-3.0938v-3.5938l0.75-0.84375zm5.0625 0-0.59375 0.71875v0.98581h0.28125v-1.2671l0.375-0.4375zm5.4375 0-0.5625 0.71875v0.98581h0.28125v-1.2671l0.34375-0.4375z" fill="#333"/>
    </g>
    <path d="m137.77 178.72-0.84474 0.79926v2.5896l2.323 2.206v5.5685l-0.52796 13.754h9.1593l-0.52795-13.754v-5.5685l2.3231-2.206v-2.5896l-0.84477-0.79926h-2.1471l-0.49275 0.51152v0.70337h-1.1616v-0.70337l-0.49278-0.51152h-2.4717l-0.49277 0.51152v0.70337h-1.1616v-0.70337l-0.52795-0.51152z" fill="url(#t)"/>
    <path d="m138.83 178.72 0.5 0.5v0.71875h1.0625v-0.71875l-0.53125-0.5h-1.0312zm4.625 0 0.5 0.5v0.71875h1.0625v-0.71875l-0.5-0.5h-1.0625zm4.3125 0 0.84375 0.8125v2.5625l-2.3125 2.2188v5.5625l0.5 13.75h1.0625l-0.53125-13.75v-5.5625l2.3438-2.2188v-2.5625l-0.84375-0.8125h-1.0625z" fill="#b3b3b3"/>
    <path transform="matrix(.54639 0 0 .54639 -105.74 -49.875)" d="m445.69 418.38-1.5625 1.4688v4.7188l4.25 4.0625v10.188l-0.96875 25.156h16.781v-0.28125h-16.406l0.9375-25.156v-10.188l-4.25-4.0625v-4.7188l1.25-1.1875zm7.8438 0-0.90625 0.9375v1.3204h0.375v-1.6017l0.625-0.65625zm8.4688 0-0.90625 0.9375v1.3204h0.34375v-1.6017l0.625-0.65625z" fill="#333"/>
    <path d="m157.7 180.74c0.03 0 0.10606-7e-3 0.22795-0.0222 0.68563 0 1.4154 0.22221 2.1911 0.66664 0.0901 0.0592 0.13608 0.0887 0.13608 0.0887 0.44175-0.69622 0.77571-1.0443 1.0037-1.0443 0.4877 0.26663 0.80577 0.55547 0.95773 0.86667 0.0759 0.14802 0.19084 0.45921 0.34281 0.93325 0.12198-0.0297 0.24385-0.0445 0.36578-0.0445 1.2776 0 2.4933 0.76286 3.6489 2.2893 1.3836 1.7626 2.0763 4.162 2.0763 7.1999 0 0.6799-0.0299 11.419-0.0919 11.966h-9.6268c0.0318-0.99317 0.40287-12.056 1.1185-12.946 0.076-0.11709 0.18199-0.25132 0.31984-0.39933 0.5619-0.69537 0.90471-1.229 1.0266-1.599 0.06-0.19279 0.10606-0.39245 0.13607-0.60073-1.0037 0.38557-1.7564 0.95531-2.2583 1.7109-0.22794 0.37006-0.47887 0.75563-0.75276 1.155-0.0759 0.1188-0.19084 0.179-0.3428 0.179-0.37991 0-0.569-0.23065-0.569-0.69021-0.15372 0.19277-0.32865 0.28916-0.52479 0.28916 0 0-0.15197-0.0361-0.45767-0.11013-0.6538-0.16351-1.1168-0.44408-1.3906-0.84513-0.0919-0.13252-0.19085-0.31152-0.29687-0.53358 0.10606-0.63685 0.63085-1.9037 1.5744-3.7988 0.68385-1.3632 1.1097-2.3411 1.2776-2.9337 0.0141-0.13321 0.023-0.32582 0.023-0.57764 0-0.20742-0.0388-0.60742-0.11485-1.2" fill="url(#u)"/>
    <path d="m161.25 180.44c-0.16045 0-0.39015 0.2176-0.65625 0.5625 0.0833 0.0954 0.16991 0.18122 0.21875 0.28125 0.0759 0.14802 0.19178 0.46346 0.34375 0.9375 0.12198-0.0297 0.22182-0.0312 0.34375-0.0312 1.2776 0 2.5006 0.75485 3.6562 2.2812 1.3836 1.7626 2.0625 4.1495 2.0625 7.1875 0 0.6799-5e-4 11.421-0.0625 11.969h1.4062c0.062-0.54735 0.0937-11.289 0.0937-11.969 0-3.038-0.71017-5.4249-2.0938-7.1875-1.1556-1.5264-2.3787-2.2812-3.6562-2.2812-0.12193 0-0.22177 2e-3 -0.34375 0.0312-0.15197-0.47404-0.26785-0.78948-0.34375-0.9375-0.15196-0.3112-0.48105-0.57712-0.96875-0.84375zm-3.3125 0.28125c-0.12189 0.0152-0.22 0.0312-0.25 0.0312 0.0121 0.0942 0.0211 0.10306 0.0312 0.1875 0.31692 0.10895 1.7221 0.7461 2.0559 0.93734 0.0901 0.0592 0.15625 0.0937 0.15625 0.0937 0.14337-0.22596 0.25428-0.34738 0.375-0.5-0.72128-0.49928-1.8921-0.79982-2.3684-0.74984z" fill="#fff"/>
    <path transform="matrix(.54639 0 0 .54639 -105.74 -49.875)" d="m488.59 421.5c-0.4456 0.051-1.1199 0.78849-1.7369 1.8545 0.12061 0.079 0.20703 0.14062 0.20703 0.14062 0.50882-0.80192 1.1765-1.6979 1.5298-1.9951zm-6.0312 0.53125c-0.22308 0.0278-0.35134 0.0312-0.40625 0.0312 0.13919 1.0846 0.1875 1.8079 0.1875 2.1875 0 0.46088-5e-3 0.8187-0.0312 1.0625-0.3072 1.0846-1.0922 2.88-2.3438 5.375-1.727 3.4684-2.6809 5.8032-2.875 6.9688 0.19404 0.40642 0.3943 0.72621 0.5625 0.96875 0.50126 0.73401 1.3347 1.232 2.5312 1.5312 0.5595 0.13549 0.84375 0.21875 0.84375 0.21875 0.26923 0 0.52444-0.11404 0.75-0.3125-0.0849 0.022-0.16026 0.0312-0.25 0.0312 0 0-0.28425-0.0833-0.84375-0.21875-1.1966-0.29926-2.0612-0.79724-2.5625-1.5312-0.1682-0.24254-0.33721-0.56233-0.53125-0.96875 0.19411-1.1656 1.148-3.5004 2.875-6.9688 1.2516-2.495 2.0366-4.2904 2.3438-5.375 0.0258-0.2438 0.0312-0.60162 0.0312-1.0625 0-0.34507-0.041-1.0099-0.15625-1.9375-0.0405-8.4e-4 -0.0847 0-0.125 0zm7.0938 13.219c-0.5755 0.22108-1.0772 0.49391-1.5625 0.78125 0.34218-0.17586 0.68062-0.3533 1.0625-0.5-0.0549 0.3812-0.14019 0.7409-0.25 1.0938-0.22316 0.67731-0.8466 1.6648-1.875 2.9375-0.25229 0.27089-0.45465 0.50445-0.59375 0.71875-1.3098 1.6286-1.973 21.87-2.0312 23.688h17.625c2e-3 -0.0193-2e-3 -0.24847 0-0.28125h-17.125c0.0582-1.8177 0.72144-22.059 2.0312-23.688 0.1391-0.2143 0.34146-0.44786 0.59375-0.71875 1.0284-1.2727 1.6518-2.2602 1.875-2.9375 0.10981-0.35285 0.19508-0.71255 0.25-1.0938zm-7.1875 4.3125c-0.15122 0.18964-0.2951 0.31854-0.46875 0.40625 0.0388 0.74405 0.37735 1.125 1.0312 1.125 0.27812 0 0.48609-0.0951 0.625-0.3125-0.0466 7e-3 -0.0738 0.0312-0.125 0.0312-0.69532 0-1.0625-0.40891-1.0625-1.25z" fill="#828383"/>
    <path d="m173.72 176.21v0.94685h-0.7451v0.84969h0.7451v0.84972c-0.49542 0.07-1.0928 0.23008-1.0928 0.46126 0 0.18639-0.0337 0.33989 0.44707 0.33989-0.38739 0.0439-0.99591 0.42497-1.8627 1.141-0.97281 0.78925-1.4654 1.6575-1.4654 2.622 0 0.83375 0.45401 1.8074 1.366 2.889 0 0.0884-0.0494 0.22865-0.12421 0.46127-0.23247 0.68011-0.34135 12.761-0.3477 12.972h6.9542c-6e-3 -0.21086-0.11529-12.292-0.34771-12.972-0.0749-0.23262-0.12421-0.37298-0.12421-0.46127 0.91201-1.0817 1.366-2.0553 1.366-2.889 0-0.96449-0.49256-1.8327-1.4654-2.622-0.86683-0.71608-1.4754-1.2765-1.8628-1.3203 0.48085 0 0.44708-0.1535 0.44708-0.33989 0-0.23093-0.57288-0.21191-1.068-0.28198v-1.0723h0.74508v-0.62707h-0.74508v-0.94685z" fill="url(#v)"/>
    <path d="m174.03 176.22v0.9375h0.5v-0.9375zm0.75 0.9375v0.62671h0.5v-0.62671zm-0.75 0.62671v1.0608c0.49509 0.0701 1.0625 0.0457 1.0625 0.27666 0 0.18639 0.0434 0.34375-0.4375 0.34375 0.3874 0.0438 1.0082 0.63226 1.875 1.3483 0.9728 0.78925 1.4688 1.6293 1.4688 2.5938 0 0.83375-0.46299 1.8246-1.375 2.9062 0 0.0883 0.0501 0.23613 0.125 0.46875 0.23242 0.6801 0.33775 12.758 0.34375 12.969h0.5c-6e-3 -0.21086-0.11133-12.289-0.34375-12.969-0.0749-0.23262-0.125-0.38046-0.125-0.46875 0.91201-1.0817 1.3438-2.0725 1.3438-2.9062 0-0.96449-0.4647-1.8045-1.4375-2.5938-0.86683-0.71608-1.4876-1.3045-1.875-1.3483 0.48085 0 0.4375-0.15736 0.4375-0.34375 0-0.23093-0.56741-0.20659-1.0625-0.27666v-1.0608z" fill="#fff"/>
    <path transform="matrix(.54639 0 0 .54639 -105.74 -49.875)" d="m511.47 413.78v1.7305h0.40625v-1.7305zm-1.375 1.7188v1.5625h1.375v1.5547c0.13152-0.0245 0.27856-0.0445 0.40625-0.0625v-1.8984h-1.375v-1.1562zm-0.21875 3.5391c-0.2329 0.11884-0.40625 0.25033-0.40625 0.40625 0 0.25585-0.21442 0.69141 0.87109 0.64063 0.34283-0.1738 0.93948-0.33562 1.1836-0.36328-0.87991 0-1.6484 0.0364-1.6484-0.6836zm-3.8125 3.8672c-1.2356 1.2432-1.875 2.5935-1.875 4.0625 0 1.5259 0.83081 3.3016 2.5 5.2812 0 0.16179-0.0818 0.44926-0.21875 0.875-0.42547 1.2447-0.61338 23.333-0.625 23.719h12.719c-1.9e-4 -7e-3 3.1e-4 -0.38621 0-0.40625h-12.344c0.0116-0.3855 0.23078-22.474 0.65625-23.719 0.13692-0.42574 0.21875-0.68196 0.21875-0.84375-1.6692-1.9797-2.5-3.7866-2.5-5.3125 0-1.3108 0.48373-2.5268 1.4688-3.6562z" fill="#828383"/>
    <path d="m187.57 202.23c-0.0103-0.15726-0.0165-11.885-0.0165-12.346 0-1.6551 0.42852-2.8841 1.2843-3.6857 0.25253-0.24886 0.55988-0.47942 0.92208-0.6901-0.42724-0.15727-0.71803-0.54509-0.87235-1.1619-0.0435-0.19848-0.0663-0.40154-0.0663-0.61225 0-0.87945 0.37878-1.5039 1.1364-1.872-0.1977-0.39421-0.29588-0.76873-0.29588-1.1234 0-0.59135 0.24103-1.0317 0.7244-1.3207 0.21937-0.13145 0.45531-0.19711 0.70783-0.19711 0.54843 0 0.95527 0.2562 1.218 0.76875 0.12116 0.22338 0.18111 0.47302 0.18111 0.74907 0 0.38108-0.0931 0.75545-0.27931 1.1234 0.40557 0.19711 0.69635 0.45972 0.87237 0.788 0.176 0.35575 0.26399 0.71607 0.26399 1.084 0 0.68401-0.19768 1.2031-0.59305 1.5574-0.0995 0.1053-0.20916 0.1771-0.32905 0.21682 1.0101 0.61834 1.6631 1.426 1.959 2.4246 0.15431 0.55271 0.23083 1.2031 0.23083 1.9513 0 0.46111-6e-3 12.189-0.0165 12.346h-7.0311" fill="url(#w)"/>
    <path d="m191.09 179.21c-0.0631 0-0.12644 0.0218-0.1875 0.03 0.44174 0.0596 0.7726 0.30538 1 0.74905 0.12116 0.22337 0.1875 0.47299 0.1875 0.74904 0 0.38109-0.095 0.74063-0.28125 1.1086 0.40557 0.19712 0.69898 0.48069 0.875 0.80897 0.176 0.35576 0.25 0.71067 0.25 1.0786 0 0.68401-0.19838 1.2038-0.59375 1.558-0.0995 0.1053-0.19261 0.17001-0.3125 0.20974 1.0101 0.61833 1.6729 1.4284 1.9688 2.4269 0.15431 0.55271 0.21875 1.1994 0.21875 1.9475 0 0.46111-0.0207 12.187-0.0312 12.344h0.40625c0.0105-0.15726 0.0312-11.883 0.0312-12.344 0-0.74814-0.0957-1.3948-0.25-1.9475-0.29589-0.99851-0.92741-1.8086-1.9375-2.4269 0.11989-0.0397 0.213-0.10444 0.3125-0.20974 0.39537-0.35421 0.59375-0.874 0.59375-1.558 0-0.36796-0.074-0.72287-0.25-1.0786-0.17602-0.32828-0.46943-0.61185-0.875-0.80897 0.18621-0.36796 0.28125-0.7275 0.28125-1.1086 0-0.27605-0.0663-0.52567-0.1875-0.74904-0.26271-0.51256-0.67032-0.77901-1.2188-0.77901z" fill="#b3b3b3"/>
    <path transform="matrix(.54639 0 0 .54639 -105.74 -49.875)" d="m542.59 419.38c-0.088 0.0245-0.16454 0.0905-0.25 0.125 0.10903-0.0653 0.23025-0.0774 0.34375-0.125-0.0292 7e-3 -0.0648-8e-3 -0.0937 0zm-0.25 0.125c-0.12427 0.0501-0.25605 0.085-0.375 0.15625-0.88467 0.52895-1.3125 1.324-1.3125 2.4062 0 0.64914 0.16942 1.341 0.53125 2.0625-1.3865 0.67374-2.0625 1.8279-2.0625 3.4375 0 0.38564 0.0454 0.73049 0.125 1.0938 0.28244 1.129 0.81181 1.8372 1.5938 2.125-0.6629 0.38559-1.2253 0.82578-1.6875 1.2812-1.5662 1.4671-2.375 3.7209-2.375 6.75 0 0.84393 0.0124 22.306 0.0312 22.594h12.875c1.1e-4 -2e-3 -1.1e-4 -0.12212 0-0.125h-12.5c-0.0189-0.28782-0.0312-21.781-0.0312-22.625 0-3.0291 0.77751-5.2517 2.3438-6.7188 0.46218-0.45547 1.0246-0.89566 1.6875-1.2812-0.78194-0.28784-1.3113-0.99605-1.5938-2.125-0.0796-0.36326-0.125-0.73936-0.125-1.125 0-1.6096 0.70722-2.7325 2.0938-3.4062-0.36183-0.72149-0.5625-1.4134-0.5625-2.0625 0-1.0823 0.45908-1.9086 1.3438-2.4375z" fill="#333"/>
    <g transform="matrix(1.0417 0 0 1.0417 -8.3697 -8.2486)">
     <path d="m203.17 173.8v0.63708h-0.5446v0.57172h0.5446v0.57173c-0.36212 0.0471-0.79875 0.1548-0.79875 0.31035 0 0.12542-0.0246 0.2287 0.32676 0.2287-0.28314 0.0295-0.7279 0.28594-1.3615 0.76773-0.71099 0.53105-1.071 1.1152-1.071 1.7642 0 0.56098 0.33182 1.2161 0.99842 1.9439 0 0.0594-0.0361 0.15384-0.0908 0.31036-0.1699 0.45763-0.24949 16.709-0.25412 16.85h5.0828c-5e-3 -0.14187-0.0841-16.393-0.25414-16.85-0.0546-0.15652-0.0908-0.25096-0.0908-0.31036 0.66658-0.72779 0.9984-1.3829 0.9984-1.9439 0-0.64895-0.35999-1.2331-1.071-1.7642-0.63361-0.48179-1.0784-0.73825-1.3615-0.76773 0.35146 0 0.32677-0.10328 0.32677-0.2287 0-0.15538-0.41872-0.26322-0.78057-0.31035v-0.57173h0.54458v-0.57172h-0.54458v-0.63708z" fill="url(#x)"/>
     <path d="m203.15 173.79v0.65466h0.35767v-0.65466h-0.35767zm-0.5365 0.65466v0.55646h0.3219v-0.55646h-0.3219zm0.5365 0.55646v0.58919c-0.36211 0.0471-0.78687 0.13905-0.78687 0.2946 0 0.12542-0.0294 0.22913 0.3219 0.22913-0.28314 0.0295-0.72556 0.3038-1.3592 0.7856-0.71099 0.53104-1.073 1.0859-1.073 1.7348 0 0.56098 0.33488 1.2362 1.0015 1.964 0 0.0594-0.0168 0.13807-0.0716 0.29459-0.16991 0.45763-0.24573 16.716-0.25038 16.858h0.32191c4e-3 -0.1417 0.0804-16.4 0.25037-16.858 0.0547-0.15652 0.0716-0.2352 0.0716-0.29459-0.6666-0.7278-1.0015-1.403-1.0015-1.964 0-0.64895 0.36204-1.2038 1.073-1.7348 0.63359-0.4818 1.076-0.75606 1.3591-0.7856-0.35136 0-0.3219-0.1037-0.3219-0.22913 0-0.15555 0.46053-0.24746 0.82264-0.2946v-0.58919h-0.35767z" fill="#b3b3b3"/>
     <path transform="matrix(.52451 0 0 .52451 -93.474 -39.96)" d="m566.47 407.53v1.125h0.21875v-1.125h-0.21875zm1.03 1.22v1h-1.0312v1.0938c0.0748 0.01 0.14251 0.0188 0.21875 0.0312v-1.0312h1.0625v-1.0938h-0.25zm-2.9688 1v0.0937h0.78125v-0.0937h-0.78125zm3.2812 1.4688c0.0856 0.0623 0.125 0.14469 0.125 0.21875 0 0.23912 0.0451 0.4375-0.625 0.4375 0.0907 9e-3 0.20413 0.0599 0.3125 0.0937 0.58671-0.0154 0.5625-0.20827 0.5625-0.4375 0-0.12631-0.15503-0.22109-0.375-0.3125zm-3.7188 0.625c0.0288 0.0317 0.0945 0.0417 0.15625 0.0625 0.0518-0.0115 0.10914-0.0263 0.15625-0.0312-0.13975 0-0.22821-0.0155-0.3125-0.0312zm3.8125 0.21875c0.50969 0.22181 1.1582 0.64117 2 1.2812 1.3555 1.0125 2.0625 2.1065 2.0625 3.3438 0 1.0695-0.63538 2.3312-1.9062 3.7188 0 0.11325 0.0521 0.29534 0.15625 0.59375 0.32419 0.87246 0.49047 31.855 0.5 32.125h-9.4375c-3e-5 1e-3 3e-5 0.0929 0 0.0937h9.6875c-0.01-0.27048-0.17581-31.253-0.5-32.125-0.1041-0.29841-0.15625-0.4805-0.15625-0.59375 1.2709-1.3876 1.9062-2.6492 1.9062-3.7188 0-1.2373-0.70696-2.3313-2.0625-3.3438-0.98621-0.7499-1.7155-1.1995-2.25-1.375z" fill="#333"/>
    </g>
    <g transform="translate(-.049984)">
     <path d="m224.24 176.52c-0.1238 7e-3 -0.24512 0.0487-0.35952 0.10816-0.37583 0.18233-0.56761 0.51317-0.56761 0.99503 0 0.091 0.0271 0.22005 0.0946 0.38934 0.17073 0.45572 0.2649 0.94577 0.2649 1.4926 0 0.65117-0.11996 1.588-0.3595 2.812-0.62595-1.4963-0.94604-2.6019-0.94604-3.3312l0.13244-0.84359c0-0.16916-0.0461-0.31099-0.11354-0.45424-0.1707-0.41668-0.45308-0.62731-0.85142-0.62731-0.13632 0-0.27163 0.0213-0.39735 0.0865-0.38642 0.18231-0.56762 0.51329-0.56762 0.99501 0 0.36462 0.0976 0.61396 0.30273 0.75709 0.0225 0.013 0.0343 0.0391 0.0566 0.0647 0.27395 0.23435 0.41627 0.79352 0.41627 1.6656 0 0.58703-0.0188 1.1546-0.0757 1.6872-0.7292-0.84574-1.0974-1.5767-1.0974-2.1631l0.0757-0.73546c0-0.16931-0.0343-0.34985-0.11353-0.51914-0.18263-0.39063-0.45668-0.58405-0.83252-0.58405-0.14821 0-0.29053 0.0431-0.41627 0.10816-0.37584 0.19533-0.56761 0.52631-0.56761 0.99503 0 0.54692 0.27061 0.94278 0.79468 1.1897 0.0451 0.71713 0.13692 1.3948 0.2838 2.0333l0.22706 0.9734c0.16346 0.56803 0.36796 0.97866 0.60546 1.3195 0.52407 0.71715 0.77577 1.1795 0.77577 1.4276 0 0.10722-0.0637 12.089-0.17031 12.632h6.8116c-0.1066-0.54269-0.17031-12.524-0.17031-12.632 0-0.24813 0.2517-0.7105 0.77578-1.4276 0.23749-0.34081 0.442-0.75144 0.60546-1.3195l0.22705-0.9734c0.1469-0.63845 0.23883-1.3162 0.28381-2.0333 0.52406-0.24692 0.79467-0.64278 0.79467-1.1897 0-0.46872-0.19177-0.7997-0.56761-0.99503-0.12574-0.0652-0.26804-0.10816-0.41627-0.10816-0.37584 0-0.64988 0.19342-0.83251 0.58405-0.0794 0.16929-0.11354 0.34983-0.11354 0.51914l0.0757 0.73546c0 0.5864-0.36822 1.3173-1.0974 2.1631-0.057-0.53258-0.0757-1.1002-0.0757-1.6872 0-0.87206 0.14232-1.4312 0.41627-1.6656 0.0224-0.0258 0.0342-0.052 0.0568-0.0647 0.20514-0.14313 0.30273-0.39247 0.30273-0.75709 0-0.48172-0.18118-0.8127-0.56762-0.99501-0.12572-0.0652-0.26104-0.0865-0.39735-0.0865-0.39835 0-0.68072 0.21063-0.85145 0.62731-0.0675 0.14325-0.11352 0.28508-0.11352 0.45424l0.13245 0.84359c0 0.72924-0.32008 1.8349-0.94605 3.3312-0.23952-1.224-0.3595-2.1608-0.3595-2.812 0-0.54678 0.0942-1.0368 0.2649-1.4926 0.0675-0.16929 0.0946-0.29827 0.0946-0.38934 0-0.48186-0.19179-0.8127-0.56763-0.99503-0.11438-0.0593-0.23569-0.10122-0.35948-0.10816z" fill="url(#z)"/>
     <path d="m224.25 176.53c-0.1238 7e-3 -0.2606 0.038-0.375 0.0974-0.37583 0.18233-0.5625 0.52489-0.5625 1.0068 0 0.091 0.0263 0.22041 0.0937 0.3897 0.17073 0.45572 0.28125 0.94711 0.28125 1.4939 0 0.50787-0.24084 1.9651-0.3866 2.8212 0.0895 0.23437 0.17356 0.45704 0.28125 0.71446 0.23954-1.224 0.48035-2.8845 0.48035-3.5356 0-0.54677-0.0793-1.0382-0.25-1.4939-0.0675-0.16929-0.0937-0.29867-0.0937-0.3897 0-0.48186 0.18667-0.82442 0.5625-1.0068 0.0471-0.0244 0.10711-0.0153 0.15625-0.0324-0.0663-0.0223-0.11894-0.0611-0.1875-0.0649zm-2.9062 0.55208c-0.0666 0.0135-0.12464 0.0323-0.1875 0.065-0.38642 0.18231-0.59375 0.52503-0.59375 1.0068 0 0.36462 0.10737 0.6038 0.3125 0.74694 0.0225 0.013 0.0402 0.0393 0.0625 0.065 0.27395 0.23435 0.40625 0.78419 0.40625 1.6562 0 0.42878-0.0467 1.3016-0.0739 1.7036 0.11306 0.15325 0.23545 0.2928 0.375 0.45466 0.0569-0.53258 0.10519-1.5712 0.10519-2.1583 0-0.87206-0.1323-1.4219-0.40625-1.6562-0.0223-0.0257-0.04-0.052-0.0625-0.065-0.20513-0.14314-0.3125-0.38232-0.3125-0.74694 0-0.48172 0.17608-0.82444 0.5625-1.0068 0.0439-0.0228 0.11039-0.0194 0.15625-0.0324-0.0513-8e-3 -0.10039-0.0324-0.15625-0.0324-0.0682 0-0.12092-0.0135-0.1875 0zm5.5938 0c-0.39835 0-0.67302 0.20036-0.84375 0.61704-0.0675 0.14326-0.0937 0.2855-0.0937 0.45466l0.125 0.84436c0 0.60312-0.54031 2.1964-0.97016 3.3225 0.041 0.2407 0.0412 0.44618 0.0937 0.71446 0.62597-1.4963 1.2827-3.3077 1.2827-4.0369l-0.15625-0.84436c0-0.16916 0.0575-0.3114 0.125-0.45466 0.14679-0.35824 0.37291-0.53385 0.6875-0.58456-0.0792-0.0203-0.16821-0.0324-0.25-0.0324zm-7.625 1.2341c-0.14821 0-0.31176 0.0324-0.4375 0.0974-0.37584 0.19533-0.5625 0.53802-0.5625 1.0067 0 0.54692 0.28843 0.95468 0.8125 1.2016 0.0451 0.71713 0.13437 1.375 0.28125 2.0135l0.21875 0.97426c0.16346 0.56803 0.35625 0.99069 0.59375 1.3315 0.52407 0.71715 0.78125 1.1808 0.78125 1.4289 0 0.10721-0.0496 12.09-0.15625 12.633h0.40625c0.10661-0.54269 0.15625-12.526 0.15625-12.633 0-0.24814-0.25718-0.71178-0.78125-1.4289-0.2375-0.34081-0.43029-0.76347-0.59375-1.3315l-0.21875-0.97421c-0.14688-0.63846-0.23615-1.2964-0.28125-2.0135-0.52407-0.24692-0.8125-0.65467-0.8125-1.2016 0-0.46872 0.18666-0.81142 0.5625-1.0068 0.0629-0.0325 0.14893-0.046 0.21875-0.065-0.0637-0.0137-0.11667-0.0324-0.1875-0.0324zm9.875 0c-0.37584 0-0.66112 0.19392-0.84375 0.58456-0.0794 0.16928-0.0937 0.3503-0.0937 0.51961l0.0625 0.74693c0 0.46624-0.61542 1.5131-1.0773 2.1472 0.0105 0.15917 0.0148 0.33342 0.0312 0.48713 0.72919-0.84573 1.4523-2.0479 1.4523-2.6343l-0.0937-0.74693c0-0.16931 0.0456-0.35033 0.125-0.51961 0.13697-0.29298 0.31831-0.47937 0.5625-0.55209-0.0417-6e-3 -0.082-0.0324-0.125-0.0324z" fill="#b3b3b3"/>
     <path transform="matrix(.54639 0 0 .54639 -105.69 -49.875)" d="m603.94 414.38c0.0963 0.0327 0.18914 0.0772 0.28125 0.125 0.68787 0.3337 1.0625 0.93059 1.0625 1.8125 0 0.16668-0.064 0.40891-0.1875 0.71875-0.31242 0.83406-0.46875 1.718-0.46875 2.7188 0 1.1918 0.50514 4.717 0.94351 6.9572 0.0736-0.17596 0.11852-0.32994 0.1875-0.5-0.35933-1.9379-0.84976-5.3158-0.84976-6.3947 0-1.0007 0.15633-1.8847 0.46875-2.7188 0.12354-0.30984 0.1875-0.55207 0.1875-0.71875 0-0.88191-0.37463-1.4788-1.0625-1.8125-0.18003-0.0933-0.36889-0.1617-0.5625-0.1875zm-4.75 1c0.43458 0.15686 0.77685 0.51778 1 1.0625 0.12343 0.26218 0.1875 0.5029 0.1875 0.8125l-0.21875 1.5625c0 1.3347 1.3075 5.199 2.4531 7.9375 0.0344-0.17584 0.0308-0.29939 0.0625-0.46875-0.99429-2.4574-2.2344-6.1638-2.2344-7.4062l0.21875-1.5625c0-0.3096-0.0641-0.55032-0.1875-0.8125-0.26856-0.65555-0.70564-1.0321-1.2812-1.125zm9.8438 0c0.0743 0.0228 0.14737 0.0255 0.21875 0.0625 0.70727 0.33367 1.0312 0.93085 1.0312 1.8125 0 0.66733-0.1558 1.1443-0.53125 1.4062-0.0414 0.0232-0.084 0.0778-0.125 0.125-0.50139 0.42891-0.75 1.4352-0.75 3.0312 0 1.0744 0.16912 3.3925 0.27344 4.3672 0.0994-0.11535 0.15789-0.23076 0.25-0.34375-0.0743-0.85719-0.24219-3.0322-0.24219-3.9609 0-1.596 0.24861-2.6023 0.75-3.0312 0.041-0.0472 0.0836-0.10176 0.125-0.125 0.37545-0.26196 0.53125-0.73892 0.53125-1.4062 0-0.88165-0.32398-1.4788-1.0312-1.8125-0.16265-0.0843-0.32535-0.10633-0.5-0.125zm-13.938 2.3125c0.40303 0.14961 0.73535 0.46953 0.96875 0.96875 0.14501 0.30984 0.1875 0.62763 0.1875 0.9375l-0.125 1.3438c0 1.0732 1.6029 3.5615 2.9375 5.1094 0.01-0.0916 0.0227-0.18855 0.0312-0.28125-1.1439-1.4033-2.6875-3.7724-2.6875-4.7656l0.125-1.3438c0-0.30987-0.0425-0.62766-0.1875-0.9375-0.28426-0.60801-0.71204-0.94106-1.25-1.0312zm18.031 0c0.0814 0.0291 0.17442 0.0546 0.25 0.0937 0.68787 0.35749 1.0312 0.95464 1.0312 1.8125 0 1.001-0.47836 1.7356-1.4375 2.1875-0.0823 1.3125-0.26239 2.5502-0.53125 3.7188l-0.40625 1.7812c-0.29917 1.0396-0.69034 1.7825-1.125 2.4062-0.95918 1.3125-1.4062 2.1709-1.4062 2.625 0 0.19624 0.1174 22.132 0.3125 23.125h-12.188c-1e-3 8e-3 1e-3 0.0565 0 0.0625h12.469c-0.1951-0.99324-0.3125-22.929-0.3125-23.125 0-0.45413 0.44707-1.3125 1.4062-2.625 0.43466-0.62375 0.82583-1.3666 1.125-2.4062l0.40625-1.7812c0.26886-1.1685 0.44893-2.4062 0.53125-3.7188 0.95914-0.45192 1.4375-1.1865 1.4375-2.1875 0-0.85786-0.34338-1.455-1.0312-1.8125-0.16268-0.0843-0.34515-0.12597-0.53125-0.15625z" fill="#333"/>
    </g>
    <path d="m213.33 180.62-0.5446 0.56729v1.838l1.4977 1.5658v3.9524l-0.34037 11.111h5.905l-0.34037-11.111v-3.9524l1.4977-1.5658v-1.838l-0.54461-0.56729h-1.3842l-0.31768 0.36307v0.49923h-0.74884v-0.49923l-0.31769-0.36307h-1.5935l-0.31769 0.36307v0.49923h-0.74884v-0.49923l-0.34037-0.36307z" fill="url(#aa)"/>
    <path d="m213.34 180.62-0.5625 0.5625v1.8438l1.5 1.5625v3.9375l-0.34375 11.125h0.46875l0.34375-11.125v-3.9375l-1.5-1.5625v-1.8438l0.53125-0.5625h-0.4375zm2.75 0-0.3125 0.34375v0.5h0.46875v-0.5l0.3125-0.34375h-0.46875zm3 0-0.34375 0.34375v0.5h0.46875v-0.5l0.3125-0.34375h-0.4375z" fill="#fff"/>
    <path transform="matrix(.54639 0 0 .54639 -105.74 -49.875)" d="m586.41 421.84 0.375 0.40625v0.90625h0.3125v-0.65625l-0.625-0.65625h-0.0625zm5.4688 0 0.34375 0.40625v0.90625h0.3125v-0.65625l-0.5625-0.65625h-0.0937zm5.0938 0 0.75 0.78125v3.375l-2.75 2.8438v7.25l0.625 20.344h-10.5v0.25h10.812l-0.625-20.344v-7.2188l2.75-2.875v-3.375l-1-1.0312h-0.0625z" fill="#828383"/>
   </g>
  </g>
  <g transform="translate(-11.189 9.7902)">
   <path d="m120.63 190.7s12.268-2.7928 13.636 1.5734c0.97533 3.1126-7.3427 6.4685-7.3427 6.4685s11.724 0.19194 11.014 5.2448c-0.95352 6.7855-12.718 1.9436-12.718 1.9436s4.757 4.6584 0.65538 7.3221c-5.6716 3.6832-13.636-10.315-13.636-10.315z" fill="#f3ba8f"/>
   <path d="m128.16 189.81c-0.455-5e-4 -0.92024 8e-3 -1.375 0.0312-0.64649 0.034-1.2692 0.0901-1.875 0.15625-0.34527 0.0377-0.64853 0.082-0.96875 0.125-0.47564 0.0639-0.97817 0.15317-1.375 0.21875-0.47383 0.0788-0.97294 0.15854-1.2812 0.21875-0.16256 0.0342-0.65625 0.125-0.65625 0.125l-0.1875 0.28125c3.022-0.56162 11.099-1.6981 12.219 1.875 0.97533 3.1126-7.3438 6.4688-7.3438 6.4688s11.741 0.16594 11.031 5.2188c-0.19989 1.4224-0.88645 2.3363-1.8438 2.875 0.65623-0.1222 1.2649-0.32796 1.7812-0.65625 0.1721-0.10943 0.3179-0.23856 0.46875-0.375 0.12391-0.11208 0.26719-0.21218 0.375-0.34375 0.0361-0.0453 0.0595-0.10868 0.0937-0.15625 0.0635-0.0864 0.13094-0.18672 0.1875-0.28125 0.0422-0.072 0.0869-0.142 0.125-0.21875 0.0396-0.078 0.0588-0.1669 0.0937-0.25 0.0693-0.16864 0.13728-0.34141 0.1875-0.53125 0.0502-0.18984 0.0952-0.3817 0.125-0.59375 0.13313-0.9474-0.16811-1.7386-0.75-2.375-0.3874-0.42447-0.91299-0.78463-1.5-1.0938-0.28208-0.14822-0.59423-0.28151-0.90625-0.40625-0.0118-5e-3 -0.0194-0.0266-0.0312-0.0312-0.57252-0.22477-1.1921-0.40595-1.8125-0.5625-0.0733-0.0186-0.14524-0.0448-0.21875-0.0625-0.01-2e-3 -0.0212 2e-3 -0.0312 0-0.34526-0.0825-0.68879-0.15379-1.0312-0.21875-0.0101-2e-3 -0.0211 2e-3 -0.0312 0-0.0432-8e-3 -0.082-0.0234-0.125-0.0312-2.3999-0.43817-4.5625-0.46875-4.5625-0.46875s2.0737-0.83444 4.0312-2.0625c0.4894-0.30701 0.96649-0.65138 1.4062-1 0.43976-0.34862 0.83492-0.71759 1.1562-1.0938 0.56232-0.65829 0.90256-1.3478 0.8125-2.0312-0.0129-0.0976-0.032-0.18398-0.0625-0.28125-0.0428-0.13645-0.12416-0.28348-0.1875-0.40625-0.0633-0.12277-0.13624-0.23405-0.21875-0.34375-9e-3 -0.012-0.022-0.0194-0.0312-0.0312-0.1139-0.14293-0.2306-0.28472-0.375-0.40625-0.16333-0.13747-0.3647-0.26305-0.5625-0.375-0.032-0.018-0.0609-0.0451-0.0937-0.0625-0.0287-0.0153-0.0644-0.0165-0.0937-0.0312-0.17114-0.0862-0.34066-0.14828-0.53125-0.21875-0.11335-0.042-0.22418-0.0883-0.34375-0.125-0.0925-0.0284-0.18542-0.0684-0.28125-0.0937-0.11949-0.0314-0.25071-0.0669-0.375-0.0937-0.11882-0.0257-0.25232-0.0407-0.375-0.0625-0.19389-0.0341-0.39153-0.0688-0.59375-0.0937-0.28918-0.0361-0.57338-0.0747-0.875-0.0937-0.0413-3e-3 -0.0835 2e-3 -0.125 0-0.34582-0.0192-0.70861-0.0309-1.0625-0.0312zm-7.0938 13.25s7.3204 8.0863 3.2188 10.75c-0.0197 0.0128-0.0427 0.0189-0.0625 0.0312 0.13539-0.0146 0.27233-0.0326 0.40625-0.0625 0.0486-0.0115 0.1078-0.0177 0.15625-0.0312 0.0907-0.0245 0.19133-0.0618 0.28125-0.0937 0.0934-0.0338 0.18848-0.0837 0.28125-0.125 0.1814-0.0815 0.35401-0.16615 0.53125-0.28125 1.7819-1.1572 1.883-2.6979 1.4375-4.0625-3e-3 -9e-3 3e-3 -0.0218 0-0.0312-0.0289-0.0867-0.0607-0.16485-0.0937-0.25-0.0417-0.1003-0.0776-0.21165-0.125-0.3125-0.0485-0.10736-0.10311-0.20887-0.15625-0.3125-0.1297-0.24915-0.28163-0.4998-0.4375-0.75-0.6199-0.95933-1.2812-1.5938-1.2812-1.5938s0.1636 0.0599 0.25 0.0937c-0.52424-0.69145-1.0832-1.3636-1.5938-2-1.6156-0.46553-2.8125-0.96875-2.8125-0.96875z" fill="#fff7e9"/>
   <path d="m132.78 195.34c-2.316 1.2992-8.08 3.8523-8.08 3.8523s0.67191 0.10688 1.0625 0.15625c0.13261-0.0539 4.8809-2.1321 7.0174-4.0086zm-19.406 6.6875-0.90625 1.2812c0.71718 1.2092 3.9121 6.4199 7.5625 9.0625 0.0409 0.0287 0.0841 0.0657 0.125 0.0937 0.13462 0.095 0.27083 0.16288 0.40625 0.25 0.24434 0.15413 0.47402 0.30928 0.71875 0.4375 0.26765 0.14044 0.54454 0.27343 0.8125 0.375 0.0938 0.0369 0.18769 0.0616 0.28125 0.0937 0.2348 0.0757 0.48539 0.14687 0.71875 0.1875 0.95903 0.16699 1.8951 0.013 2.7812-0.5625 0.2874-0.18664 0.51365-0.38981 0.71875-0.59375-4.874 1.5029-11.589-8.1062-13.219-10.625zm10.44 1.97s0.68664 0.71995 1.4062 1.9375c0 0 0.17644 0.0684 0.5 0.1875 0.52985 0.18911 1.1306 0.37774 1.7812 0.59375 2.5422 0.75166 6.5808 1.5498 8.8438 0 0.0181-0.0146 0.0446-0.0163 0.0625-0.0312 0.0658-0.0469 0.12495-0.10508 0.1875-0.15625 0.19023-0.17895 0.3678-0.36863 0.53125-0.59375-3.74 1.57-13.31-1.94-13.31-1.94z" fill="#d38d5f"/>
   <path d="m72.969 144.22s-2.7465 22.021 6.9132 35.844c7.6448 10.94 31.689 25.301 31.689 25.301l9.648-15.567s-8.6227-9.2727-10.312-15.141c-1.8457-6.4093-0.99035-14.585 0.74359-19.995 1.2808-3.9964 3.361-10.53 4.4485-14.589 10.175-37.981-37.927-49.813-43.13 4.147z" fill="#ffec00"/>
   <path d="m75.344 131.22c-1.091 3.8222-1.9063 8.1389-2.375 13 0 0-2.7534 22.708 6.9062 36.531 7.6448 10.94 31.688 25.312 31.688 25.312l9.66-16.28-10.22 12.41s-2.0234-1.1888-4.9375-3.0312l11.392-12.151-13.736 10.682c-6.7904-4.4746-16.626-11.724-21.875-19.219-9.6741-13.813-7.875-38.219-7.875-38.219 0.31356-3.252 0.77195-6.2485 1.375-9.0312z" fill="#e4a200"/>
  </g>
  <g transform="translate(-23.776 9.7902)">
   <path d="m353.37 144.22s2.7465 22.021-6.9132 35.844c-7.6448 10.94-31.689 25.301-31.689 25.301l-9.648-15.567s8.6227-9.2727 10.312-15.141c1.8457-6.4093 0.99035-14.585-0.74359-19.995-1.2808-3.9964-3.361-10.53-4.4485-14.589-10.175-37.981 37.927-49.813 43.13 4.147z" fill="#ff2020"/>
   <g transform="translate(175.35)">
    <path d="m129.58 190.7s-12.268-2.7928-13.636 1.5734c-0.97533 3.1126 7.3427 6.4685 7.3427 6.4685s-11.724 0.19194-11.014 5.2448c0.95352 6.7855 12.718 1.9436 12.718 1.9436s-4.757 4.6584-0.65538 7.3221c5.6716 3.6832 13.636-10.315 13.636-10.315z" fill="#f3ba8f"/>
    <path d="m122.05 189.81c2.5364-0.0198 5.0469 0.40814 7.5312 0.87495 0.50486 0.62639-1.016-0.0746-1.3539 0.0249-2.8178-0.36073-5.7788-0.69859-8.5376 0.18188-1.232 0.37744-2.5243 1.5738-2.1493 2.9748 0.59472 1.6909 2.2512 2.6805 3.6836 3.6018 1.177 0.7005 2.4064 1.3127 3.6696 1.8415-2.9822 0.14121-6.0663 0.44902-8.7874 1.7694-1.3424 0.62939-2.5845 1.9945-2.2237 3.5812 0.16396 1.1237 0.80439 2.2002 1.8236 2.7431-1.4678-0.21608-2.9015-1.1753-3.2717-2.6731-0.48942-1.268-0.0515-2.7825 1.0743-3.5592 2.1663-1.5733 4.9175-1.9596 7.5099-2.2777 0.62548-0.10643 1.8571-0.0786 2.157-0.18431-2.4316-1.0868-4.9572-2.2882-6.7009-4.3662-0.68934-0.78303-0.89201-2.0409-0.1125-2.8454 0.9795-1.1762 2.6186-1.4383 4.0577-1.6156 0.54049-0.0566 1.0869-0.0641 1.6299-0.072zm7.0938 13.25c-1.7796 2.1048-3.5132 4.3911-4.2897 7.0764-0.40413 1.3047-0.17706 3.0017 1.1335 3.7048-1.803-0.18257-3.5757-1.8265-3.2958-3.7412 0.20087-1.6164 1.1977-3.0123 2.2957-4.1649-0.4605 0.0832 0.72076-1.0245 0.95306-1.4225 0.54528-0.85882 1.3315-0.83114 2.3844-1.2307 0.20852-0.0783 0.61302-0.13674 0.81886-0.22186z" fill="#fff7e9"/>
    <path d="m117.43 195.34c2.215 1.2071 5.3402 3.0015 7.6523 4.0055-1.1677 0.43707-3.293-1.1352-4.3161-1.5908-1.2839-0.67241-2.2378-1.4622-3.3362-2.4147zm19.406 6.6875c0.30208 0.42708 0.60417 0.85417 0.90625 1.2812-2.0872 3.3994-4.4576 6.7493-7.6875 9.1562-1.4731 1.0352-3.4513 1.9151-5.2152 1.0611-0.63371-0.27017-2.104-1.2303-0.52547-0.73371 2.3086 0.1425 4.2799-1.3773 5.9348-2.8043 2.5592-2.323 4.6852-5.0865 6.5871-7.9606zm-10.45 1.97c-0.84571 0.7252-1.0617 2.1376-2.3166 2.2672-2.7131 0.91493-5.6367 1.6932-8.5089 1.1566-0.95651-0.21158-2.0095-0.65034-2.5744-1.4862 2.162 0.75425 4.5884 0.31029 6.78-0.0793 2.2474-0.45807 4.4577-1.0957 6.6199-1.8583z" fill="#d38d5f"/>
   </g>
   <path d="m351 131.22c1.091 3.8222 1.9063 8.1389 2.375 13 0 0 2.7534 22.708-6.9062 36.531-7.6448 10.94-31.688 25.312-31.688 25.312l-9.6562-16.281 10.219 12.406s2.0234-1.1888 4.9375-3.0312l-11.392-12.151 13.736 10.682c6.7904-4.4746 16.626-11.724 21.875-19.219 9.6741-13.813 7.875-38.219 7.875-38.219-0.31356-3.252-0.77195-6.2485-1.375-9.0312z" fill="#a50022"/>
  </g>
 </g>
 <g transform="translate(-35.547 -32.539)">
  <path transform="matrix(-1.8302 0 0 1.8302 910.38 91.282)" d="m194.6 202.23c0.0103-0.15726 0.0165-11.885 0.0165-12.346 0-1.6551-0.42852-2.8841-1.2843-3.6857-0.25253-0.24886-0.55988-0.47942-0.92208-0.6901 0.42724-0.15727 0.71803-0.54509 0.87235-1.1619 0.0435-0.19848 0.0663-0.40154 0.0663-0.61225 0-0.87945-0.37878-1.5039-1.1364-1.872 0.1977-0.39421 0.29588-0.76873 0.29588-1.1234 0-0.59135-0.24103-1.0317-0.7244-1.3207-0.21937-0.13145-0.45531-0.19711-0.70783-0.19711-0.54843 0-0.95527 0.2562-1.218 0.76875-0.12116 0.22338-0.18111 0.47302-0.18111 0.74907 0 0.38108 0.0931 0.75545 0.27931 1.1234-0.40557 0.19711-0.69635 0.45972-0.87237 0.788-0.176 0.35575-0.26399 0.71607-0.26399 1.084 0 0.68401 0.19768 1.2031 0.59305 1.5574 0.0995 0.1053 0.20916 0.1771 0.32905 0.21682-1.0101 0.61834-1.6631 1.426-1.959 2.4246-0.15431 0.55271-0.23083 1.2031-0.23083 1.9513 0 0.46111 6e-3 12.189 0.0165 12.346h7.0311" fill="url(#y)"/>
  <path transform="matrix(-1.8302 0 0 1.8302 910.38 91.282)" d="m191.09 179.21c-0.0631 0-0.12644 0.0218-0.1875 0.0299 0.44174 0.0596 0.7726 0.30538 1 0.74905 0.12116 0.22338 0.1875 0.47299 0.1875 0.74905 0 0.38108-0.095 0.74062-0.28125 1.1086 0.40557 0.19712 0.69898 0.4807 0.875 0.80897 0.176 0.35576 0.25 0.71067 0.25 1.0786 0 0.68401-0.19838 1.2038-0.59375 1.558-0.0995 0.10531-0.19261 0.17001-0.3125 0.20974 1.0101 0.61833 1.6729 1.4284 1.9688 2.4269 0.15431 0.5527 0.21875 1.1994 0.21875 1.9475 0 0.46111-0.0207 12.187-0.0312 12.344h0.40625c0.0105-0.15726 0.0312-11.883 0.0312-12.344 0-0.74814-0.0957-1.3948-0.25-1.9475-0.29589-0.99851-0.92741-1.8086-1.9375-2.4269 0.11989-0.0397 0.213-0.10443 0.3125-0.20974 0.39537-0.35421 0.59375-0.874 0.59375-1.558 0-0.36796-0.074-0.72287-0.25-1.0786-0.17602-0.32827-0.46943-0.61185-0.875-0.80897 0.18621-0.36796 0.28125-0.7275 0.28125-1.1086 0-0.27606-0.0663-0.52567-0.1875-0.74905-0.26271-0.51255-0.67032-0.77901-1.2188-0.77901z" fill="#fff"/>
  <path d="m561.39 419.37c0.088 0.0245 0.16454 0.0906 0.25001 0.12501-0.10908-0.0653-0.23026-0.0774-0.34375-0.12501 0.0291 7e-3 0.0648-7e-3 0.0937 0zm0.25001 0.12501c0.12427 0.0501 0.25605 0.0849 0.37499 0.1563 0.88467 0.52895 1.3125 1.324 1.3125 2.4062 0 0.64914-0.16948 1.341-0.53126 2.0625 1.3865 0.67373 2.0625 1.8279 2.0625 3.4375 0 0.38564-0.0454 0.73049-0.125 1.0938-0.28244 1.129-0.81181 1.8372-1.5938 2.125 0.66291 0.38559 1.2253 0.82578 1.6875 1.2812 1.5662 1.4671 2.375 3.7209 2.375 6.75 0 0.84393-0.0128 22.306-0.0313 22.594h-12.875c-1.1e-4 -2e-3 1.1e-4 -0.12207 0-0.125h12.5c0.0189-0.28782 0.0313-21.781 0.0313-22.625 0-3.0291-0.77751-5.2517-2.3438-6.7188-0.46218-0.45547-1.0246-0.89565-1.6875-1.2812 0.78194-0.28784 1.3113-0.99606 1.5937-2.125 0.0796-0.36326 0.12501-0.73937 0.12501-1.125 0-1.6096-0.70721-2.7325-2.0938-3.4063 0.36184-0.72148 0.5625-1.4134 0.5625-2.0625 0-1.0823-0.45907-1.9085-1.3437-2.4375z" fill="#828383"/>
 </g>
 <g transform="translate(-35.547 -32.539)">
  <path transform="matrix(-1.8302 0 0 1.8302 911.53 91.282)" d="m157.7 180.74c0.03 0 0.10606-7e-3 0.22795-0.0222 0.68563 0 1.4154 0.22221 2.1911 0.66664 0.0901 0.0592 0.13608 0.0887 0.13608 0.0887 0.44175-0.69622 0.77571-1.0443 1.0037-1.0443 0.4877 0.26663 0.80577 0.55547 0.95773 0.86667 0.0759 0.14802 0.19084 0.45921 0.34281 0.93325 0.12198-0.0297 0.24385-0.0445 0.36578-0.0445 1.2776 0 2.4933 0.76286 3.6489 2.2893 1.3836 1.7626 2.0763 4.162 2.0763 7.1999 0 0.6799-0.0299 11.419-0.0919 11.966h-9.6268c0.0318-0.99317 0.40287-12.056 1.1185-12.946 0.076-0.11709 0.18199-0.25132 0.31984-0.39933 0.5619-0.69537 0.90471-1.229 1.0266-1.599 0.06-0.19279 0.10606-0.39245 0.13607-0.60073-1.0037 0.38557-1.7564 0.95531-2.2583 1.7109-0.22794 0.37006-0.47887 0.75563-0.75276 1.155-0.0759 0.1188-0.19084 0.179-0.3428 0.179-0.37991 0-0.569-0.23065-0.569-0.69021-0.15372 0.19277-0.32865 0.28916-0.52479 0.28916 0 0-0.15197-0.0361-0.45767-0.11013-0.6538-0.16351-1.1168-0.44408-1.3906-0.84513-0.0919-0.13252-0.19085-0.31152-0.29687-0.53358 0.10606-0.63685 0.63085-1.9037 1.5744-3.7988 0.68385-1.3632 1.1097-2.3411 1.2776-2.9337 0.0141-0.13321 0.023-0.32582 0.023-0.57764 0-0.20742-0.0388-0.60742-0.11485-1.2" fill="url(#ab)"/>
  <path transform="matrix(-1.8302 0 0 1.8302 911.53 91.282)" d="m161.25 180.44c-0.16045 0-0.39015 0.2176-0.65625 0.5625 0.0833 0.0954 0.16991 0.18122 0.21875 0.28125 0.0759 0.14802 0.19178 0.46346 0.34375 0.9375 0.12198-0.0297 0.22182-0.0312 0.34375-0.0312 1.2776 0 2.5006 0.75485 3.6562 2.2812 1.3836 1.7626 2.0625 4.1495 2.0625 7.1875 0 0.6799-5e-4 11.421-0.0625 11.969h1.4062c0.062-0.54735 0.0937-11.289 0.0937-11.969 0-3.038-0.71017-5.4249-2.0938-7.1875-1.1556-1.5264-2.3787-2.2812-3.6562-2.2812-0.12193 0-0.22177 2e-3 -0.34375 0.0312-0.15197-0.47404-0.26785-0.78948-0.34375-0.9375-0.15196-0.3112-0.48105-0.57712-0.96875-0.84375zm-3.3125 0.28125c-0.12189 0.0152-0.22 0.0312-0.25 0.0312 0.0121 0.0942 0.0211 0.10306 0.0312 0.1875 0.31692 0.10895 1.7221 0.7461 2.0559 0.93734 0.0901 0.0592 0.15625 0.0937 0.15625 0.0937 0.14337-0.22596 0.25428-0.34738 0.375-0.5-0.72128-0.49928-1.8921-0.79982-2.3684-0.74984z" fill="#b3b3b3"/>
  <path d="m616.46 421.51c0.64872 0.0822 1.7918 1.7885 2.4087 2.8545-0.12061 0.079-0.20703 0.14062-0.20703 0.14062-0.50882-0.80192-1.8484-2.6979-2.2017-2.9951zm6.4817 0.5514c-0.13919 1.0846-0.23169 1.8189-0.23169 2.1986 0 0.46088 5e-3 0.8187 0.0312 1.0625 0.3072 1.0846 1.0922 2.88 2.3438 5.375 1.727 3.4684 2.6809 5.8032 2.875 6.9688-0.19404 0.40642-0.3943 0.72621-0.5625 0.96875-0.50126 0.73401-1.3347 1.232-2.5312 1.5312-0.5595 0.13549-0.84375 0.21875-0.84375 0.21875-0.26923 0-0.52444-0.11404-0.75-0.3125 0.0849 0.022 0.16026 0.0312 0.25 0.0312 0 0 0.28425-0.0833 0.84375-0.21875 1.1966-0.29926 2.0612-0.79724 2.5625-1.5312 0.1682-0.24254 0.33721-0.56233 0.53125-0.96875-0.19411-1.1656-1.148-3.5004-2.875-6.9688-1.2516-2.495-2.0366-4.2904-2.3438-5.375-0.0258-0.2438-0.0312-0.60162-0.0312-1.0625 0-0.34507 0.041-1.0376 0.15625-1.9651 0.28518 0.0162 0.35583 0.0459 0.57544 0.0479zm-7.5442 13.199c0.5755 0.22108 1.0772 0.49391 1.5625 0.78125-0.34218-0.17586-0.68062-0.3533-1.0625-0.5 0.0549 0.3812 0.14019 0.7409 0.25 1.0938 0.22316 0.67731 0.8466 1.6648 1.875 2.9375 0.25229 0.27089 0.45465 0.50445 0.59375 0.71875 1.3098 1.6286 1.973 21.87 2.0312 23.688h-17.625c-2e-3 -0.0193 2e-3 -0.24847 0-0.28125h17.125c-0.0582-1.8177-0.72144-22.059-2.0312-23.688-0.1391-0.2143-0.34146-0.44786-0.59375-0.71875-1.0284-1.2727-1.6518-2.2602-1.875-2.9375-0.10981-0.35285-0.19508-0.71255-0.25-1.0938zm7.1875 4.3125c0.15122 0.18964 0.2951 0.31854 0.46875 0.40625-0.0388 0.74405-0.37735 1.125-1.0312 1.125-0.27812 0-0.48609-0.0951-0.625-0.3125 0.0466 7e-3 0.0738 0.0312 0.125 0.0312 0.69532 0 1.0625-0.40891 1.0625-1.25z" fill="#333"/>
 </g>
 <g transform="translate(-35.547 -32.539)">
  <path transform="matrix(1.8302 0 0 1.8302 193.53 91.282)" d="m245.82 178.48c-0.13912 8e-3 -0.27546 0.0527-0.40402 0.11696-0.42238 0.19717-0.6379 0.55494-0.6379 1.076 0 0.0984 0.0305 0.23797 0.10631 0.42105 0.19187 0.49281 0.29769 1.0228 0.29769 1.6141 0 0.70419-0.13481 1.7173-0.404 3.0409-0.70348-1.6181-1.0632-2.8137-1.0632-3.6024l0.14885-0.91229c0-0.18292-0.0517-0.3363-0.12759-0.49122-0.19185-0.4506-0.5092-0.67839-0.95687-0.67839-0.15319 0-0.30525 0.0231-0.44655 0.0935-0.43427 0.19716-0.63791 0.55508-0.63791 1.076 0 0.39431 0.1097 0.66395 0.34022 0.81873 0.0254 0.014 0.0386 0.0423 0.0636 0.07 0.30787 0.25343 0.46781 0.85812 0.46781 1.8012 0 0.63483-0.0211 1.2486-0.085 1.8246-0.81949-0.9146-1.2333-1.705-1.2333-2.3392l0.085-0.79533c0-0.18309-0.0385-0.37834-0.12758-0.56141-0.20525-0.42244-0.51323-0.6316-0.93561-0.6316-0.16657 0-0.32651 0.0466-0.46782 0.11696-0.42238 0.21123-0.63791 0.56917-0.63791 1.076 0 0.59144 0.30413 1.0195 0.89309 1.2866 0.0506 0.77553 0.15388 1.5084 0.31895 2.1988l0.25517 1.0526c0.18371 0.61428 0.41353 1.0583 0.68045 1.4269 0.58896 0.77552 0.87182 1.2755 0.87182 1.5439 0 0.11595-0.0716 12.513-0.19139 13.1h7.655c-0.1198-0.58687-0.1914-12.984-0.1914-13.1 0-0.26833 0.28287-0.76835 0.87183-1.5439 0.26691-0.36857 0.49674-0.81262 0.68045-1.4269l0.25516-1.0526c0.16509-0.69045 0.2684-1.4233 0.31896-2.1988 0.58895-0.26701 0.89308-0.69511 0.89308-1.2866 0-0.50688-0.21553-0.86482-0.63791-1.076-0.14131-0.0704-0.30124-0.11696-0.46782-0.11696-0.42237 0-0.73035 0.20916-0.9356 0.6316-0.0892 0.18307-0.12759 0.37832-0.12759 0.56141l0.085 0.79533c0 0.63415-0.41381 1.4246-1.2333 2.3392-0.064-0.57594-0.085-1.1898-0.085-1.8246 0-0.94306 0.15994-1.5478 0.4678-1.8012 0.0252-0.0279 0.0385-0.0562 0.0638-0.07 0.23054-0.15478 0.34022-0.42442 0.34022-0.81873 0-0.52094-0.20362-0.87886-0.63791-1.076-0.14129-0.0704-0.29336-0.0935-0.44655-0.0935-0.44767 0-0.76501 0.22779-0.95688 0.67839-0.0759 0.15492-0.12758 0.3083-0.12758 0.49122l0.14885 0.91229c0 0.78861-0.35972 1.9842-1.0632 3.6024-0.26919-1.3236-0.40402-2.3368-0.40402-3.0409 0-0.5913 0.10584-1.1212 0.29769-1.6141 0.0759-0.18308 0.10633-0.32256 0.10633-0.42105 0-0.5211-0.21554-0.87887-0.63792-1.076-0.12854-0.0641-0.26489-0.1095-0.40401-0.11696z" fill="url(#ac)"/>
  <path transform="matrix(1.8302 0 0 1.8302 193.53 91.282)" d="m245.81 178.47c-0.13912 8e-3 -0.27769 0.0607-0.40625 0.125-0.42238 0.19717-0.625 0.57265-0.625 1.0938 0 0.0984 0.0179 0.22317 0.0937 0.40625 0.19187 0.49281 0.3125 1.0337 0.3125 1.625 0 0.38974-0.0425 0.88948-0.125 1.4688 0.16337 0.47356 0.37187 0.98026 0.625 1.5625 0.26919-1.3236 0.40625-2.3271 0.40625-3.0312 0-0.5913-0.12063-1.1322-0.3125-1.625-0.0758-0.18308-0.0937-0.30785-0.0937-0.40625 0-0.49438 0.18193-0.85981 0.5625-1.0625-0.0131-7e-3 -0.0177-0.0249-0.0312-0.0312-0.12854-0.0641-0.26713-0.11754-0.40625-0.125zm-3.0312 0.59375c-0.15319 0-0.2962 0.0233-0.4375 0.0937-0.43427 0.19716-0.65625 0.57281-0.65625 1.0938 0 0.14731 0.0313 0.26198 0.0625 0.375 0.13974 0.10452 0.24897 0.24243 0.34375 0.4375 0.0202 0.0415 0.0474 0.0825 0.0625 0.125 0.26905 0.28009 0.40625 0.86953 0.40625 1.75 0 0.23277 7e-3 0.46121 0 0.6875 0.20254 0.34992 0.45397 0.72486 0.8125 1.125 0.0639-0.57594 0.0937-1.1777 0.0937-1.8125 0-0.94306-0.16088-1.5591-0.46875-1.8125-0.025-0.0277-0.0371-0.0485-0.0625-0.0625-0.23052-0.15478-0.34375-0.41819-0.34375-0.8125 0-0.50424 0.18768-0.86168 0.59375-1.0625-0.12496-0.0556-0.24957-0.125-0.40625-0.125zm6.0938 0c-0.44767 0-0.77688 0.2369-0.96875 0.6875-0.0759 0.15492-0.125 0.31708-0.125 0.5l0.15625 0.90625c0 0.49193-0.16142 1.1563-0.4375 1.9688 0.067 0.48046 0.12515 1.0111 0.25 1.625 0.70347-1.6181 1.0625-2.8051 1.0625-3.5938l-0.125-0.90625c0-0.18292 0.0491-0.34508 0.125-0.5 0.12472-0.29289 0.29918-0.45925 0.53125-0.5625-0.0135-7e-3 -0.0173-0.0249-0.0312-0.0312-0.14129-0.0704-0.28431-0.0937-0.4375-0.0937zm-8.5938 1.375c-0.16657 0-0.32744 0.0234-0.46875 0.0937-0.42238 0.21123-0.65625 0.58687-0.65625 1.0938 0 0.59144 0.31729 1.0142 0.90625 1.2812 0.0506 0.77553 0.14743 1.497 0.3125 2.1875l0.25 1.0625c0.18371 0.61428 0.42058 1.0689 0.6875 1.4375 0.58896 0.77552 0.875 1.2629 0.875 1.5312 0 0.11595-0.0677 12.507-0.1875 13.094h0.90625c0.11979-0.58687 0.1875-12.978 0.1875-13.094 0-0.26833-0.28604-0.75573-0.875-1.5312-0.26692-0.36857-0.50379-0.82322-0.6875-1.4375l-0.25-1.0625c-0.16507-0.69045-0.2619-1.412-0.3125-2.1875-0.58896-0.26701-0.90625-0.68981-0.90625-1.2812 0-0.50688 0.20262-0.88252 0.625-1.0938-0.12683-0.059-0.24786-0.0937-0.40625-0.0937zm11.094 0c-0.22733 0-0.43087 0.0657-0.59375 0.1875-0.0523 0.18951-0.13684 0.34054-0.28125 0.4375-0.0253 0.0138-0.0373 0.0346-0.0625 0.0625-9e-3 0.0216-0.0233 0.0407-0.0312 0.0625-0.0531 0.14664-0.0937 0.29408-0.0937 0.4375l0.0937 0.78125c0 0.3558-0.14715 0.77022-0.40625 1.2188 0.0116 0.39077 0.022 0.76032 0.0625 1.125 0.81948-0.9146 1.2188-1.7096 1.2188-2.3438l-0.0625-0.78125c0-0.18309 0.0358-0.37943 0.125-0.5625 0.12828-0.26403 0.28861-0.43284 0.5-0.53125-0.14131-0.0704-0.30217-0.0937-0.46875-0.0937z" fill="#fff"/>
  <path d="m643.84 418.06c0.10715 0.0344 0.21002 0.0746 0.3125 0.125 0.76531 0.35162 1.1875 0.97696 1.1875 1.9062 0 0.17564-0.0814 0.45477-0.21875 0.78125-0.34759 0.87888-0.53125 1.7893-0.53125 2.8438 0 1.2558 0.57478 4.9833 1.0625 7.3438 0.0819-0.1854 0.11074-0.35207 0.1875-0.53125-0.39979-2.042-0.9375-5.6131-0.9375-6.75 0-1.0545 0.18366-1.9649 0.53125-2.8438 0.13745-0.32648 0.21875-0.60561 0.21875-0.78125 0-0.92929-0.42219-1.5546-1.1875-1.9062-0.2003-0.0983-0.40958-0.16032-0.625-0.1875zm-5.2812 1.0625c0.48351 0.16529 0.84547 0.55102 1.0938 1.125 0.13732 0.27626 0.21875 0.51751 0.21875 0.84375l-0.40625 1.6562c0 1.4064 1.4129 5.3643 2.6875 8.25 0.0383-0.18529 0.0584-0.29029 0.0937-0.46875-1.1062-2.5894-2.4688-6.4096-2.4688-7.7188l0.40625-1.6562c0-0.32624-0.0815-0.56748-0.21875-0.84375-0.29879-0.69077-0.76583-1.0896-1.4062-1.1875zm10.938 0c0.0827 0.024 0.17058 0.0235 0.25 0.0625 0.78689 0.3516 1.1562 0.97723 1.1562 1.9062 0 0.70319-0.17602 1.1927-0.59375 1.4688-0.046 0.0243-0.11059 0.10643-0.15625 0.15625-0.55785 0.45195-0.84375 1.5057-0.84375 3.1875 0 1.1321 0.19643 3.5666 0.3125 4.5938 0.11059-0.12155 0.17876-0.25595 0.28125-0.375-0.0827-0.90325-0.28125-3.1776-0.28125-4.1562 0-1.6818 0.28591-2.7356 0.84375-3.1875 0.0456-0.0497 0.11007-0.10051 0.15625-0.125 0.41772-0.27603 0.59375-0.79681 0.59375-1.5 0-0.92903-0.36935-1.5547-1.1562-1.9062-0.18096-0.0888-0.36818-0.10533-0.5625-0.125zm-15.5 2.4375c0.44841 0.15765 0.80282 0.47396 1.0625 1 0.16134 0.32649 0.21875 0.67349 0.21875 1l-0.28 1.47c0 1.1309 1.5777 3.7127 3.0625 5.3438 0.0111-0.0965 0.0217-0.21482 0.0312-0.3125-1.2727-1.4787-2.7812-3.9221-2.7812-4.9688l0.28125-1.4688c0-0.32653-0.0574-0.64225-0.21875-0.96875-0.31627-0.64067-0.77648-0.99872-1.375-1.0938zm20.062 0c0.0905 0.0306 0.19715 0.0527 0.28125 0.0937 0.76531 0.37669 1.125 1.0023 1.125 1.9062 0 1.0548-0.52663 1.8363-1.5938 2.3125-0.0916 1.383-0.29462 2.675-0.59375 3.9062l-0.4375 1.875c-0.33285 1.0955-0.61015 1.9677-1.0938 2.625-1.0672 1.3831-1.7188 2.209-1.7188 2.6875 0 0.20678 0.12669 23.196 0.34375 24.242h-13.938v0.19508h14.25c-0.21707-1.0466-0.34375-24.168-0.34375-24.375 0-0.47852 0.65158-1.3044 1.7188-2.6875 0.4836-0.65727 0.76089-1.5295 1.0938-2.625l0.4375-1.875c0.29913-1.2313 0.50216-2.5232 0.59375-3.9062 1.0671-0.4762 1.5938-1.2577 1.5938-2.3125 0-0.90395-0.35968-1.5296-1.125-1.9062-0.181-0.0888-0.3867-0.12434-0.59375-0.15625z" fill="#828383"/>
 </g>
</svg>
