<svg width="192" height="215" viewBox="0 0 192 215" fill="none" xmlns="http://www.w3.org/2000/svg">
<g clip-path="url(#clip0_907_45)">
<path d="M101.128 185.013H49.1294V153.329H150.776V185.013H119.153" stroke="white"/>
<path d="M95.9097 98.47L48.192 147.196L0.474365 98.47L48.192 49.7329L95.9097 98.47Z" fill="#F73746" stroke="black"/>
<path d="M143.627 49.7329L95.9097 98.47L48.192 49.7329L95.9097 1.00708L143.627 49.7329Z" fill="white" stroke="black"/>
<path d="M48.192 147.196L49.0617 148.078H142.746L143.627 147.196L95.9097 98.47L48.192 147.196Z" fill="white" stroke="black"/>
<path d="M191.345 98.47L143.627 147.196L95.9096 98.47L143.627 49.7329L191.345 98.47Z" fill="#F73746" stroke="black"/>
<path d="M68.7699 57.7897C68.7699 57.7897 70.5657 48.1713 70.5657 46.836C70.5657 45.5008 71.9097 45.2745 73.265 47.0624C74.6203 48.8503 80.6739 57.5634 80.6739 57.5634L68.7699 57.7784V57.7897Z" fill="white" stroke="#20201E"/>
<path d="M149.308 131.535C148.721 127.343 147.903 123.188 146.857 119.087L143.605 117.797L145.773 115.206C144.581 111.212 143.159 107.29 141.515 103.46L138.443 102.6L139.979 99.9863C138.389 96.6319 136.629 93.3611 134.705 90.1868L131.836 89.6097L132.864 87.2447C130.797 84.0763 128.674 81.1682 126.562 78.5429L123.524 78.2034L124.337 75.8497C121.875 72.9755 119.469 70.4634 117.244 68.3247L114.206 68.155L114.737 65.9824C111.853 63.3158 108.76 60.8864 105.487 58.7176L98.5976 60.8111C98.5976 60.8111 95.3111 59.0684 92.6118 57.2805C92.6118 57.2805 90.816 51.3171 90.2287 48.0355C89.6414 44.754 87.8231 46.2476 87.2245 47.1416C86.6259 48.0355 80.448 54.8929 80.448 54.8929C78.3378 54.611 76.1996 54.611 74.0894 54.8929C70.2042 55.6397 68.4423 58.2876 63.9247 62.4971C61.1662 64.8744 58.9905 67.8557 57.5661 71.2103C56.4367 74.1184 57.792 74.1184 57.3402 76.8003C56.8885 79.4821 44.7247 99.579 43.3807 102.057C42.0367 104.535 38.7727 112.026 45.1765 116.813C46.4769 117.826 47.9095 118.656 49.4344 119.28C50.3791 119.065 51.2489 118.6 51.9529 117.933L52.1675 117.628C52.1675 117.56 52.1675 117.56 52.1675 117.628C52.0823 117.918 52.0795 118.226 52.1592 118.518C52.239 118.81 52.3983 119.074 52.6193 119.28C53.0537 119.735 53.5817 120.09 54.1668 120.321C54.7518 120.551 55.3799 120.652 56.0075 120.615C57.2047 120.773 59.3958 119.721 61.1689 117.039C62.4421 115.207 63.8704 113.488 65.4381 111.902C66.7821 110.329 74.2136 106.866 77.1049 102.057C77.7826 100.926 79.3638 101.389 80.4932 102.283C81.6226 103.177 87.9021 103.415 90.6579 98.8887C90.6579 98.8887 91.9341 110.646 86.6146 118.782C77.8616 132.191 63.0438 135.552 58.5487 148.067H150.596C150.597 143.91 150.383 139.755 149.952 135.62L146.891 134.002L149.489 131.512L149.308 131.535Z" fill="white"/>
<path d="M52.1675 117.628L51.9529 117.933C51.2489 118.6 50.3791 119.065 49.4344 119.28C47.9095 118.656 46.4769 117.826 45.1765 116.813C38.7727 112.026 42.0367 104.535 43.3807 102.057C44.7247 99.579 56.8885 79.4821 57.3402 76.8003C57.792 74.1184 56.4367 74.1184 57.5661 71.2103C58.9905 67.8557 61.1662 64.8744 63.9247 62.4971C68.4423 58.2876 70.2042 55.6397 74.0894 54.8929C76.1996 54.611 78.3378 54.611 80.448 54.8929C80.448 54.8929 86.6259 48.0355 87.2245 47.1416C87.8231 46.2476 89.6414 44.754 90.2287 48.0355C90.816 51.3171 92.6118 57.2805 92.6118 57.2805C95.3111 59.0684 98.5976 60.8111 98.5976 60.8111L105.487 58.7176C108.76 60.8864 111.853 63.3158 114.737 65.9824L114.206 68.155L117.244 68.3247C119.469 70.4634 121.875 72.9755 124.337 75.8497L123.524 78.2034L126.562 78.5429C128.674 81.1682 130.797 84.0763 132.864 87.2447L131.836 89.6097L134.705 90.1868C136.629 93.3611 138.389 96.6319 139.979 99.9863L138.443 102.6L141.515 103.46C143.159 107.29 144.581 111.212 145.773 115.206L143.605 117.797L146.857 119.087C147.903 123.188 148.721 127.343 149.308 131.535L149.489 131.512L146.891 134.002L149.952 135.62C150.383 139.755 150.597 143.91 150.596 148.067H58.5487C63.0438 135.552 77.8616 132.191 86.6146 118.782C91.9341 110.646 90.6579 98.8887 90.6579 98.8887C87.9021 103.415 81.6226 103.177 80.4932 102.283C79.3638 101.389 77.7826 100.926 77.1049 102.057C74.2136 106.866 66.7821 110.329 65.4381 111.902C63.8704 113.488 62.4421 115.207 61.1689 117.039C59.3958 119.721 57.2047 120.773 56.0075 120.615C55.3799 120.652 54.7518 120.551 54.1668 120.321C53.5817 120.09 53.0537 119.735 52.6193 119.28C52.3983 119.074 52.239 118.81 52.1592 118.518C52.0795 118.226 52.0823 117.918 52.1675 117.628ZM52.1675 117.628C52.1675 117.56 52.1675 117.56 52.1675 117.628Z" stroke="#20201E"/>
<path d="M101.884 63.855C101.884 63.855 141.097 93.061 141.097 145.827Z" fill="white"/>
<path d="M101.884 63.855C101.884 63.855 141.097 93.061 141.097 145.827" stroke="black"/>
<path d="M93.8089 84.1216C94.1866 89.2801 93.0396 94.4358 90.511 98.9453C90.511 98.9453 99.9416 94.1134 100.845 87.6974" fill="white"/>
<path d="M93.8089 84.1216C94.1866 89.2801 93.0396 94.4358 90.511 98.9453C90.511 98.9453 99.9416 94.1134 100.845 87.6974" stroke="black"/>
<path d="M90.4998 98.9453C90.4998 98.9453 96.7906 102.001 101.432 100.077Z" fill="white"/>
<path d="M90.4998 98.9453C90.4998 98.9453 96.7906 102.001 101.432 100.077" stroke="black"/>
<path d="M51.9529 117.616C53.9057 115.123 55.6867 112.499 57.2838 109.763Z" fill="white"/>
<path d="M51.9529 117.616C53.9057 115.123 55.6867 112.499 57.2838 109.763" stroke="#20201E"/>
<path d="M77.7148 68.0984C77.7148 68.0984 70.8028 68.0984 68.5101 71.8892C65.3591 77.0379 68.9506 77.7055 68.9506 77.7055C70.0712 77.9966 71.2539 77.9356 72.3388 77.5308C73.4236 77.126 74.358 76.3969 75.0155 75.4423C77.6471 71.8666 75.4673 69.626 75.4673 69.626L77.7261 68.0645L77.7148 68.0984Z" fill="white" stroke="black"/>
<path d="M44.2729 105.995C46.7351 105.316 48.3049 105.542 49.4344 106.21C49.1242 105.164 49.0434 104.063 49.1974 102.983C49.3514 101.903 49.7366 100.869 50.3266 99.9524C52.3482 97.0442 55.7139 96.8292 58.6391 91.2392" fill="white"/>
<path d="M44.2729 105.995C46.7351 105.316 48.3049 105.542 49.4344 106.21C49.1242 105.164 49.0434 104.063 49.1974 102.983C49.3514 101.903 49.7366 100.869 50.3266 99.9524C52.3482 97.0442 55.7139 96.8292 58.6391 91.2392" stroke="black"/>
<path d="M109.813 71.2216L114.082 68.5511" stroke="black"/>
<path d="M118.566 80.8287L122.846 78.8371" stroke="black"/>
<path d="M126.426 91.9974L131.362 89.9719" stroke="black"/>
<path d="M132.728 104.762L137.879 102.974" stroke="black"/>
<path d="M137.653 119.744L143.04 118.182" stroke="black"/>
<path d="M140.578 134.941L146.18 134.273" stroke="black"/>
<path d="M49.1294 189.539H100.518V212.171L49.1294 189.539Z" fill="#F73746" stroke="black"/>
<path d="M120.418 213.982C118.641 214.08 116.89 213.525 115.494 212.42C114.209 211.253 113.3 209.728 112.885 208.041C112.318 205.893 112.048 203.677 112.083 201.455C112.047 199.244 112.316 197.039 112.885 194.903C113.299 193.232 114.214 191.728 115.505 190.592C116.92 189.51 118.674 188.968 120.452 189.064C122.172 188.983 123.864 189.525 125.218 190.592C126.507 191.74 127.431 193.244 127.872 194.914C129.001 199.224 129.001 203.753 127.872 208.063C127.416 209.743 126.487 211.256 125.195 212.42C123.845 213.505 122.147 214.061 120.418 213.982ZM120.418 211.775C121.683 211.775 122.507 210.87 122.891 209.059C123.332 206.561 123.525 204.025 123.467 201.489C123.527 198.964 123.334 196.439 122.891 193.953C122.507 192.165 121.694 191.271 120.452 191.271C119.209 191.271 118.374 192.165 117.944 193.953C117.476 196.436 117.272 198.962 117.335 201.489C117.276 204.026 117.477 206.563 117.933 209.059C118.328 210.87 119.153 211.775 120.418 211.775Z" fill="#F73746" stroke="black"/>
<path d="M131.012 213.642V210.146L136.026 205.019C137.191 203.848 138.263 202.588 139.234 201.251C139.921 200.301 140.451 199.247 140.804 198.128C141.106 197.069 141.255 195.971 141.244 194.869C141.325 193.873 141.075 192.879 140.533 192.04C140.31 191.742 140.017 191.503 139.68 191.345C139.343 191.187 138.973 191.115 138.601 191.135C138.096 191.1 137.593 191.223 137.16 191.486C136.727 191.749 136.386 192.141 136.184 192.606C135.647 194.008 135.408 195.508 135.484 197.008C134.389 197.061 133.302 196.794 132.356 196.238C131.943 195.953 131.613 195.562 131.401 195.107C131.188 194.652 131.101 194.148 131.147 193.647C131.156 192.818 131.451 192.018 131.983 191.384C132.653 190.62 133.509 190.042 134.468 189.709C135.795 189.243 137.196 189.024 138.601 189.064C140.642 188.929 142.671 189.461 144.384 190.58C145.024 191.053 145.539 191.676 145.884 192.394C146.228 193.112 146.392 193.903 146.36 194.699C146.357 195.473 146.216 196.239 145.943 196.963C145.585 197.838 145.11 198.66 144.531 199.407C143.707 200.487 142.813 201.512 141.854 202.473C140.725 203.635 139.313 205.023 137.619 206.638L134.231 209.863H142.136C142.81 209.884 143.468 209.658 143.986 209.226C144.504 208.795 144.847 208.188 144.949 207.52L145.22 206.468H147.219L147.049 213.597L131.012 213.642Z" fill="#F73746" stroke="black"/>
<path d="M69.1313 182.048C66.8539 182.134 64.5966 181.594 62.6033 180.487C60.8887 179.472 59.5342 177.944 58.7294 176.119C57.8206 174.053 57.3771 171.813 57.4306 169.556C57.3838 167.329 57.8272 165.119 58.7294 163.083C59.5729 161.266 60.9372 159.742 62.6485 158.704C64.6161 157.593 66.8518 157.049 69.1087 157.131C71.1086 157.004 73.1076 157.393 74.9139 158.263C75.453 158.515 75.9134 158.909 76.2457 159.404C76.578 159.898 76.7696 160.474 76.8 161.069C76.8019 161.488 76.6996 161.901 76.5024 162.27C76.3052 162.64 76.0194 162.954 75.6706 163.185C74.7395 163.801 73.6329 164.095 72.5195 164.022C72.547 163.279 72.4671 162.536 72.2824 161.816C72.0787 161.123 71.6878 160.501 71.1529 160.017C70.5141 159.507 69.7092 159.253 68.8941 159.304C67.9586 159.222 67.0209 159.434 66.2112 159.91C65.4016 160.387 64.7602 161.104 64.3765 161.963C63.4165 164.374 62.9851 166.963 63.1115 169.556C63.1115 172.837 63.6235 175.285 64.6475 176.9C65.6753 178.518 67.4372 179.333 69.9558 179.333C70.9277 179.353 71.8944 179.184 72.8019 178.835C73.5302 178.552 74.2089 178.155 74.8122 177.658C75.3315 177.208 75.8011 176.703 76.2127 176.153C76.4153 176.335 76.5735 176.562 76.6753 176.815C76.7771 177.068 76.8197 177.341 76.8 177.613C76.7707 178.33 76.5224 179.021 76.0885 179.593C75.4664 180.39 74.6383 181 73.6941 181.358C72.2341 181.89 70.6829 182.124 69.1313 182.048Z" fill="white" stroke="black"/>
<path d="M79.1266 181.709V179.921H80.5609C81.0012 179.936 81.4339 179.805 81.792 179.548C82.1195 179.299 82.2776 178.688 82.2776 177.714V161.341C82.2776 160.435 82.1195 159.858 81.7807 159.621C81.4203 159.38 80.994 159.257 80.5609 159.27H79.1266V157.471H90.3529C93.5589 157.286 96.7129 158.343 99.1624 160.424C101.278 162.393 102.336 165.301 102.336 169.148C102.385 171.407 101.922 173.647 100.981 175.7C100.108 177.543 98.7034 179.08 96.9487 180.113C94.9355 181.236 92.6554 181.787 90.3529 181.709H79.1266ZM87.6424 179.604H89.5285C90.5779 179.653 91.6212 179.418 92.5491 178.924C93.477 178.431 94.2554 177.696 94.8028 176.798C96.1066 174.468 96.7253 171.816 96.5873 169.148C96.5873 165.912 95.9925 163.502 94.8028 161.918C94.1916 161.123 93.3952 160.491 92.4836 160.077C91.5719 159.663 90.5728 159.479 89.5736 159.541H87.6424V179.604Z" fill="white" stroke="black"/>
<path d="M103.465 189.856V187.842H104.064C104.852 187.847 105.624 187.613 106.277 187.171C106.93 186.728 107.434 186.099 107.723 185.364C108.178 184.221 108.385 182.995 108.333 181.766V161.341C108.333 160.435 108.175 159.858 107.825 159.621C107.465 159.378 107.038 159.256 106.605 159.27H105.182V157.471H116.872V159.27H115.448C115.005 159.257 114.569 159.388 114.206 159.643C113.856 159.892 113.698 160.503 113.698 161.476V181.777C113.737 183.107 113.478 184.429 112.941 185.647C112.493 186.631 111.801 187.484 110.931 188.125C110.058 188.75 109.072 189.199 108.028 189.449C106.92 189.727 105.782 189.863 104.64 189.856H103.465Z" fill="white" stroke="black"/>
<path d="M118.588 181.709V179.921H120.011C120.443 179.933 120.868 179.815 121.231 179.582C121.57 179.355 121.739 178.789 121.739 177.884V161.476C121.739 160.503 121.581 159.892 121.254 159.643C120.892 159.385 120.455 159.253 120.011 159.27H118.588V157.471H137.393L137.528 163.717H135.157L134.987 162.121C134.951 161.437 134.737 160.774 134.366 160.198C134.181 159.971 133.943 159.793 133.673 159.678C133.404 159.564 133.11 159.517 132.819 159.541H127.172V168.028H135.202V170.065H127.172V179.638H133.948C134.242 179.657 134.536 179.599 134.802 179.47C135.067 179.341 135.294 179.146 135.462 178.903C135.814 178.344 136.038 177.714 136.117 177.058L136.399 175.463H138.726L138.488 181.709H118.588Z" fill="white" stroke="black"/>
</g>
<defs>
<clipPath id="clip0_907_45">
<rect width="192" height="215" fill="white"/>
</clipPath>
</defs>
</svg>
