<svg width="61" height="42" viewBox="0 0 61 42" fill="none" xmlns="http://www.w3.org/2000/svg">
<mask id="path-1-outside-1_239_62" maskUnits="userSpaceOnUse" x="0" y="0.892395" width="61" height="41" fill="black">
<rect fill="white" y="0.892395" width="61" height="41"/>
<path d="M0 1.8924H55C57.7614 1.8924 60 4.13097 60 6.8924V41.8924H0V1.8924Z"/>
</mask>
<path d="M0 0.892395H55C58.3137 0.892395 61 3.57869 61 6.8924H59C59 4.68326 57.2091 2.8924 55 2.8924H0V0.892395ZM60 41.8924H0H60ZM0 41.8924V1.8924V41.8924ZM55 0.892395C58.3137 0.892395 61 3.57869 61 6.8924V41.8924H59V6.8924C59 4.68326 57.2091 2.8924 55 2.8924V0.892395Z" fill="#D9D9D9" fill-opacity="0.5" mask="url(#path-1-outside-1_239_62)"/>
</svg>
