<?xml version="1.0" encoding="utf-8"?>
<!-- Generator: Adobe Illustrator 26.1.0, SVG Export Plug-In . SVG Version: 6.00 Build 0)  -->
<svg version="1.1" id="Calque_1" xmlns="http://www.w3.org/2000/svg" xmlns:xlink="http://www.w3.org/1999/xlink" x="0px" y="0px"
	 viewBox="0 0 500 177.1" style="enable-background:new 0 0 500 177.1;" xml:space="preserve">
<style type="text/css">
	.st0{fill:url(#SVGID_1_);}
	.st1{fill:none;stroke:#000000;stroke-width:0.5817;stroke-linecap:round;stroke-miterlimit:4.6539;}
	.st2{fill:none;stroke:#9C9CA7;stroke-width:1.1635;stroke-linecap:round;stroke-miterlimit:4.6539;}
	.st3{fill:#1A1D24;}
	.st4{fill:#1D1F27;}
	
		.st5{fill:url(#SVGID_00000071526594306595219990000015213625258538132648_);stroke:#212121;stroke-width:0.4749;stroke-miterlimit:4.6539;}
	
		.st6{fill:url(#SVGID_00000000205122332107588950000009836742104630970271_);stroke:#212121;stroke-width:0.4749;stroke-miterlimit:4.6539;}
	
		.st7{fill-rule:evenodd;clip-rule:evenodd;fill:url(#SVGID_00000154406536164769049380000006298608462497397139_);stroke:#9E9E9E;stroke-width:0.2791;stroke-miterlimit:4.6539;}
	
		.st8{fill:url(#SVGID_00000121252609238091648230000014266458230627612060_);stroke:#E0E0E0;stroke-width:0.1163;stroke-miterlimit:4.6539;}
	
		.st9{fill-rule:evenodd;clip-rule:evenodd;fill:url(#SVGID_00000152252553057693578310000003066832730950885267_);stroke:#9E9E9E;stroke-width:0.2337;}
	.st10{fill:url(#SVGID_00000134954801549954812090000014507513995103829922_);stroke:#E0E0E0;stroke-width:9.740300e-02;}
	.st11{fill-rule:evenodd;clip-rule:evenodd;fill:#515156;}
	.st12{fill-rule:evenodd;clip-rule:evenodd;fill:url(#SVGID_00000009592577462269358240000016409395432348202150_);}
	.st13{fill-rule:evenodd;clip-rule:evenodd;fill:url(#SVGID_00000013159449957089972290000012137614825828649645_);}
	.st14{fill-rule:evenodd;clip-rule:evenodd;fill:url(#SVGID_00000102521209894543292950000012671810954509283485_);}
	.st15{opacity:0.5;fill:url(#SVGID_00000057830356580827250070000017404694751055644316_);enable-background:new    ;}
	.st16{opacity:0.8;enable-background:new    ;}
	.st17{fill-rule:evenodd;clip-rule:evenodd;fill:url(#SVGID_00000128444546960141404340000003588076374945772930_);}
	.st18{fill-rule:evenodd;clip-rule:evenodd;fill:url(#SVGID_00000059277735464810989930000011856257829107349408_);}
	.st19{fill-rule:evenodd;clip-rule:evenodd;fill:url(#SVGID_00000127027081321967900650000017336872102017090963_);}
	.st20{opacity:0.5;fill:url(#SVGID_00000126321733797323657080000006568532282947634856_);enable-background:new    ;}
	.st21{fill:#D50000;stroke:#DD2C00;stroke-width:0.4936;stroke-miterlimit:4.6539;}
	.st22{opacity:0.5;fill:none;stroke:#F3E5F5;stroke-width:0.4334;stroke-miterlimit:4.6539;enable-background:new    ;}
	.st23{filter:url(#u);}
	.st24{fill:none;stroke:#DD2C00;stroke-width:1.1635;stroke-miterlimit:4.6539;}
	.st25{filter:url(#v);}
	.st26{fill:none;stroke:#F3E5F5;stroke-width:0.4334;stroke-miterlimit:4.6539;}
	
		.st27{opacity:0.5;fill:url(#SVGID_00000060747755667599766530000018310178395295565751_);stroke:#DD2C00;stroke-width:0.4936;stroke-miterlimit:4.6539;enable-background:new    ;}
	.st28{opacity:0.75;fill:none;stroke:#A30E18;stroke-width:1.1635;stroke-miterlimit:4.6539;enable-background:new    ;}
	.st29{opacity:0.75;fill:none;stroke:#C28083;stroke-width:0.4334;stroke-miterlimit:4.6539;enable-background:new    ;}
	.st30{opacity:0.5;fill:#D50000;stroke:#A30E18;stroke-width:1.1635;stroke-miterlimit:4.6539;enable-background:new    ;}
	
		.st31{opacity:0.9;fill-rule:evenodd;clip-rule:evenodd;fill:url(#SVGID_00000059311611067318985560000009284389319255100303_);enable-background:new    ;}
	.st32{fill:#2A1F25;stroke:#616161;stroke-width:0.4749;stroke-miterlimit:4.6539;}
	.st33{fill:none;stroke:#424242;stroke-width:0.4749;stroke-miterlimit:4.6539;}
	.st34{fill:#E25A5A;stroke:#D62929;stroke-width:0.4749;stroke-miterlimit:4.6539;}
	.st35{fill:#414248;}
	.st36{fill:url(#SVGID_00000077307702102473432610000010061885569220958110_);}
	.st37{fill:none;stroke:#757575;stroke-width:1.0003;stroke-linecap:round;stroke-miterlimit:4.0013;}
	.st38{fill:none;}
	.st39{fill:#FFFFFF;stroke:#000000;stroke-miterlimit:10;}
	.st40{font-family:'NotoSans-BoldItalic';}
	.st41{font-size:50px;}
</style>
<filter  color-interpolation-filters="sRGB" height="1.6084" id="v" width="1.1928" x="-.096394" y="-.30422">
	<feGaussianBlur  stdDeviation="0.3371257"></feGaussianBlur>
</filter>
<filter  color-interpolation-filters="sRGB" height="1.117" id="u" width="1.1337" x="-.066837" y="-.058516">
	<feGaussianBlur  stdDeviation="0.241457"></feGaussianBlur>
</filter>
<g transform="translate(0 -250.14)">
	<g transform="matrix(.26467 0 0 .26467 -.043323 207.4)">
		<g transform="matrix(1.1631 0 0 1.1631 -20.39 -89.367)">
			
				<linearGradient id="SVGID_1_" gradientUnits="userSpaceOnUse" x1="1450.4127" y1="-133.7319" x2="1468.8228" y2="-26.5619" gradientTransform="matrix(1.1635 0 0 -1.1635 -104.8994 561.0026)">
				<stop  offset="0" style="stop-color:#6E6F6F"/>
				<stop  offset="1" style="stop-color:#959295"/>
			</linearGradient>
			<path class="st0" d="M1641.9,339.3l-7.8,277.6c-0.2,4.2-2.5,6.4-4.9,6.1l-62.9,148.6l-8.3-110.3l43.6-236.7L1641.9,339.3z"/>
			<path class="st1" d="M1639.3,350.4l-7.8,265.8c-0.3,5.1-0.7,4.5-2.1,5.1"/>
			<path class="st2" d="M1638.3,350.9l-30.5,62.6l-4.4,20.4l-33.8,254.4l-5.9,93.6"/>
			<path d="M1565.6,771.4l2.4-71.4l2.4-31.7l31.9-235.6l4.6-20.9l34.4-72.4L160.9,238.1l-81.2,71.7l-9.9,20.8L22.1,548.9
				c-3.7,38.1-2.9,70.7-0.8,106.5l10,9.6l1522.7,126c6.2-0.5,9.8-2.8,11-7.8L1565.6,771.4z"/>
			<path class="st3" d="M19.9,561c-4.3,30.2-1.3,61.1,0.7,92c-0.1,5.6,4.1,11.4,10.8,12.5L1554.1,791c4-0.1,6.9-1.5,8.8-3.5
				c1.5-1.7,2.4-3.8,2.5-5.9l0.3-10.2l2.4-71.4l1-12.7L19.9,561z"/>
			<path class="st4" d="M160.9,238.1c0,0-59.5,42.9-81.2,71.7c-1.2,1.6-2.5,5.3-2.5,5.3l1525.5,116.7l4.4-20l34.8-72.4L160.9,238.1z
				"/>
			<g transform="translate(.6622 -70.532)">
				
					<linearGradient id="SVGID_00000124150301238511749210000010421292661594453650_" gradientUnits="userSpaceOnUse" x1="276.461" y1="-183.4315" x2="241.077" y2="-175.4515" gradientTransform="matrix(1.1635 0 0 -1.1635 -30.4244 297.4561)">
					<stop  offset="0" style="stop-color:#989E8E"/>
					<stop  offset="1" style="stop-color:#66685D"/>
				</linearGradient>
				
					<path style="fill:url(#SVGID_00000124150301238511749210000010421292661594453650_);stroke:#212121;stroke-width:0.4749;stroke-miterlimit:4.6539;" d="
					M166.3,443.9l613.4,43.1l-31.5,168.4l-619.9-47.1L166.3,443.9z"/>
			</g>
			<g transform="translate(3.1107 -70.532)">
				
					<linearGradient id="SVGID_00000182516740018367676440000004719271230650550664_" gradientUnits="userSpaceOnUse" x1="910.1093" y1="-243.2471" x2="858.6592" y2="-233.2672" gradientTransform="matrix(1.1635 0 0 -1.1635 -20.7699 297.4561)">
					<stop  offset="0" style="stop-color:#BDC4B0"/>
					<stop  offset="1" style="stop-color:#7B8173"/>
				</linearGradient>
				
					<path style="fill:url(#SVGID_00000182516740018367676440000004719271230650550664_);stroke:#212121;stroke-width:0.4749;stroke-miterlimit:4.6539;" d="
					M814.9,664.1c0-3.5,31.4-171.6,31.4-171.6l633,46.6c2.5,0.5,5.2,2.6,6.6,5.1l-27.1,166.3L814.9,664.1z"/>
			</g>
			<g transform="translate(-19.014 39.572)">
				
					<radialGradient id="SVGID_00000097501004387207980790000014614344058285484449_" cx="220.3934" cy="-155.8683" r="4.4641" gradientTransform="matrix(1.0032 0 0 -1.0178 -108.4926 428.347)" gradientUnits="userSpaceOnUse">
					<stop  offset="0" style="stop-color:#FFFFFF"/>
					<stop  offset="0.6" style="stop-color:#9E9E9E"/>
					<stop  offset="1" style="stop-color:#EBE9E6"/>
				</radialGradient>
				
					<path style="fill-rule:evenodd;clip-rule:evenodd;fill:url(#SVGID_00000097501004387207980790000014614344058285484449_);stroke:#9E9E9E;stroke-width:0.2791;stroke-miterlimit:4.6539;" d="
					M129,586.9c0.5,11.5-6.6,16.7-15.9,16.7s-16.9-7.4-16.9-16.5c0-9.1,6.7-17,16.1-16.8C121.4,570.5,128.7,579,129,586.9L129,586.9
					z"/>
				
					<radialGradient id="SVGID_00000013181131046387250150000000543970936376261798_" cx="223.5769" cy="-322.8107" r="2.981" gradientTransform="matrix(0.9975 0 0 -0.7537 -108.6192 343.0103)" gradientUnits="userSpaceOnUse">
					<stop  offset="0" style="stop-color:#BDBDBD"/>
					<stop  offset="1" style="stop-color:#212121"/>
				</radialGradient>
				
					<path style="fill:url(#SVGID_00000013181131046387250150000000543970936376261798_);stroke:#E0E0E0;stroke-width:0.1163;stroke-miterlimit:4.6539;" d="
					M104.7,579.6l5.3,3.6c0.6,0.6,1.6,0.3,2.6-0.2l1.8-6.2l5.9,3.1l-3.4,6.6l7,4l-3.1,4.9l-4.5-2.9c-1.3-0.4-1.4,0.2-2.5,0.6
					l-3.3,4.8l-4.5-3l1.7-3.2c0.2-2.8-0.2-3.7-0.6-4.5l-4.8-2.8L104.7,579.6z"/>
				<g transform="matrix(1.0548 0 0 .99929 364.43 30.066)">
					
						<radialGradient id="SVGID_00000035533339488603180270000005204885457156334000_" cx="-147.5578" cy="-186.4068" r="4.4641" gradientTransform="matrix(1.0582 0 0 -1.017 1234.3768 480.6815)" gradientUnits="userSpaceOnUse">
						<stop  offset="0" style="stop-color:#FFFFFF"/>
						<stop  offset="0.6" style="stop-color:#9E9E9E"/>
						<stop  offset="1" style="stop-color:#EBE9E6"/>
					</radialGradient>
					
						<path style="fill-rule:evenodd;clip-rule:evenodd;fill:url(#SVGID_00000035533339488603180270000005204885457156334000_);stroke:#9E9E9E;stroke-width:0.2337;" d="
						M1094.6,670.2c0.5,11.5-6.6,16.7-15.9,16.7s-16.9-7.4-16.9-16.5s6.7-17,16.1-16.8C1087,653.8,1094.3,662.3,1094.6,670.2
						L1094.6,670.2z"/>
					
						<radialGradient id="SVGID_00000098216171002046783990000006399075532279749815_" cx="-109.2559" cy="-462.8657" r="2.981" gradientTransform="matrix(0.9 0 0 -0.6443 1180.4827 370.6491)" gradientUnits="userSpaceOnUse">
						<stop  offset="0" style="stop-color:#FAFAFA"/>
						<stop  offset="1" style="stop-color:#212121"/>
					</radialGradient>
					
						<path style="fill:url(#SVGID_00000098216171002046783990000006399075532279749815_);stroke:#E0E0E0;stroke-width:9.740300e-02;" d="
						M1067.7,668.5l5.9-0.3c0.8,0.2,1.2-0.9,1.8-2l-0.7-6.9l5.7-0.2l0.4,7.6l7.9-0.2l0.5,6.6l-4.1-0.1c-1.3,0.3-2.1,1.1-2.9,2l0,6.1
						l-5.6-0.2l-0.1-3.7c-1.2-2.5-2.1-3.1-2.8-3.5l-5.4,0.4L1067.7,668.5z"/>
				</g>
			</g>
			<g transform="translate(-19.014 39.572)">
				<g transform="matrix(1 0 0 1.0541 3.8388 16.833)">
					<g transform="translate(-3.9031 -25.706)">
						
							<ellipse transform="matrix(1 -4.907395e-03 4.907395e-03 1 -1.1761 1.298)" class="st11" cx="263.9" cy="240.3" rx="75.3" ry="23.4"/>
						
							<linearGradient id="SVGID_00000111162523848893738840000000958872269339986858_" gradientUnits="userSpaceOnUse" x1="311.9771" y1="267.3434" x2="317.25" y2="248.9433" gradientTransform="matrix(1.1635 -5.449397e-03 -5.866912e-03 -1.2341 -101.2598 514.3575)">
							<stop  offset="0" style="stop-color:#646267"/>
							<stop  offset="0.1964" style="stop-color:#FFFFFF"/>
							<stop  offset="0.4898" style="stop-color:#9E9E9E"/>
							<stop  offset="0.7942" style="stop-color:#FFFFFF"/>
							<stop  offset="1" style="stop-color:#5F5E63"/>
						</linearGradient>
						
							<path style="fill-rule:evenodd;clip-rule:evenodd;fill:url(#SVGID_00000111162523848893738840000000958872269339986858_);" d="
							M266.1,176.8c46.9-0.2,85,11.6,85.1,26.4c0.1,14.8-37.9,27-84.8,27.2s-85-11.6-85.1-26.4C181.2,189.2,219.2,177.1,266.1,176.8
							z"/>
						
							<linearGradient id="SVGID_00000116931808031178153660000014674277099631230887_" gradientUnits="userSpaceOnUse" x1="308.4288" y1="278.5826" x2="312.6988" y2="263.8326" gradientTransform="matrix(1.1635 -5.215886e-03 -6.091165e-03 -1.2264 -100.992 509.4048)">
							<stop  offset="0" style="stop-color:#000000"/>
							<stop  offset="0.5906" style="stop-color:#F5F5F5"/>
							<stop  offset="1" style="stop-color:#5F5E63"/>
						</linearGradient>
						
							<path style="fill-rule:evenodd;clip-rule:evenodd;fill:url(#SVGID_00000116931808031178153660000014674277099631230887_);" d="
							M266.1,176.8c42.9-0.2,77.7,10.1,77.7,23.1c0.1,12.9-34.6,23.6-77.5,23.8c-42.9,0.2-77.7-10.1-77.7-23.1
							C188.5,187.6,223.2,177,266.1,176.8z"/>
						
							<linearGradient id="SVGID_00000073002738512658660740000009710053706156454583_" gradientUnits="userSpaceOnUse" x1="250.5968" y1="237.6618" x2="294.7878" y2="234.1918" gradientTransform="matrix(1.1635 0 0 -1.2264 -108.2613 510.3969)">
							<stop  offset="0" style="stop-color:#FAFAFA"/>
							<stop  offset="0.139" style="stop-color:#616161"/>
							<stop  offset="0.268" style="stop-color:#FFFFFF"/>
							<stop  offset="0.5624" style="stop-color:#616161"/>
							<stop  offset="0.8312" style="stop-color:#424242"/>
							<stop  offset="1" style="stop-color:#F5F5F5"/>
						</linearGradient>
						
							<path style="fill-rule:evenodd;clip-rule:evenodd;fill:url(#SVGID_00000073002738512658660740000009710053706156454583_);" d="
							M181.5,205.8c11.2,31.1,149.6,34.7,169.2,0v19.4c-12.5,35.2-163.9,32.8-169.2,0V205.8z"/>
					</g>
					
						<linearGradient id="SVGID_00000127001958724101818450000000688060246780889501_" gradientUnits="userSpaceOnUse" x1="260.3727" y1="267.5995" x2="282.6897" y2="266.6095" gradientTransform="matrix(1.1635 0 0 -1.2264 -92.8714 550.3209)">
						<stop  offset="0" style="stop-color:#FFFFFF"/>
						<stop  offset="1" style="stop-color:#BDBDBD;stop-opacity:0"/>
					</linearGradient>
					
						<path style="opacity:0.5;fill:url(#SVGID_00000127001958724101818450000000688060246780889501_);enable-background:new    ;" d="
						M334.3,215.1c-20.7,30-133.2,26.5-147.6,3c-1.2-1.9-0.9-4.7-0.2-5.7C199.2,224.2,275.2,237.9,334.3,215.1L334.3,215.1z"/>
					<path class="st16" d="M337,210.4c-19,15.3-101.4,21.8-143.3,4.4C267,231,325,215.9,337,210.4z"/>
				</g>
				<g transform="matrix(1.0976 0 0 1.0555 321.41 38.822)">
					<g transform="translate(-3.9031 -25.706)">
						
							<ellipse transform="matrix(1 -4.388276e-03 4.388276e-03 1 -1.3008 4.7257)" class="st11" cx="1076.2" cy="298.8" rx="75.3" ry="23.4"/>
						
							<linearGradient id="SVGID_00000081620812085277161630000009471011283875590051_" gradientUnits="userSpaceOnUse" x1="-20.3545" y1="246.7617" x2="-15.0815" y2="228.3617" gradientTransform="matrix(1.277 -5.981258e-03 -5.874704e-03 -1.2358 1099.9163 546.0019)">
							<stop  offset="0" style="stop-color:#646267"/>
							<stop  offset="0.1964" style="stop-color:#FFFFFF"/>
							<stop  offset="0.4898" style="stop-color:#9E9E9E"/>
							<stop  offset="0.7942" style="stop-color:#FFFFFF"/>
							<stop  offset="1" style="stop-color:#5F5E63"/>
						</linearGradient>
						
							<path style="fill-rule:evenodd;clip-rule:evenodd;fill:url(#SVGID_00000081620812085277161630000009471011283875590051_);" d="
							M1078.4,235.3c46.9-0.2,85,11.6,85.1,26.4c0.1,14.8-37.9,27-84.8,27.2c-46.9,0.2-85-11.6-85.1-26.4
							C993.5,247.7,1031.5,235.5,1078.4,235.3z"/>
						
							<linearGradient id="SVGID_00000111870119865791923260000006302110282638507677_" gradientUnits="userSpaceOnUse" x1="-19.1105" y1="249.1596" x2="-16.3545" y2="233.7396" gradientTransform="matrix(1.277 -5.724957e-03 -6.099254e-03 -1.228 1100.1793 541.2842)">
							<stop  offset="0" style="stop-color:#212121"/>
							<stop  offset="0.4206" style="stop-color:#F5F5F5"/>
							<stop  offset="1" style="stop-color:#5F5E63"/>
						</linearGradient>
						
							<path style="fill-rule:evenodd;clip-rule:evenodd;fill:url(#SVGID_00000111870119865791923260000006302110282638507677_);" d="
							M1078.4,235.2c42.9-0.2,77.7,10.1,77.7,23.1c0.1,12.9-34.6,23.6-77.5,23.8c-42.9,0.2-77.7-10.1-77.7-23.1
							S1035.5,235.4,1078.4,235.2z"/>
						
							<linearGradient id="SVGID_00000080168174684672264140000013095682152436711560_" gradientUnits="userSpaceOnUse" x1="-76.2793" y1="217.0472" x2="-32.0883" y2="213.5772" gradientTransform="matrix(1.277 0 0 -1.2281 1093.0405 543.9304)">
							<stop  offset="0" style="stop-color:#FAFAFA"/>
							<stop  offset="0.139" style="stop-color:#616161"/>
							<stop  offset="0.268" style="stop-color:#FFFFFF"/>
							<stop  offset="0.5624" style="stop-color:#616161"/>
							<stop  offset="0.8312" style="stop-color:#424242"/>
							<stop  offset="1" style="stop-color:#F5F5F5"/>
						</linearGradient>
						
							<path style="fill-rule:evenodd;clip-rule:evenodd;fill:url(#SVGID_00000080168174684672264140000013095682152436711560_);" d="
							M993.8,264.3c11.2,31.1,149.6,34.7,169.2,0v19.4c-12.5,35.2-163.9,32.8-169.2,0V264.3z"/>
					</g>
					
						<linearGradient id="SVGID_00000085946214141164617140000010364001747601472182_" gradientUnits="userSpaceOnUse" x1="-67.7197" y1="246.9111" x2="-45.4027" y2="245.9211" gradientTransform="matrix(1.277 0 0 -1.2281 1108.8737 583.8126)">
						<stop  offset="0" style="stop-color:#FFFFFF"/>
						<stop  offset="1" style="stop-color:#BDBDBD;stop-opacity:0"/>
					</linearGradient>
					
						<path style="opacity:0.5;fill:url(#SVGID_00000085946214141164617140000010364001747601472182_);enable-background:new    ;" d="
						M1146.6,273.5c-20.7,30-133.2,26.5-147.6,3c-1.2-1.9-0.9-4.7-0.2-5.7C1011.5,282.6,1087.5,296.3,1146.6,273.5L1146.6,273.5z"/>
					<path class="st16" d="M1149.3,268.8c-19,15.3-101.4,21.8-143.3,4.4C1079.3,289.4,1137.3,274.4,1149.3,268.8z"/>
				</g>
			</g>
			<g transform="translate(-19.014 39.572)">
				<g transform="translate(-21.945 10.935)">
					<path class="st21" d="M442.3,213.9l0.1,27.6c5.6,7,29.2,6.2,32.5-0.4l0.1-26.7C471.9,208.1,449.7,206.4,442.3,213.9
						L442.3,213.9z"/>
					<ellipse class="st22" cx="458.8" cy="214.1" rx="15.9" ry="5"/>
					<g class="st23">
						<path class="st24" d="M442.3,213.9l0.1,27.6c5.6,7,29.2,6.2,32.5-0.4l0.1-26.7C471.9,208.1,449.7,206.4,442.3,213.9
							L442.3,213.9z"/>
					</g>
					<g class="st25">
						<ellipse class="st26" cx="458.8" cy="214.1" rx="4.9" ry="1.5"/>
					</g>
				</g>
				<g transform="translate(11.553 1.5577)">
					
						<linearGradient id="SVGID_00000072991711766392106380000002566371324835968659_" gradientUnits="userSpaceOnUse" x1="1211.8009" y1="213.8726" x2="1211.8009" y2="210.2326" gradientTransform="matrix(1.1635 0 0 -1.1635 -98.0245 553.4631)">
						<stop  offset="0" style="stop-color:#DD2C00"/>
						<stop  offset="1" style="stop-color:#D50000;stop-opacity:0"/>
					</linearGradient>
					
						<path style="opacity:0.5;fill:url(#SVGID_00000072991711766392106380000002566371324835968659_);stroke:#DD2C00;stroke-width:0.4936;stroke-miterlimit:4.6539;enable-background:new    ;" d="
						M1295.5,286.3l0.1,27.6c5.6,7,29.2,6.2,32.5-0.4l0.1-26.7C1325,280.5,1302.9,278.8,1295.5,286.3L1295.5,286.3z"/>
					<path class="st28" d="M1295.5,286.3l0.1,27.6c5.6,7,29.2,6.2,32.5-0.4l0.1-26.7C1325,280.5,1302.9,278.8,1295.5,286.3
						L1295.5,286.3z"/>
					<ellipse class="st29" cx="1311.9" cy="286.5" rx="15.9" ry="5"/>
					<path class="st30" d="M1295.5,286.3l0.1,27.6c5.6,7,29.2,6.2,32.5-0.4l0.1-26.7C1325,280.5,1302.9,278.8,1295.5,286.3
						L1295.5,286.3z"/>
				</g>
				
					<radialGradient id="SVGID_00000101804270146071675740000015555931270406029744_" cx="467.0577" cy="209.7455" r="9.1161" gradientTransform="matrix(1.1635 0 0 -1.1635 -108.0078 475.3893)" gradientUnits="userSpaceOnUse">
					<stop  offset="0" style="stop-color:#F57F17"/>
					<stop  offset="1" style="stop-color:#D50000;stop-opacity:0"/>
				</radialGradient>
				
					<circle style="opacity:0.9;fill-rule:evenodd;clip-rule:evenodd;fill:url(#SVGID_00000101804270146071675740000015555931270406029744_);enable-background:new    ;" cx="435.4" cy="231.4" r="34.5"/>
			</g>
			<g transform="translate(-19.014 81.572)">
				<path class="st32" d="M811.8,239.8l27.3-32.7l109.1,8.2l-23.1,32.4L811.8,239.8z"/>
				<path class="st33" d="M807.9,241.2l28.9-36.4l115.4,9.1L927.7,250L807.9,241.2z"/>
				<path class="st34" d="M823.3,237.6l22.7-27l90.8,6.7l-19.2,26.8L823.3,237.6z"/>
			</g>
			<path class="st35" d="M76.9,315.6l-7.2,15.1L21.4,548.3L19.9,561L1569,687.4l1.5-19.1l31.9-235.6l0.2-0.9L76.9,315.6z
				 M162.7,357.4l620.1,43.8l-35.9,183.6l-626.4-48.6L162.7,357.4z M842.1,405.7l649.7,46l-29.5,187.8l-652.7-48.8L842.1,405.7z"/>
			<path d="M77.7,315.1l1524.5,116.6l4.2-18.8L83.6,305.2C81.6,307.7,78.5,310.4,77.7,315.1L77.7,315.1z"/>
			
				<linearGradient id="SVGID_00000059302953472186337280000009020283957214803340_" gradientUnits="userSpaceOnUse" x1="1437.5394" y1="49.1995" x2="1437.5995" y2="48.3795" gradientTransform="matrix(1.1635 0 0 -1.1635 -33.0354 411.4391)">
				<stop  offset="0" style="stop-color:#9C9CA7"/>
				<stop  offset="1" style="stop-color:#908E90"/>
			</linearGradient>
			<path style="fill:url(#SVGID_00000059302953472186337280000009020283957214803340_);" d="M1635.9,351.9c2.1-4.5,4-8.4,6-12.5
				l-0.6,19.1c-1.6,0.2-1.3-3.5-1.2-7L1635.9,351.9z"/>
		</g>
		<path class="st37" d="M847.8,589.1l40.8-210.4"/>
	</g>
</g>
<rect x="114" y="3.3" transform="matrix(5.681403e-02 -0.9984 0.9984 5.681403e-02 44.819 209.6085)" class="st38" width="38.7" height="155.6"/>
<text transform="matrix(0.9976 6.975648e-02 -6.975648e-02 0.9976 54.75 93.2673)" class="st39 st40 st41">ERROR</text>
<polygon class="st38" points="387.3,117.6 304,115.2 305.7,76.6 389.1,78.9 "/>
<text transform="matrix(0.9986 5.233596e-02 -5.233596e-02 0.9986 304.0941 112.4987)" class="st39 st40 st41">404</text>
</svg>
