<svg width="652" height="162" viewBox="0 0 652 162" fill="none" xmlns="http://www.w3.org/2000/svg">
<mask id="path-1-outside-1_123_29" maskUnits="userSpaceOnUse" x="0" y="0.000244141" width="652" height="162" fill="black">
<rect fill="white" y="0.000244141" width="652" height="162"/>
<path d="M2 0.000244141H652V160H4.99999C3.34313 160 2 158.657 2 157V0.000244141Z"/>
</mask>
<path d="M2 0.000244141H652H2ZM652 162H5C2.23858 162 0 159.762 0 157H4C4 157.553 4.44772 158 5 158H652V162ZM5 162C2.23858 162 0 159.762 0 157V0.000244141H4V157C4 157.553 4.44772 158 5 158V162ZM652 0.000244141V160V0.000244141Z" fill="white" mask="url(#path-1-outside-1_123_29)"/>
</svg>
