<svg width="651" height="161" viewBox="0 0 651 161" fill="none" xmlns="http://www.w3.org/2000/svg">
<mask id="path-1-outside-1_123_28" maskUnits="userSpaceOnUse" x="0" y="0" width="651" height="161" fill="black">
<rect fill="white" width="651" height="161"/>
<path d="M0 0H650V157C650 158.657 648.657 160 647 160H0V0Z"/>
</mask>
<path d="M0 0H650H0ZM651 157C651 159.209 649.209 161 647 161H0V159H647C648.105 159 649 158.105 649 157H651ZM0 160V0V160ZM651 0V157C651 159.209 649.209 161 647 161V159C648.105 159 649 158.105 649 157V0H651Z" fill="#D9D9D9" mask="url(#path-1-outside-1_123_28)"/>
</svg>
