<svg width="287" height="118" viewBox="0 0 287 118" fill="none" xmlns="http://www.w3.org/2000/svg">
<mask id="path-1-outside-1_8_141" maskUnits="userSpaceOnUse" x="0" y="0" width="287" height="118" fill="black">
<rect fill="white" width="287" height="118"/>
<path d="M0 0H286V114C286 115.657 284.657 117 283 117H0V0Z"/>
</mask>
<path d="M0 0H286H0ZM287 114C287 116.209 285.209 118 283 118H0V116H283C284.105 116 285 115.105 285 114H287ZM0 117V0V117ZM287 0V114C287 116.209 285.209 118 283 118V116C284.105 116 285 115.105 285 114V0H287Z" fill="#D9D9D9" mask="url(#path-1-outside-1_8_141)"/>
</svg>
