<svg width="651" height="151" viewBox="0 0 651 151" fill="none" xmlns="http://www.w3.org/2000/svg">
<mask id="path-1-outside-1_123_28" maskUnits="userSpaceOnUse" x="0" y="0" width="651" height="151" fill="black">
<rect fill="white" width="651" height="151"/>
<path d="M0 0H650V147C650 148.657 648.657 150 647 150H0V0Z"/>
</mask>
<path d="M0 0H650H0ZM651 147C651 149.209 649.209 151 647 151H0V149H647C648.105 149 649 148.105 649 147H651ZM0 150V0V150ZM651 0V147C651 149.209 649.209 151 647 151V149C648.105 149 649 148.105 649 147V0H651Z" fill="#D9D9D9" mask="url(#path-1-outside-1_123_28)"/>
</svg>
